<svg width="4961" height="3508" xmlns="http://www.w3.org/2000/svg"><line x1="4148.0" y1="3400.0" x2="4604.0" y2="3400.0" stroke="black" stroke-width="30" />
<line x1="181.0" y1="82.0" x2="4898.0" y2="82.0" stroke="black" stroke-width="30" />
<line x1="195.0" y1="97.0" x2="4884.0" y2="97.0" stroke="black" stroke-width="30" />
<line x1="189.0" y1="3423.0" x2="4890.0" y2="3423.0" stroke="black" stroke-width="30" />
<line x1="201.0" y1="3444.0" x2="201.0" y2="62.0" stroke="black" stroke-width="30" />
<line x1="795.0" y1="1802.0" x2="1286.0" y2="1802.0" stroke="black" stroke-width="30" />
<line x1="4877.0" y1="3438.0" x2="4877.0" y2="69.0" stroke="black" stroke-width="30" />
<line x1="224.0" y1="3429.0" x2="224.0" y2="68.0" stroke="black" stroke-width="30" />
<line x1="1417.0" y1="1786.0" x2="1890.0" y2="1786.0" stroke="black" stroke-width="30" />
<line x1="4854.0" y1="3138.0" x2="4854.0" y2="71.0" stroke="black" stroke-width="30" />
<line x1="2672.0" y1="3285.0" x2="3375.0" y2="3285.0" stroke="black" stroke-width="30" />
<line x1="2673.0" y1="3125.0" x2="3953.0" y2="3125.0" stroke="black" stroke-width="30" />
<line x1="2672.0" y1="3226.0" x2="3954.0" y2="3226.0" stroke="black" stroke-width="30" />
<line x1="2360.0" y1="2545.0" x2="2857.0" y2="2545.0" stroke="black" stroke-width="30" />
<line x1="3913.0" y1="3302.0" x2="4366.0" y2="3302.0" stroke="black" stroke-width="30" />
<line x1="2662.0" y1="3108.0" x2="4883.0" y2="3108.0" stroke="black" stroke-width="30" />
<line x1="3578.0" y1="2530.0" x2="3871.0" y2="2530.0" stroke="black" stroke-width="30" />
<line x1="3912.0" y1="3344.0" x2="4367.0" y2="3344.0" stroke="black" stroke-width="30" />
<line x1="286.0" y1="3326.0" x2="1910.0" y2="3326.0" stroke="black" stroke-width="30" />
<line x1="297.0" y1="3311.0" x2="1911.0" y2="3311.0" stroke="black" stroke-width="30" />
<line x1="298.0" y1="2664.0" x2="1902.0" y2="2664.0" stroke="black" stroke-width="30" />
<line x1="2673.0" y1="3361.0" x2="3374.0" y2="3361.0" stroke="black" stroke-width="30" />
<line x1="2673.0" y1="3243.0" x2="3374.0" y2="3243.0" stroke="black" stroke-width="30" />
<line x1="289.0" y1="2649.0" x2="1908.0" y2="2649.0" stroke="black" stroke-width="30" />
<line x1="3913.0" y1="3184.0" x2="4883.0" y2="3184.0" stroke="black" stroke-width="30" />
<line x1="3912.0" y1="3167.0" x2="4884.0" y2="3167.0" stroke="black" stroke-width="30" />
<line x1="311.0" y1="3350.0" x2="311.0" y2="2626.0" stroke="black" stroke-width="30" />
<line x1="2391.0" y1="1566.0" x2="3119.0" y2="1566.0" stroke="black" stroke-width="30" />
<line x1="1668.0" y1="1550.0" x2="2239.0" y2="1550.0" stroke="black" stroke-width="30" />
<line x1="4563.0" y1="3244.0" x2="4768.0" y2="3244.0" stroke="black" stroke-width="30" />
<line x1="326.0" y1="3340.0" x2="326.0" y2="2636.0" stroke="black" stroke-width="30" />
<line x1="3333.0" y1="3400.0" x2="3505.0" y2="3400.0" stroke="black" stroke-width="30" />
<line x1="2721.0" y1="1538.0" x2="2806.0" y2="1538.0" stroke="black" stroke-width="30" />
<line x1="3033.0" y1="1962.0" x2="3162.0" y2="1962.0" stroke="black" stroke-width="30" />
<line x1="2201.0" y1="962.0" x2="2618.0" y2="962.0" stroke="black" stroke-width="30" />
<line x1="2722.0" y1="1774.0" x2="2807.0" y2="1774.0" stroke="black" stroke-width="30" />
<line x1="1941.0" y1="1980.0" x2="2108.0" y2="1980.0" stroke="black" stroke-width="30" />
<line x1="4727.0" y1="3400.0" x2="4884.0" y2="3400.0" stroke="black" stroke-width="30" />
<line x1="4151.0" y1="2530.0" x2="4458.0" y2="2530.0" stroke="black" stroke-width="30" />
<line x1="1666.0" y1="1802.0" x2="1900.0" y2="1802.0" stroke="black" stroke-width="30" />
<line x1="2212.0" y1="979.0" x2="2607.0" y2="979.0" stroke="black" stroke-width="30" />
<line x1="2114.0" y1="1578.0" x2="2203.0" y2="1578.0" stroke="black" stroke-width="30" />
<line x1="2199.0" y1="1110.0" x2="2620.0" y2="1110.0" stroke="black" stroke-width="30" />
<line x1="1970.0" y1="1815.0" x2="2058.0" y2="1815.0" stroke="black" stroke-width="30" />
<line x1="195.0" y1="3400.0" x2="2714.0" y2="3400.0" stroke="black" stroke-width="30" />
<line x1="427.0" y1="1786.0" x2="628.0" y2="1786.0" stroke="black" stroke-width="30" />
<line x1="2211.0" y1="1093.0" x2="2608.0" y2="1093.0" stroke="black" stroke-width="30" />
<line x1="1404.0632670862492" y1="1809.2680069312619" x2="1632.9102839143493" y2="1528.7104924423325" stroke="black" stroke-width="30" />
<line x1="3924.0" y1="3255.0" x2="3924.0" y2="3096.0" stroke="black" stroke-width="30" />
<line x1="2649.0" y1="1538.0" x2="2734.0" y2="1538.0" stroke="black" stroke-width="30" />
<line x1="4055.0" y1="1802.0" x2="4171.0" y2="1802.0" stroke="black" stroke-width="30" />
<line x1="2434.0" y1="1774.0" x2="2519.0" y2="1774.0" stroke="black" stroke-width="30" />
<line x1="1429.1424480784945" y1="1808.3322252588118" x2="1643.8575519215055" y2="1543.680128201458" stroke="black" stroke-width="30" />
<line x1="3257.0" y1="1786.0" x2="3557.0" y2="1786.0" stroke="black" stroke-width="30" />
<line x1="2750.7867965644" y1="1972.2132034355932" x2="2856.2132034356" y2="1867.7867965644068" stroke="black" stroke-width="30" />
<line x1="3842.0" y1="1802.0" x2="3958.0" y2="1802.0" stroke="black" stroke-width="30" />
<line x1="3079.1124950516887" y1="1527.6920151701675" x2="3304.8875049483113" y2="1701.3173461212277" stroke="black" stroke-width="30" />
<line x1="2684.0" y1="3429.0" x2="2684.0" y2="3086.0" stroke="black" stroke-width="30" />
<line x1="1305.0" y1="2545.0" x2="1416.0" y2="2545.0" stroke="black" stroke-width="30" />
<line x1="2701.0" y1="3255.0" x2="2701.0" y2="3097.0" stroke="black" stroke-width="30" />
<line x1="1934.0" y1="1815.0" x2="2022.0" y2="1815.0" stroke="black" stroke-width="30" />
<line x1="2650.0" y1="1774.0" x2="2735.0" y2="1774.0" stroke="black" stroke-width="30" />
<line x1="3941.0" y1="3429.0" x2="3941.0" y2="3333.0" stroke="black" stroke-width="30" />
<line x1="2391.0" y1="1802.0" x2="2949.0" y2="1802.0" stroke="black" stroke-width="30" />
<line x1="1831.0043081783815" y1="2546.508401556299" x2="1949.9956918216185" y2="2544.491598443701" stroke="black" stroke-width="30" />
<line x1="2362.0" y1="2530.0" x2="2858.0" y2="2530.0" stroke="black" stroke-width="30" />
<line x1="3913.0" y1="3244.0" x2="4366.0" y2="3244.0" stroke="black" stroke-width="30" />
<line x1="3071.1801138638157" y1="1543.6373827275038" x2="3283.8698469871542" y2="1808.3222827931058" stroke="black" stroke-width="30" />
<line x1="1970.0" y1="1578.0" x2="2059.0" y2="1578.0" stroke="black" stroke-width="30" />
<line x1="2326.0" y1="1774.0" x2="2411.0" y2="1774.0" stroke="black" stroke-width="30" />
<line x1="1618.0" y1="2531.0" x2="1700.0" y2="2531.0" stroke="black" stroke-width="30" />
<line x1="2289.0" y1="1538.0" x2="2374.0" y2="1538.0" stroke="black" stroke-width="30" />
<line x1="3333.0" y1="3344.0" x2="3505.0" y2="3344.0" stroke="black" stroke-width="30" />
<line x1="4348.004457983523" y1="1786.5171645175278" x2="4465.995542016477" y2="1784.4828354824722" stroke="black" stroke-width="30" />
<line x1="1455.0" y1="1834.0" x2="1561.0" y2="1834.0" stroke="black" stroke-width="30" />
<line x1="4112.004782019632" y1="1801.4643711074968" x2="4227.995217980368" y2="1803.5356288925032" stroke="black" stroke-width="30" />
<line x1="2673.0" y1="3302.0" x2="3374.0" y2="3302.0" stroke="black" stroke-width="30" />
<line x1="2841.0" y1="1786.0" x2="2957.0" y2="1786.0" stroke="black" stroke-width="30" />
<line x1="1589.0" y1="1802.0" x2="1705.0" y2="1802.0" stroke="black" stroke-width="30" />
<line x1="1106.0" y1="2545.0" x2="1257.0" y2="2545.0" stroke="black" stroke-width="30" />
<line x1="2245.0" y1="1802.0" x2="2339.0" y2="1802.0" stroke="black" stroke-width="30" />
<line x1="1255.0" y1="2556.0" x2="1359.0" y2="2556.0" stroke="black" stroke-width="30" />
<line x1="2186.0" y1="1815.0" x2="2262.0" y2="1815.0" stroke="black" stroke-width="30" />
<line x1="2613.0" y1="1538.0" x2="2698.0" y2="1538.0" stroke="black" stroke-width="30" />
<line x1="4591.0" y1="3429.0" x2="4591.0" y2="3216.0" stroke="black" stroke-width="30" />
<line x1="1619.0" y1="2546.0" x2="1699.0" y2="2546.0" stroke="black" stroke-width="30" />
<line x1="4756.0" y1="3429.0" x2="4756.0" y2="3216.0" stroke="black" stroke-width="30" />
<line x1="2219.0" y1="1538.0" x2="2302.0" y2="1538.0" stroke="black" stroke-width="30" />
<line x1="4465.0" y1="1786.0" x2="4581.0" y2="1786.0" stroke="black" stroke-width="30" />
<line x1="3298.0" y1="2530.0" x2="3405.0" y2="2530.0" stroke="black" stroke-width="30" />
<line x1="2764.7867965644" y1="1982.2132034355932" x2="2944.2132034356" y2="1801.7867965644068" stroke="black" stroke-width="30" />
<line x1="2756.0" y1="1962.0" x2="3037.0" y2="1962.0" stroke="black" stroke-width="30" />
<line x1="1554.0" y1="1802.0" x2="1648.0" y2="1802.0" stroke="black" stroke-width="30" />
<line x1="2043.0" y1="1802.0" x2="2134.0" y2="1802.0" stroke="black" stroke-width="30" />
<line x1="4325.0" y1="3285.0" x2="4431.0" y2="3285.0" stroke="black" stroke-width="30" />
<line x1="1878.0" y1="2530.0" x2="1994.0" y2="2530.0" stroke="black" stroke-width="30" />
<line x1="3602.0" y1="1786.0" x2="3718.0" y2="1786.0" stroke="black" stroke-width="30" />
<line x1="3730.0031501023886" y1="1801.5652630449604" x2="3858.9968498976114" y2="1803.4347369550396" stroke="black" stroke-width="30" />
<line x1="4739.0" y1="3430.0" x2="4739.0" y2="3215.0" stroke="black" stroke-width="30" />
<line x1="3089.0" y1="1802.0" x2="3205.0" y2="1802.0" stroke="black" stroke-width="30" />
<line x1="2223.0" y1="1133.0" x2="2223.0" y2="940.0" stroke="black" stroke-width="30" />
<line x1="4080.0" y1="1786.0" x2="4196.0" y2="1786.0" stroke="black" stroke-width="30" />
<line x1="1891.0" y1="2545.0" x2="2329.0" y2="2545.0" stroke="black" stroke-width="30" />
<line x1="3985.0" y1="1802.0" x2="4101.0" y2="1802.0" stroke="black" stroke-width="30" />
<line x1="4205.0" y1="2545.0" x2="4321.0" y2="2545.0" stroke="black" stroke-width="30" />
<line x1="2672.0" y1="3344.0" x2="3375.0" y2="3344.0" stroke="black" stroke-width="30" />
<line x1="2959.0" y1="1786.0" x2="3037.0" y2="1786.0" stroke="black" stroke-width="30" />
<line x1="4376.0" y1="1844.0" x2="4450.0" y2="1844.0" stroke="black" stroke-width="30" />
<line x1="4137.0" y1="1786.0" x2="4226.0" y2="1786.0" stroke="black" stroke-width="30" />
<line x1="4326.0" y1="3302.0" x2="4436.0" y2="3302.0" stroke="black" stroke-width="30" />
<line x1="3492.0" y1="3243.0" x2="3608.0" y2="3243.0" stroke="black" stroke-width="30" />
<line x1="2023.0" y1="1786.0" x2="2139.0" y2="1786.0" stroke="black" stroke-width="30" />
<line x1="2078.0" y1="1815.0" x2="2166.0" y2="1815.0" stroke="black" stroke-width="30" />
<line x1="1736.0" y1="2531.0" x2="1848.0" y2="2531.0" stroke="black" stroke-width="30" />
<line x1="1999.0122374061766" y1="1813.1432067830328" x2="2093.9877625938234" y2="1815.8567932169672" stroke="black" stroke-width="30" />
<line x1="3627.0" y1="1802.0" x2="3743.0" y2="1802.0" stroke="black" stroke-width="30" />
<line x1="3702.0" y1="3243.0" x2="3818.0" y2="3243.0" stroke="black" stroke-width="30" />
<line x1="1313.0" y1="1777.0" x2="1384.0" y2="1777.0" stroke="black" stroke-width="30" />
<line x1="3915.0" y1="1786.0" x2="4031.0" y2="1786.0" stroke="black" stroke-width="30" />
<line x1="3647.0" y1="1834.0" x2="3744.0" y2="1834.0" stroke="black" stroke-width="30" />
<line x1="2708.0" y1="1980.0" x2="3039.0" y2="1980.0" stroke="black" stroke-width="30" />
<line x1="2595.0" y1="1135.0" x2="2595.0" y2="938.0" stroke="black" stroke-width="30" />
<line x1="2542.0" y1="1774.0" x2="2627.0" y2="1774.0" stroke="black" stroke-width="30" />
<line x1="3209.0" y1="1802.0" x2="3304.0" y2="1802.0" stroke="black" stroke-width="30" />
<line x1="2954.0" y1="1802.0" x2="3070.0" y2="1802.0" stroke="black" stroke-width="30" />
<line x1="2769.0" y1="1774.0" x2="2843.0" y2="1774.0" stroke="black" stroke-width="30" />
<line x1="3464.0" y1="3302.0" x2="3562.0" y2="3302.0" stroke="black" stroke-width="30" />
<line x1="1446.0" y1="1872.0" x2="1566.0" y2="1872.0" stroke="black" stroke-width="30" />
<line x1="2240.0" y1="1122.0" x2="2240.0" y2="951.0" stroke="black" stroke-width="30" />
<line x1="2078.0" y1="1578.0" x2="2167.0" y2="1578.0" stroke="black" stroke-width="30" />
<line x1="3475.0" y1="3373.0" x2="3475.0" y2="3273.0" stroke="black" stroke-width="30" />
<line x1="2848.0" y1="1703.0" x2="2927.0" y2="1703.0" stroke="black" stroke-width="30" />
<line x1="4552.0" y1="3226.0" x2="4668.0" y2="3226.0" stroke="black" stroke-width="30" />
<line x1="1463.0" y1="1802.0" x2="1551.0" y2="1802.0" stroke="black" stroke-width="30" />
<line x1="2130.0" y1="1786.0" x2="2227.0" y2="1786.0" stroke="black" stroke-width="30" />
<line x1="4265.0" y1="2545.0" x2="4381.0" y2="2545.0" stroke="black" stroke-width="30" />
<line x1="4343.0" y1="3226.0" x2="4459.0" y2="3226.0" stroke="black" stroke-width="30" />
<line x1="3275.0" y1="1802.0" x2="3363.0" y2="1802.0" stroke="black" stroke-width="30" />
<line x1="4191.0" y1="1767.0" x2="4282.0" y2="1767.0" stroke="black" stroke-width="30" />
<line x1="3087.0" y1="1903.0" x2="3207.0" y2="1903.0" stroke="black" stroke-width="30" />
<line x1="3003.0" y1="1786.0" x2="3112.0" y2="1786.0" stroke="black" stroke-width="30" />
<line x1="1725.0" y1="2546.0" x2="1849.0" y2="2546.0" stroke="black" stroke-width="30" />
<line x1="3800.0" y1="1802.0" x2="3901.0" y2="1802.0" stroke="black" stroke-width="30" />
<line x1="3463.0" y1="3285.0" x2="3562.0" y2="3285.0" stroke="black" stroke-width="30" />
<line x1="3941.0" y1="3314.0" x2="3941.0" y2="3216.0" stroke="black" stroke-width="30" />
<line x1="3564.0" y1="1802.0" x2="3643.0" y2="1802.0" stroke="black" stroke-width="30" />
<line x1="1424.0" y1="1802.0" x2="1512.0" y2="1802.0" stroke="black" stroke-width="30" />
<line x1="2872.0137646256326" y1="2544.0913262007825" x2="2964.9862353743674" y2="2546.9086737992175" stroke="black" stroke-width="30" />
<line x1="4319.0" y1="1802.0" x2="4435.0" y2="1802.0" stroke="black" stroke-width="30" />
<line x1="4312.0" y1="1844.0" x2="4397.0" y2="1844.0" stroke="black" stroke-width="30" />
<line x1="4574.0" y1="3315.0" x2="4574.0" y2="3215.0" stroke="black" stroke-width="30" />
<line x1="3619.0" y1="3243.0" x2="3735.0" y2="3243.0" stroke="black" stroke-width="30" />
<line x1="3523.0" y1="1816.0" x2="3618.0" y2="1816.0" stroke="black" stroke-width="30" />
<line x1="3203.0" y1="1944.0" x2="3293.0" y2="1944.0" stroke="black" stroke-width="30" />
<line x1="3345.0" y1="3430.0" x2="3345.0" y2="3332.0" stroke="black" stroke-width="30" />
<line x1="3371.0" y1="1802.0" x2="3487.0" y2="1802.0" stroke="black" stroke-width="30" />
<line x1="3779.0" y1="3243.0" x2="3895.0" y2="3243.0" stroke="black" stroke-width="30" />
<line x1="936.0" y1="1821.0" x2="1012.0" y2="1821.0" stroke="black" stroke-width="30" />
<line x1="4378.0" y1="3302.0" x2="4494.0" y2="3302.0" stroke="black" stroke-width="30" />
<line x1="3654.0" y1="2545.0" x2="3770.0" y2="2545.0" stroke="black" stroke-width="30" />
<line x1="2325.0" y1="1538.0" x2="2410.0" y2="1538.0" stroke="black" stroke-width="30" />
<line x1="4289.0" y1="1802.0" x2="4377.0" y2="1802.0" stroke="black" stroke-width="30" />
<line x1="3362.0" y1="3373.0" x2="3362.0" y2="3274.0" stroke="black" stroke-width="30" />
<line x1="3492.0" y1="3314.0" x2="3492.0" y2="3215.0" stroke="black" stroke-width="30" />
<line x1="653.0" y1="1786.0" x2="769.0" y2="1786.0" stroke="black" stroke-width="30" />
<line x1="1977.0" y1="2530.0" x2="2093.0" y2="2530.0" stroke="black" stroke-width="30" />
<line x1="335.0" y1="2853.0" x2="492.0" y2="2853.0" stroke="black" stroke-width="30" />
<line x1="2150.0122374061766" y1="1815.8567932169672" x2="2244.9877625938234" y2="1813.1432067830328" stroke="black" stroke-width="30" />
<line x1="2878.0" y1="1732.0" x2="2980.0" y2="1732.0" stroke="black" stroke-width="30" />
<line x1="3044.0044579835367" y1="1979.4828354824722" x2="3161.9955420164633" y2="1981.5171645175278" stroke="black" stroke-width="30" />
<line x1="1708.0" y1="1874.0" x2="1810.0" y2="1874.0" stroke="black" stroke-width="30" />
<line x1="2880.0" y1="1691.0" x2="2978.0" y2="1691.0" stroke="black" stroke-width="30" />
<line x1="3958.0" y1="1731.0" x2="4036.0" y2="1731.0" stroke="black" stroke-width="30" />
<line x1="1338.0" y1="1786.0" x2="1416.0" y2="1786.0" stroke="black" stroke-width="30" />
<line x1="4469.0" y1="3285.0" x2="4585.0" y2="3285.0" stroke="black" stroke-width="30" />
<line x1="2254.0" y1="1774.0" x2="2331.0" y2="1774.0" stroke="black" stroke-width="30" />
<line x1="2578.0" y1="1122.0" x2="2578.0" y2="950.0" stroke="black" stroke-width="30" />
<line x1="335.0" y1="2872.0" x2="491.0" y2="2872.0" stroke="black" stroke-width="30" />
<line x1="1013.0" y1="2530.0" x2="1122.0" y2="2530.0" stroke="black" stroke-width="30" />
<line x1="2169.0" y1="2530.0" x2="2285.0" y2="2530.0" stroke="black" stroke-width="30" />
<line x1="1838.0" y1="1758.0" x2="1918.0" y2="1758.0" stroke="black" stroke-width="30" />
<line x1="4425.0" y1="1802.0" x2="4541.0" y2="1802.0" stroke="black" stroke-width="30" />
<line x1="4275.0" y1="1786.0" x2="4391.0" y2="1786.0" stroke="black" stroke-width="30" />
<line x1="2917.0" y1="1550.0" x2="3033.0" y2="1550.0" stroke="black" stroke-width="30" />
<line x1="749.0" y1="2530.0" x2="865.0" y2="2530.0" stroke="black" stroke-width="30" />
<line x1="4170.0" y1="1767.0" x2="4250.0" y2="1767.0" stroke="black" stroke-width="30" />
<line x1="953.0" y1="1786.0" x2="1041.0" y2="1786.0" stroke="black" stroke-width="30" />
<line x1="337.0" y1="2838.0" x2="490.0" y2="2838.0" stroke="black" stroke-width="30" />
<line x1="1690.0" y1="2523.0" x2="1775.0" y2="2523.0" stroke="black" stroke-width="30" />
<line x1="1053.0" y1="1786.0" x2="1141.0" y2="1786.0" stroke="black" stroke-width="30" />
<line x1="1942.0" y1="1962.0" x2="2020.0" y2="1962.0" stroke="black" stroke-width="30" />
<line x1="368.0" y1="2818.0" x2="457.0" y2="2818.0" stroke="black" stroke-width="30" />
<line x1="2289.0" y1="1802.0" x2="2405.0" y2="1802.0" stroke="black" stroke-width="30" />
<line x1="1662.0" y1="2556.0" x2="1778.0" y2="2556.0" stroke="black" stroke-width="30" />
<line x1="853.0" y1="1786.0" x2="969.0" y2="1786.0" stroke="black" stroke-width="30" />
<line x1="3539.0" y1="3285.0" x2="3655.0" y2="3285.0" stroke="black" stroke-width="30" />
<line x1="4149.0" y1="3361.0" x2="4603.0" y2="3361.0" stroke="black" stroke-width="30" />
<line x1="3597.0" y1="1802.0" x2="3685.0" y2="1802.0" stroke="black" stroke-width="30" />
<line x1="2469.0" y1="1538.0" x2="2554.0" y2="1538.0" stroke="black" stroke-width="30" />
<line x1="1676.0" y1="1495.0" x2="1767.0" y2="1495.0" stroke="black" stroke-width="30" />
<line x1="4390.0" y1="1802.0" x2="4484.0" y2="1802.0" stroke="black" stroke-width="30" />
<line x1="3977.0" y1="1786.0" x2="4093.0" y2="1786.0" stroke="black" stroke-width="30" />
<line x1="614.0" y1="1786.0" x2="702.0" y2="1786.0" stroke="black" stroke-width="30" />
<line x1="574.0" y1="1802.0" x2="690.0" y2="1802.0" stroke="black" stroke-width="30" />
<line x1="703.0" y1="2545.0" x2="819.0" y2="2545.0" stroke="black" stroke-width="30" />
<line x1="2039.0" y1="2530.0" x2="2155.0" y2="2530.0" stroke="black" stroke-width="30" />
<line x1="538.0" y1="1802.0" x2="626.0" y2="1802.0" stroke="black" stroke-width="30" />
<line x1="1898.0" y1="1578.0" x2="1987.0" y2="1578.0" stroke="black" stroke-width="30" />
<line x1="1175.0" y1="1786.0" x2="1284.0" y2="1786.0" stroke="black" stroke-width="30" />
<line x1="643.0" y1="2530.0" x2="759.0" y2="2530.0" stroke="black" stroke-width="30" />
<line x1="1425.0" y1="1914.0" x2="1510.0" y2="1914.0" stroke="black" stroke-width="30" />
<line x1="926.0" y1="2545.0" x2="1042.0" y2="2545.0" stroke="black" stroke-width="30" />
<line x1="985.0" y1="1821.0" x2="1060.0" y2="1821.0" stroke="black" stroke-width="30" />
<line x1="618.0" y1="1720.0" x2="694.0" y2="1720.0" stroke="black" stroke-width="30" />
<line x1="912.0" y1="2530.0" x2="1028.0" y2="2530.0" stroke="black" stroke-width="30" />
<line x1="616.0" y1="1703.0" x2="698.0" y2="1703.0" stroke="black" stroke-width="30" />
<line x1="3017.0" y1="1802.0" x2="3095.0" y2="1802.0" stroke="black" stroke-width="30" />
<line x1="1689.0" y1="1833.0" x2="1805.0" y2="1833.0" stroke="black" stroke-width="30" />
<line x1="3037.0" y1="1539.0" x2="3108.0" y2="1539.0" stroke="black" stroke-width="30" />
<line x1="3166.0" y1="1609.0" x2="3304.0" y2="1609.0" stroke="black" stroke-width="30" />
<line x1="428.0" y1="1802.0" x2="540.0" y2="1802.0" stroke="black" stroke-width="30" />
<line x1="3220.088365434958" y1="1900.6991050334573" x2="3292.911634565042" y2="1906.3008949665427" stroke="black" stroke-width="30" />
<line x1="608.0" y1="2530.0" x2="687.0" y2="2530.0" stroke="black" stroke-width="30" />
<line x1="1141.1036272526562" y1="1689.5086356043857" x2="1212.8963727473438" y2="1695.4913643956143" stroke="black" stroke-width="30" />
<line x1="4523.0" y1="1802.0" x2="4611.0" y2="1802.0" stroke="black" stroke-width="30" />
<line x1="3973.0" y1="2545.0" x2="4089.0" y2="2545.0" stroke="black" stroke-width="30" />
<line x1="3664.0" y1="1786.0" x2="3742.0" y2="1786.0" stroke="black" stroke-width="30" />
<line x1="4450.0" y1="3226.0" x2="4566.0" y2="3226.0" stroke="black" stroke-width="30" />
<line x1="2049.0" y1="1578.0" x2="2131.0" y2="1578.0" stroke="black" stroke-width="30" />
<line x1="2541.0" y1="1538.0" x2="2626.0" y2="1538.0" stroke="black" stroke-width="30" />
<line x1="3640.0103824194093" y1="1870.2107995373522" x2="3737.9896175805907" y2="1872.7892004626478" stroke="black" stroke-width="30" />
<line x1="3139.0" y1="1786.0" x2="3255.0" y2="1786.0" stroke="black" stroke-width="30" />
<line x1="2934.0" y1="1868.0" x2="3019.0" y2="1868.0" stroke="black" stroke-width="30" />
<line x1="3684.0" y1="1802.0" x2="3777.0" y2="1802.0" stroke="black" stroke-width="30" />
<line x1="2853.0" y1="1550.0" x2="2941.0" y2="1550.0" stroke="black" stroke-width="30" />
<line x1="2686.0" y1="1774.0" x2="2771.0" y2="1774.0" stroke="black" stroke-width="30" />
<line x1="4262.0" y1="1802.0" x2="4348.0" y2="1802.0" stroke="black" stroke-width="30" />
<line x1="3899.0" y1="1802.0" x2="4015.0" y2="1802.0" stroke="black" stroke-width="30" />
<line x1="1492.0" y1="1802.0" x2="1580.0" y2="1802.0" stroke="black" stroke-width="30" />
<line x1="4337.0" y1="3373.0" x2="4337.0" y2="3273.0" stroke="black" stroke-width="30" />
<line x1="2922.0" y1="1731.0" x2="3013.0" y2="1731.0" stroke="black" stroke-width="30" />
<line x1="3146.0" y1="1802.0" x2="3255.0" y2="1802.0" stroke="black" stroke-width="30" />
<line x1="3782.0" y1="1861.0" x2="3859.0" y2="1861.0" stroke="black" stroke-width="30" />
<line x1="1303.0" y1="1802.0" x2="1419.0" y2="1802.0" stroke="black" stroke-width="30" />
<line x1="1008.0" y1="2545.0" x2="1086.0" y2="2545.0" stroke="black" stroke-width="30" />
<line x1="3428.0" y1="1802.0" x2="3529.0" y2="1802.0" stroke="black" stroke-width="30" />
<line x1="2901.0025966157455" y1="1484.3947026761102" x2="3036.9974033842545" y2="1482.6052973238898" stroke="black" stroke-width="30" />
<line x1="4522.0" y1="1786.0" x2="4616.0" y2="1786.0" stroke="black" stroke-width="30" />
<line x1="3989.0" y1="2530.0" x2="4105.0" y2="2530.0" stroke="black" stroke-width="30" />
<line x1="1150.0" y1="2760.0" x2="1232.0" y2="2760.0" stroke="black" stroke-width="30" />
<line x1="3887.0" y1="2545.0" x2="4003.0" y2="2545.0" stroke="black" stroke-width="30" />
<line x1="3454.0" y1="2530.0" x2="3542.0" y2="2530.0" stroke="black" stroke-width="30" />
<line x1="4519.0" y1="3344.0" x2="4597.0" y2="3344.0" stroke="black" stroke-width="30" />
<line x1="3071.0" y1="2549.0" x2="3141.0" y2="2549.0" stroke="black" stroke-width="30" />
<line x1="4064.0" y1="3400.0" x2="4180.0" y2="3400.0" stroke="black" stroke-width="30" />
<line x1="645.0" y1="1802.0" x2="733.0" y2="1802.0" stroke="black" stroke-width="30" />
<line x1="4338.0" y1="2545.0" x2="4426.0" y2="2545.0" stroke="black" stroke-width="30" />
<line x1="3850.0" y1="2530.0" x2="3956.0" y2="2530.0" stroke="black" stroke-width="30" />
<line x1="1000.0" y1="1786.0" x2="1112.0" y2="1786.0" stroke="black" stroke-width="30" />
<line x1="2104.0" y1="2530.0" x2="2220.0" y2="2530.0" stroke="black" stroke-width="30" />
<line x1="3967.0" y1="3361.0" x2="4055.0" y2="3361.0" stroke="black" stroke-width="30" />
<line x1="3707.0" y1="1786.0" x2="3823.0" y2="1786.0" stroke="black" stroke-width="30" />
<line x1="2470.0" y1="1774.0" x2="2548.0" y2="1774.0" stroke="black" stroke-width="30" />
<line x1="1248.0" y1="1692.0" x2="1325.0" y2="1692.0" stroke="black" stroke-width="30" />
<line x1="2577.0" y1="1538.0" x2="2662.0" y2="1538.0" stroke="black" stroke-width="30" />
<line x1="1238.0" y1="1730.0" x2="1330.0" y2="1730.0" stroke="black" stroke-width="30" />
<line x1="1125.0" y1="1786.0" x2="1211.0" y2="1786.0" stroke="black" stroke-width="30" />
<line x1="2011.0" y1="1578.0" x2="2095.0" y2="1578.0" stroke="black" stroke-width="30" />
<line x1="371.0" y1="2801.0" x2="454.0" y2="2801.0" stroke="black" stroke-width="30" />
<line x1="1124.0" y1="2530.0" x2="1240.0" y2="2530.0" stroke="black" stroke-width="30" />
<line x1="4386.0" y1="3285.0" x2="4484.0" y2="3285.0" stroke="black" stroke-width="30" />
<line x1="3553.0" y1="3344.0" x2="3641.0" y2="3344.0" stroke="black" stroke-width="30" />
<line x1="2346.0" y1="1802.0" x2="2428.0" y2="1802.0" stroke="black" stroke-width="30" />
<line x1="2681.0" y1="1845.0" x2="2770.0" y2="1845.0" stroke="black" stroke-width="30" />
<line x1="3941.0" y1="3196.0" x2="3941.0" y2="3097.0" stroke="black" stroke-width="30" />
<line x1="2921.0" y1="1802.0" x2="3013.0" y2="1802.0" stroke="black" stroke-width="30" />
<line x1="4034.0" y1="1786.0" x2="4116.0" y2="1786.0" stroke="black" stroke-width="30" />
<line x1="3764.0" y1="1786.0" x2="3855.0" y2="1786.0" stroke="black" stroke-width="30" />
<line x1="1873.0" y1="1786.0" x2="1943.0" y2="1786.0" stroke="black" stroke-width="30" />
<line x1="3780.0" y1="1844.0" x2="3861.0" y2="1844.0" stroke="black" stroke-width="30" />
<line x1="1675.0" y1="1873.0" x2="1767.0" y2="1873.0" stroke="black" stroke-width="30" />
<line x1="2949.0" y1="1443.0" x2="3035.0" y2="1443.0" stroke="black" stroke-width="30" />
<line x1="1644.0" y1="1541.0" x2="1714.0" y2="1541.0" stroke="black" stroke-width="30" />
<line x1="2863.0" y1="1868.0" x2="2948.0" y2="1868.0" stroke="black" stroke-width="30" />
<line x1="1912.066445264299" y1="1517.004429684288" x2="1986.933554735701" y2="1521.995570315712" stroke="black" stroke-width="30" />
<line x1="1461.0" y1="1985.0" x2="1586.0" y2="1985.0" stroke="black" stroke-width="30" />
<line x1="1961.0" y1="1962.0" x2="2058.0" y2="1962.0" stroke="black" stroke-width="30" />
<line x1="3897.0" y1="2530.0" x2="4010.0" y2="2530.0" stroke="black" stroke-width="30" />
<line x1="2410.0" y1="1786.0" x2="2487.0" y2="1786.0" stroke="black" stroke-width="30" />
<line x1="3599.0" y1="3302.0" x2="3715.0" y2="3302.0" stroke="black" stroke-width="30" />
<line x1="3334.0" y1="3302.0" x2="3439.0" y2="3302.0" stroke="black" stroke-width="30" />
<line x1="982.0" y1="1786.0" x2="1059.0" y2="1786.0" stroke="black" stroke-width="30" />
<line x1="1513.0374298336624" y1="1842.5018714916828" x2="1592.9625701663376" y2="1846.4981285083172" stroke="black" stroke-width="30" />
<line x1="1712.0" y1="1566.0" x2="1828.0" y2="1566.0" stroke="black" stroke-width="30" />
<line x1="3503.0" y1="3344.0" x2="3591.0" y2="3344.0" stroke="black" stroke-width="30" />
<line x1="1525.0" y1="1802.0" x2="1613.0" y2="1802.0" stroke="black" stroke-width="30" />
<line x1="1678.0" y1="1455.0" x2="1808.0" y2="1455.0" stroke="black" stroke-width="30" />
<line x1="4400.0" y1="3226.0" x2="4503.0" y2="3226.0" stroke="black" stroke-width="30" />
<line x1="3742.0" y1="2545.0" x2="3858.0" y2="2545.0" stroke="black" stroke-width="30" />
<line x1="3701.0" y1="1886.0" x2="3774.0" y2="1886.0" stroke="black" stroke-width="30" />
<line x1="3581.0" y1="2545.0" x2="3697.0" y2="2545.0" stroke="black" stroke-width="30" />
<line x1="4354.0" y1="3373.0" x2="4354.0" y2="3274.0" stroke="black" stroke-width="30" />
<line x1="3066.0" y1="1786.0" x2="3182.0" y2="1786.0" stroke="black" stroke-width="30" />
<line x1="3912.0" y1="1714.0" x2="3987.0" y2="1714.0" stroke="black" stroke-width="30" />
<line x1="1934.0" y1="1578.0" x2="2009.0" y2="1578.0" stroke="black" stroke-width="30" />
<line x1="902.0" y1="2545.0" x2="983.0" y2="2545.0" stroke="black" stroke-width="30" />
<line x1="3837.0" y1="1786.0" x2="3953.0" y2="1786.0" stroke="black" stroke-width="30" />
<line x1="4482.0" y1="1802.0" x2="4567.0" y2="1802.0" stroke="black" stroke-width="30" />
<line x1="1619.0" y1="1566.0" x2="1735.0" y2="1566.0" stroke="black" stroke-width="30" />
<line x1="2253.0" y1="1538.0" x2="2338.0" y2="1538.0" stroke="black" stroke-width="30" />
<line x1="4425.0" y1="3344.0" x2="4541.0" y2="3344.0" stroke="black" stroke-width="30" />
<line x1="3053.0" y1="1802.0" x2="3131.0" y2="1802.0" stroke="black" stroke-width="30" />
<line x1="675.0" y1="1802.0" x2="776.0" y2="1802.0" stroke="black" stroke-width="30" />
<line x1="3948.0" y1="3400.0" x2="4064.0" y2="3400.0" stroke="black" stroke-width="30" />
<line x1="1195.0" y1="1704.0" x2="1278.0" y2="1704.0" stroke="black" stroke-width="30" />
<line x1="3563.0" y1="1786.0" x2="3648.0" y2="1786.0" stroke="black" stroke-width="30" />
<line x1="1182.0" y1="1744.0" x2="1271.0" y2="1744.0" stroke="black" stroke-width="30" />
<line x1="3274.0" y1="1944.0" x2="3364.0" y2="1944.0" stroke="black" stroke-width="30" />
<line x1="3376.0" y1="3243.0" x2="3492.0" y2="3243.0" stroke="black" stroke-width="30" />
<line x1="3334.0" y1="3361.0" x2="3446.0" y2="3361.0" stroke="black" stroke-width="30" />
<line x1="3725.0" y1="3285.0" x2="3841.0" y2="3285.0" stroke="black" stroke-width="30" />
<line x1="1650.0" y1="2557.0" x2="1721.0" y2="2557.0" stroke="black" stroke-width="30" />
<line x1="4325.0" y1="3344.0" x2="4414.0" y2="3344.0" stroke="black" stroke-width="30" />
<line x1="777.0" y1="2545.0" x2="865.0" y2="2545.0" stroke="black" stroke-width="30" />
<line x1="1208.0" y1="1724.0" x2="1278.0" y2="1724.0" stroke="black" stroke-width="30" />
<line x1="3677.0" y1="3400.0" x2="3793.0" y2="3400.0" stroke="black" stroke-width="30" />
<line x1="606.0" y1="2545.0" x2="712.0" y2="2545.0" stroke="black" stroke-width="30" />
<line x1="3332.015596569806" y1="3283.032761179674" x2="3422.984403430194" y2="3285.967238820326" stroke="black" stroke-width="30" />
<line x1="1937.0" y1="2530.0" x2="2025.0" y2="2530.0" stroke="black" stroke-width="30" />
<line x1="3762.0" y1="3344.0" x2="3878.0" y2="3344.0" stroke="black" stroke-width="30" />
<line x1="4242.0" y1="3226.0" x2="4358.0" y2="3226.0" stroke="black" stroke-width="30" />
<line x1="446.0" y1="3210.0" x2="446.0" y2="3118.0" stroke="black" stroke-width="30" />
<line x1="3676.0" y1="3243.0" x2="3761.0" y2="3243.0" stroke="black" stroke-width="30" />
<line x1="1277.0" y1="1802.0" x2="1362.0" y2="1802.0" stroke="black" stroke-width="30" />
<line x1="3578.0" y1="3400.0" x2="3694.0" y2="3400.0" stroke="black" stroke-width="30" />
<line x1="653.0" y1="2545.0" x2="753.0" y2="2545.0" stroke="black" stroke-width="30" />
<line x1="3760.0" y1="3400.0" x2="3876.0" y2="3400.0" stroke="black" stroke-width="30" />
<line x1="4022.0" y1="3285.0" x2="4138.0" y2="3285.0" stroke="black" stroke-width="30" />
<line x1="1999.0" y1="1786.0" x2="2082.0" y2="1786.0" stroke="black" stroke-width="30" />
<line x1="4552.0" y1="1802.0" x2="4650.0" y2="1802.0" stroke="black" stroke-width="30" />
<line x1="4174.0" y1="3285.0" x2="4290.0" y2="3285.0" stroke="black" stroke-width="30" />
<line x1="2789.0178200193886" y1="1783.9661317248056" x2="2877.9821799806114" y2="1787.0338682751944" stroke="black" stroke-width="30" />
<line x1="485.0" y1="1802.0" x2="573.0" y2="1802.0" stroke="black" stroke-width="30" />
<line x1="4149.0" y1="2545.0" x2="4261.0" y2="2545.0" stroke="black" stroke-width="30" />
<line x1="3515.0" y1="3400.0" x2="3631.0" y2="3400.0" stroke="black" stroke-width="30" />
<line x1="2914.0" y1="1443.0" x2="3002.0" y2="1443.0" stroke="black" stroke-width="30" />
<line x1="3659.0" y1="3285.0" x2="3775.0" y2="3285.0" stroke="black" stroke-width="30" />
<line x1="1296.0" y1="2900.0" x2="1296.0" y2="2815.0" stroke="black" stroke-width="30" />
<line x1="2290.0205549869997" y1="1772.8896501847012" x2="2376.9794450130003" y2="1776.1103498152988" stroke="black" stroke-width="30" />
<line x1="3036.0" y1="1802.0" x2="3112.0" y2="1802.0" stroke="black" stroke-width="30" />
<line x1="937.0" y1="1838.0" x2="1013.0" y2="1838.0" stroke="black" stroke-width="30" />
<line x1="3608.0" y1="3344.0" x2="3696.0" y2="3344.0" stroke="black" stroke-width="30" />
<line x1="2898.0" y1="1786.0" x2="3014.0" y2="1786.0" stroke="black" stroke-width="30" />
<line x1="4854.0" y1="3234.0" x2="4854.0" y2="3350.0" stroke="black" stroke-width="30" />
<line x1="2175.0" y1="1769.0" x2="2261.0" y2="1769.0" stroke="black" stroke-width="30" />
<line x1="360.0" y1="2889.0" x2="430.0" y2="2889.0" stroke="black" stroke-width="30" />
<line x1="2731.0" y1="1898.0" x2="2803.0" y2="1898.0" stroke="black" stroke-width="30" />
<line x1="1370.0" y1="1802.0" x2="1449.0" y2="1802.0" stroke="black" stroke-width="30" />
<line x1="4664.0" y1="3125.0" x2="4780.0" y2="3125.0" stroke="black" stroke-width="30" />
<line x1="414.0" y1="2889.0" x2="484.0" y2="2889.0" stroke="black" stroke-width="30" />
<line x1="3962.0" y1="3226.0" x2="4050.0" y2="3226.0" stroke="black" stroke-width="30" />
<line x1="1909.0" y1="1786.0" x2="1997.0" y2="1786.0" stroke="black" stroke-width="30" />
<line x1="3968.0" y1="1802.0" x2="4044.0" y2="1802.0" stroke="black" stroke-width="30" />
<line x1="725.0" y1="2530.0" x2="803.0" y2="2530.0" stroke="black" stroke-width="30" />
<line x1="1923.0" y1="1703.0" x2="2004.0" y2="1703.0" stroke="black" stroke-width="30" />
<line x1="4724.0" y1="3226.0" x2="4840.0" y2="3226.0" stroke="black" stroke-width="30" />
<line x1="2114.0" y1="1815.0" x2="2202.0" y2="1815.0" stroke="black" stroke-width="30" />
<line x1="4435.0" y1="3302.0" x2="4546.0" y2="3302.0" stroke="black" stroke-width="30" />
<line x1="4089.0" y1="3285.0" x2="4205.0" y2="3285.0" stroke="black" stroke-width="30" />
<line x1="3852.0" y1="3302.0" x2="3940.0" y2="3302.0" stroke="black" stroke-width="30" />
<line x1="1884.0" y1="1786.0" x2="1958.0" y2="1786.0" stroke="black" stroke-width="30" />
<line x1="4167.0" y1="3226.0" x2="4283.0" y2="3226.0" stroke="black" stroke-width="30" />
<line x1="3220.0584226455067" y1="1656.8713485846524" x2="3295.9415773544933" y2="1652.1286514153476" stroke="black" stroke-width="30" />
<line x1="4354.0" y1="3125.0" x2="4470.0" y2="3125.0" stroke="black" stroke-width="30" />
<line x1="3836.0" y1="3243.0" x2="3942.0" y2="3243.0" stroke="black" stroke-width="30" />
<line x1="2274.0" y1="1566.0" x2="2379.0" y2="1566.0" stroke="black" stroke-width="30" />
<line x1="1513.1036272526562" y1="1865.4913643956143" x2="1584.8963727473438" y2="1859.5086356043857" stroke="black" stroke-width="30" />
<line x1="3549.0" y1="3243.0" x2="3640.0" y2="3243.0" stroke="black" stroke-width="30" />
<line x1="4624.0" y1="3226.0" x2="4740.0" y2="3226.0" stroke="black" stroke-width="30" />
<line x1="4725.0" y1="3125.0" x2="4841.0" y2="3125.0" stroke="black" stroke-width="30" />
<line x1="3924.0" y1="3285.0" x2="4040.0" y2="3285.0" stroke="black" stroke-width="30" />
<line x1="3811.0" y1="1786.0" x2="3896.0" y2="1786.0" stroke="black" stroke-width="30" />
<line x1="3792.0" y1="3285.0" x2="3908.0" y2="3285.0" stroke="black" stroke-width="30" />
<line x1="1463.0" y1="1945.0" x2="1570.0" y2="1945.0" stroke="black" stroke-width="30" />
<line x1="4247.0" y1="3125.0" x2="4363.0" y2="3125.0" stroke="black" stroke-width="30" />
<line x1="2683.0" y1="1714.0" x2="2756.0" y2="1714.0" stroke="black" stroke-width="30" />
<line x1="3085.0" y1="1944.0" x2="3183.0" y2="1944.0" stroke="black" stroke-width="30" />
<line x1="355.0" y1="3216.0" x2="429.0" y2="3216.0" stroke="black" stroke-width="30" />
<line x1="4317.0" y1="1821.0" x2="4403.0" y2="1821.0" stroke="black" stroke-width="30" />
<line x1="4006.0" y1="3361.0" x2="4094.0" y2="3361.0" stroke="black" stroke-width="30" />
<line x1="2850.0" y1="1720.0" x2="2925.0" y2="1720.0" stroke="black" stroke-width="30" />
<line x1="3937.0" y1="3125.0" x2="4053.0" y2="3125.0" stroke="black" stroke-width="30" />
<line x1="3550.0" y1="3302.0" x2="3658.0" y2="3302.0" stroke="black" stroke-width="30" />
<line x1="2838.0" y1="2617.0" x2="2947.0" y2="2617.0" stroke="black" stroke-width="30" />
<line x1="2226.0" y1="2530.0" x2="2315.0" y2="2530.0" stroke="black" stroke-width="30" />
<line x1="4116.0" y1="3226.0" x2="4226.0" y2="3226.0" stroke="black" stroke-width="30" />
<line x1="3492.0" y1="3429.0" x2="3492.0" y2="3333.0" stroke="black" stroke-width="30" />
<line x1="3767.0" y1="3302.0" x2="3883.0" y2="3302.0" stroke="black" stroke-width="30" />
<line x1="3345.0" y1="3373.0" x2="3345.0" y2="3273.0" stroke="black" stroke-width="30" />
<line x1="3053.0" y1="1786.0" x2="3125.0" y2="1786.0" stroke="black" stroke-width="30" />
<line x1="4508.0" y1="1802.0" x2="4582.0" y2="1802.0" stroke="black" stroke-width="30" />
<line x1="4465.0" y1="3125.0" x2="4581.0" y2="3125.0" stroke="black" stroke-width="30" />
<line x1="4056.0" y1="3125.0" x2="4172.0" y2="3125.0" stroke="black" stroke-width="30" />
<line x1="680.0883654349514" y1="1746.3008949665427" x2="752.9116345650486" y2="1740.6991050334573" stroke="black" stroke-width="30" />
<line x1="4496.0" y1="3344.0" x2="4574.0" y2="3344.0" stroke="black" stroke-width="30" />
<line x1="1782.0" y1="1566.0" x2="1898.0" y2="1566.0" stroke="black" stroke-width="30" />
<line x1="3475.0" y1="3315.0" x2="3475.0" y2="3214.0" stroke="black" stroke-width="30" />
<line x1="4533.0" y1="3125.0" x2="4649.0" y2="3125.0" stroke="black" stroke-width="30" />
<line x1="4009.0" y1="3226.0" x2="4097.0" y2="3226.0" stroke="black" stroke-width="30" />
<line x1="3721.0" y1="3302.0" x2="3826.0" y2="3302.0" stroke="black" stroke-width="30" />
<line x1="2789.0" y1="3400.0" x2="2877.0" y2="3400.0" stroke="black" stroke-width="30" />
<line x1="1764.0" y1="1861.0" x2="1838.0" y2="1861.0" stroke="black" stroke-width="30" />
<line x1="1191.0" y1="2743.0" x2="1280.0" y2="2743.0" stroke="black" stroke-width="30" />
<line x1="335.0" y1="3142.0" x2="435.0" y2="3142.0" stroke="black" stroke-width="30" />
<line x1="4133.0" y1="3125.0" x2="4249.0" y2="3125.0" stroke="black" stroke-width="30" />
<line x1="4064.0" y1="3226.0" x2="4175.0" y2="3226.0" stroke="black" stroke-width="30" />
<line x1="1677.0" y1="1566.0" x2="1765.0" y2="1566.0" stroke="black" stroke-width="30" />
<line x1="2717.0" y1="1727.0" x2="2797.0" y2="1727.0" stroke="black" stroke-width="30" />
<line x1="2974.0" y1="1550.0" x2="3080.0" y2="1550.0" stroke="black" stroke-width="30" />
<line x1="1159.0" y1="2866.0" x2="1271.0" y2="2866.0" stroke="black" stroke-width="30" />
<line x1="1230.0" y1="2557.0" x2="1302.0" y2="2557.0" stroke="black" stroke-width="30" />
<line x1="1939.0" y1="1786.0" x2="2009.0" y2="1786.0" stroke="black" stroke-width="30" />
<line x1="1189.0" y1="2807.0" x2="1271.0" y2="2807.0" stroke="black" stroke-width="30" />
</svg>