<svg width="4961" height="3508" xmlns="http://www.w3.org/2000/svg"><line x1="188.0" y1="3423.0" x2="4891.0" y2="3423.0" stroke="black" stroke-width="30" />
<line x1="795.0" y1="1802.0" x2="1286.0" y2="1802.0" stroke="black" stroke-width="30" />
<line x1="3463.0" y1="3400.0" x2="3954.0" y2="3400.0" stroke="black" stroke-width="30" />
<line x1="4877.0" y1="3439.0" x2="4877.0" y2="61.0" stroke="black" stroke-width="30" />
<line x1="4854.0" y1="3138.0" x2="4854.0" y2="79.0" stroke="black" stroke-width="30" />
<line x1="201.0" y1="3444.0" x2="201.0" y2="62.0" stroke="black" stroke-width="30" />
<line x1="224.0" y1="3429.0" x2="224.0" y2="77.0" stroke="black" stroke-width="30" />
<line x1="1125.0" y1="1786.0" x2="1284.0" y2="1786.0" stroke="black" stroke-width="30" />
<line x1="3850.0" y1="2530.0" x2="4117.0" y2="2530.0" stroke="black" stroke-width="30" />
<line x1="2673.0" y1="3125.0" x2="3953.0" y2="3125.0" stroke="black" stroke-width="30" />
<line x1="3912.0" y1="3226.0" x2="4884.0" y2="3226.0" stroke="black" stroke-width="30" />
<line x1="900.0" y1="2545.0" x2="1125.0" y2="2545.0" stroke="black" stroke-width="30" />
<line x1="4149.0" y1="3361.0" x2="4603.0" y2="3361.0" stroke="black" stroke-width="30" />
<line x1="298.0" y1="2664.0" x2="1899.0" y2="2664.0" stroke="black" stroke-width="30" />
<line x1="2662.0" y1="3108.0" x2="4883.0" y2="3108.0" stroke="black" stroke-width="30" />
<line x1="3464.0" y1="3302.0" x2="3953.0" y2="3302.0" stroke="black" stroke-width="30" />
<line x1="2672.0" y1="3344.0" x2="3375.0" y2="3344.0" stroke="black" stroke-width="30" />
<line x1="297.0" y1="3311.0" x2="1900.0" y2="3311.0" stroke="black" stroke-width="30" />
<line x1="288.0" y1="2649.0" x2="1909.0" y2="2649.0" stroke="black" stroke-width="30" />
<line x1="2672.0" y1="3285.0" x2="3375.0" y2="3285.0" stroke="black" stroke-width="30" />
<line x1="286.0" y1="3326.0" x2="1911.0" y2="3326.0" stroke="black" stroke-width="30" />
<line x1="2673.0" y1="3243.0" x2="3374.0" y2="3243.0" stroke="black" stroke-width="30" />
<line x1="4563.0" y1="3244.0" x2="4768.0" y2="3244.0" stroke="black" stroke-width="30" />
<line x1="3913.0" y1="3184.0" x2="4883.0" y2="3184.0" stroke="black" stroke-width="30" />
<line x1="2391.0" y1="1566.0" x2="3119.0" y2="1566.0" stroke="black" stroke-width="30" />
<line x1="3563.0" y1="1786.0" x2="4226.0" y2="1786.0" stroke="black" stroke-width="30" />
<line x1="3912.0" y1="3167.0" x2="4884.0" y2="3167.0" stroke="black" stroke-width="30" />
<line x1="1668.0" y1="1550.0" x2="2239.0" y2="1550.0" stroke="black" stroke-width="30" />
<line x1="311.0" y1="3350.0" x2="311.0" y2="2626.0" stroke="black" stroke-width="30" />
<line x1="1870.0" y1="3340.0" x2="1870.0" y2="2635.0" stroke="black" stroke-width="30" />
<line x1="1885.0" y1="3352.0" x2="1885.0" y2="2624.0" stroke="black" stroke-width="30" />
<line x1="326.0" y1="3340.0" x2="326.0" y2="2636.0" stroke="black" stroke-width="30" />
<line x1="4148.0" y1="2545.0" x2="4461.0" y2="2545.0" stroke="black" stroke-width="30" />
<line x1="2717.0" y1="1979.0" x2="3040.0" y2="1979.0" stroke="black" stroke-width="30" />
<line x1="195.0" y1="3400.0" x2="2714.0" y2="3400.0" stroke="black" stroke-width="30" />
<line x1="1831.0" y1="2530.0" x2="2328.0" y2="2530.0" stroke="black" stroke-width="30" />
<line x1="2219.0" y1="1538.0" x2="2302.0" y2="1538.0" stroke="black" stroke-width="30" />
<line x1="2199.0" y1="1110.0" x2="2620.0" y2="1110.0" stroke="black" stroke-width="30" />
<line x1="2684.0" y1="3429.0" x2="2684.0" y2="3086.0" stroke="black" stroke-width="30" />
<line x1="2211.0" y1="1093.0" x2="2608.0" y2="1093.0" stroke="black" stroke-width="30" />
<line x1="2614.0" y1="1774.0" x2="2699.0" y2="1774.0" stroke="black" stroke-width="30" />
<line x1="2201.0" y1="962.0" x2="2618.0" y2="962.0" stroke="black" stroke-width="30" />
<line x1="2391.0" y1="1802.0" x2="2785.0" y2="1802.0" stroke="black" stroke-width="30" />
<line x1="3032.0" y1="1963.0" x2="3163.0" y2="1963.0" stroke="black" stroke-width="30" />
<line x1="1898.0" y1="1815.0" x2="1986.0" y2="1815.0" stroke="black" stroke-width="30" />
<line x1="2212.0" y1="979.0" x2="2607.0" y2="979.0" stroke="black" stroke-width="30" />
<line x1="1934.0" y1="1578.0" x2="2023.0" y2="1578.0" stroke="black" stroke-width="30" />
<line x1="1405.0897160856507" y1="1809.2895075576675" x2="1634.921508034366" y2="1527.7196105336393" stroke="black" stroke-width="30" />
<line x1="4052.0" y1="1802.0" x2="4168.0" y2="1802.0" stroke="black" stroke-width="30" />
<line x1="2541.0" y1="1538.0" x2="2626.0" y2="1538.0" stroke="black" stroke-width="30" />
<line x1="2506.0" y1="1774.0" x2="2591.0" y2="1774.0" stroke="black" stroke-width="30" />
<line x1="2701.0" y1="3429.0" x2="2701.0" y2="3333.0" stroke="black" stroke-width="30" />
<line x1="605.0" y1="2545.0" x2="871.0" y2="2545.0" stroke="black" stroke-width="30" />
<line x1="3025.0" y1="1786.0" x2="3141.0" y2="1786.0" stroke="black" stroke-width="30" />
<line x1="3087.144401122301" y1="1563.6661963888555" x2="3284.855598877699" y2="1808.3338036111445" stroke="black" stroke-width="30" />
<line x1="3941.0" y1="3255.0" x2="3941.0" y2="3156.0" stroke="black" stroke-width="30" />
<line x1="2253.0" y1="1538.0" x2="2338.0" y2="1538.0" stroke="black" stroke-width="30" />
<line x1="1732.0" y1="1802.0" x2="1848.0" y2="1802.0" stroke="black" stroke-width="30" />
<line x1="3089.1571976621963" y1="1539.6558615481654" x2="3306.8428023378037" y2="1809.3441384518346" stroke="black" stroke-width="30" />
<line x1="2715.0" y1="2530.0" x2="2831.0" y2="2530.0" stroke="black" stroke-width="30" />
<line x1="2661.0" y1="1774.0" x2="2735.0" y2="1774.0" stroke="black" stroke-width="30" />
<line x1="1428.0782195637944" y1="1808.280168064773" x2="1643.9217804362056" y2="1543.7001670920126" stroke="black" stroke-width="30" />
<line x1="1723.0" y1="2531.0" x2="1848.0" y2="2531.0" stroke="black" stroke-width="30" />
<line x1="2900.0" y1="1786.0" x2="3016.0" y2="1786.0" stroke="black" stroke-width="30" />
<line x1="4728.0" y1="3244.0" x2="4883.0" y2="3244.0" stroke="black" stroke-width="30" />
<line x1="3924.0" y1="3256.0" x2="3924.0" y2="3096.0" stroke="black" stroke-width="30" />
<line x1="1934.0" y1="1815.0" x2="2022.0" y2="1815.0" stroke="black" stroke-width="30" />
<line x1="2726.0" y1="3226.0" x2="2842.0" y2="3226.0" stroke="black" stroke-width="30" />
<line x1="2843.7867965644" y1="1879.2132034355932" x2="2941.2132034356" y2="1782.7867965644068" stroke="black" stroke-width="30" />
<line x1="2078.0" y1="1578.0" x2="2167.0" y2="1578.0" stroke="black" stroke-width="30" />
<line x1="521.0" y1="1802.0" x2="637.0" y2="1802.0" stroke="black" stroke-width="30" />
<line x1="1725.0" y1="2546.0" x2="1831.0" y2="2546.0" stroke="black" stroke-width="30" />
<line x1="505.0" y1="1786.0" x2="621.0" y2="1786.0" stroke="black" stroke-width="30" />
<line x1="4482.0" y1="1786.0" x2="4598.0" y2="1786.0" stroke="black" stroke-width="30" />
<line x1="2686.0" y1="1774.0" x2="2771.0" y2="1774.0" stroke="black" stroke-width="30" />
<line x1="1890.0" y1="1786.0" x2="2006.0" y2="1786.0" stroke="black" stroke-width="30" />
<line x1="3415.0" y1="1786.0" x2="3531.0" y2="1786.0" stroke="black" stroke-width="30" />
<line x1="2577.0" y1="1538.0" x2="2662.0" y2="1538.0" stroke="black" stroke-width="30" />
<line x1="1334.0" y1="1802.0" x2="1449.0" y2="1802.0" stroke="black" stroke-width="30" />
<line x1="4197.0" y1="2530.0" x2="4313.0" y2="2530.0" stroke="black" stroke-width="30" />
<line x1="3464.0" y1="3361.0" x2="3953.0" y2="3361.0" stroke="black" stroke-width="30" />
<line x1="1506.0" y1="1786.0" x2="1622.0" y2="1786.0" stroke="black" stroke-width="30" />
<line x1="4023.0" y1="1802.0" x2="4111.0" y2="1802.0" stroke="black" stroke-width="30" />
<line x1="2847.0" y1="3226.0" x2="2963.0" y2="3226.0" stroke="black" stroke-width="30" />
<line x1="1548.0" y1="1802.0" x2="1664.0" y2="1802.0" stroke="black" stroke-width="30" />
<line x1="562.0" y1="1786.0" x2="668.0" y2="1786.0" stroke="black" stroke-width="30" />
<line x1="3643.0" y1="1872.0" x2="3753.0" y2="1872.0" stroke="black" stroke-width="30" />
<line x1="1677.0" y1="1833.0" x2="1779.0" y2="1833.0" stroke="black" stroke-width="30" />
<line x1="3913.0" y1="3302.0" x2="4366.0" y2="3302.0" stroke="black" stroke-width="30" />
<line x1="1203.0" y1="2556.0" x2="1289.0" y2="2556.0" stroke="black" stroke-width="30" />
<line x1="1898.0" y1="2545.0" x2="2014.0" y2="2545.0" stroke="black" stroke-width="30" />
<line x1="3454.0" y1="1802.0" x2="3542.0" y2="1802.0" stroke="black" stroke-width="30" />
<line x1="2245.0" y1="1802.0" x2="2339.0" y2="1802.0" stroke="black" stroke-width="30" />
<line x1="4591.0" y1="3429.0" x2="4591.0" y2="3216.0" stroke="black" stroke-width="30" />
<line x1="2290.0" y1="1774.0" x2="2375.0" y2="1774.0" stroke="black" stroke-width="30" />
<line x1="2761.7867965644" y1="1985.2132034355932" x2="2953.2132034356" y2="1792.7867965644068" stroke="black" stroke-width="30" />
<line x1="2752.0" y1="1963.0" x2="3038.0" y2="1963.0" stroke="black" stroke-width="30" />
<line x1="4756.0" y1="3429.0" x2="4756.0" y2="3216.0" stroke="black" stroke-width="30" />
<line x1="2223.0" y1="1133.0" x2="2223.0" y2="940.0" stroke="black" stroke-width="30" />
<line x1="928.0" y1="1786.0" x2="1044.0" y2="1786.0" stroke="black" stroke-width="30" />
<line x1="3264.0" y1="1802.0" x2="3341.0" y2="1802.0" stroke="black" stroke-width="30" />
<line x1="3413.0" y1="2545.0" x2="3529.0" y2="2545.0" stroke="black" stroke-width="30" />
<line x1="4466.0" y1="3302.0" x2="4582.0" y2="3302.0" stroke="black" stroke-width="30" />
<line x1="3417.0" y1="2530.0" x2="3533.0" y2="2530.0" stroke="black" stroke-width="30" />
<line x1="3345.0" y1="3373.0" x2="3345.0" y2="3273.0" stroke="black" stroke-width="30" />
<line x1="4314.0" y1="1786.0" x2="4430.0" y2="1786.0" stroke="black" stroke-width="30" />
<line x1="1651.0" y1="2516.0" x2="1721.0" y2="2516.0" stroke="black" stroke-width="30" />
<line x1="3274.0" y1="1944.0" x2="3364.0" y2="1944.0" stroke="black" stroke-width="30" />
<line x1="1970.0" y1="1815.0" x2="2058.0" y2="1815.0" stroke="black" stroke-width="30" />
<line x1="2325.0" y1="1538.0" x2="2410.0" y2="1538.0" stroke="black" stroke-width="30" />
<line x1="2789.0" y1="1786.0" x2="2894.0" y2="1786.0" stroke="black" stroke-width="30" />
<line x1="2128.0" y1="2545.0" x2="2244.0" y2="2545.0" stroke="black" stroke-width="30" />
<line x1="4739.0" y1="3430.0" x2="4739.0" y2="3215.0" stroke="black" stroke-width="30" />
<line x1="3625.0" y1="1802.0" x2="3741.0" y2="1802.0" stroke="black" stroke-width="30" />
<line x1="1988.0" y1="2545.0" x2="2104.0" y2="2545.0" stroke="black" stroke-width="30" />
<line x1="3475.0" y1="3374.0" x2="3475.0" y2="3273.0" stroke="black" stroke-width="30" />
<line x1="4574.0" y1="3374.0" x2="4574.0" y2="3273.0" stroke="black" stroke-width="30" />
<line x1="2595.0" y1="1135.0" x2="2595.0" y2="938.0" stroke="black" stroke-width="30" />
<line x1="3634.0" y1="2545.0" x2="3750.0" y2="2545.0" stroke="black" stroke-width="30" />
<line x1="2940.0" y1="1802.0" x2="3056.0" y2="1802.0" stroke="black" stroke-width="30" />
<line x1="2186.0" y1="1578.0" x2="2262.0" y2="1578.0" stroke="black" stroke-width="30" />
<line x1="2709.0" y1="2545.0" x2="2825.0" y2="2545.0" stroke="black" stroke-width="30" />
<line x1="2240.0" y1="1122.0" x2="2240.0" y2="951.0" stroke="black" stroke-width="30" />
<line x1="3941.0" y1="3429.0" x2="3941.0" y2="3333.0" stroke="black" stroke-width="30" />
<line x1="2876.0" y1="1731.0" x2="3013.0" y2="1731.0" stroke="black" stroke-width="30" />
<line x1="3342.0" y1="2545.0" x2="3458.0" y2="2545.0" stroke="black" stroke-width="30" />
<line x1="1417.0" y1="1786.0" x2="1512.0" y2="1786.0" stroke="black" stroke-width="30" />
<line x1="4326.0" y1="3244.0" x2="4483.0" y2="3244.0" stroke="black" stroke-width="30" />
<line x1="2701.0" y1="3255.0" x2="2701.0" y2="3097.0" stroke="black" stroke-width="30" />
<line x1="3621.0" y1="2530.0" x2="3737.0" y2="2530.0" stroke="black" stroke-width="30" />
<line x1="3647.0" y1="1834.0" x2="3753.0" y2="1834.0" stroke="black" stroke-width="30" />
<line x1="3153.0" y1="1802.0" x2="3241.0" y2="1802.0" stroke="black" stroke-width="30" />
<line x1="1619.0" y1="1786.0" x2="1735.0" y2="1786.0" stroke="black" stroke-width="30" />
<line x1="2578.0" y1="1122.0" x2="2578.0" y2="950.0" stroke="black" stroke-width="30" />
<line x1="4135.0" y1="1802.0" x2="4227.0" y2="1802.0" stroke="black" stroke-width="30" />
<line x1="3130.0" y1="3226.0" x2="3246.0" y2="3226.0" stroke="black" stroke-width="30" />
<line x1="2428.0" y1="2545.0" x2="2544.0" y2="2545.0" stroke="black" stroke-width="30" />
<line x1="2944.0" y1="1550.0" x2="3060.0" y2="1550.0" stroke="black" stroke-width="30" />
<line x1="4443.0" y1="1786.0" x2="4541.0" y2="1786.0" stroke="black" stroke-width="30" />
<line x1="3913.0" y1="3244.0" x2="4017.0" y2="3244.0" stroke="black" stroke-width="30" />
<line x1="3257.0" y1="1786.0" x2="3355.0" y2="1786.0" stroke="black" stroke-width="30" />
<line x1="2141.0" y1="1786.0" x2="2227.0" y2="1786.0" stroke="black" stroke-width="30" />
<line x1="2087.0" y1="1815.0" x2="2166.0" y2="1815.0" stroke="black" stroke-width="30" />
<line x1="817.0" y1="1786.0" x2="933.0" y2="1786.0" stroke="black" stroke-width="30" />
<line x1="1443.0" y1="1802.0" x2="1559.0" y2="1802.0" stroke="black" stroke-width="30" />
<line x1="1564.0" y1="1786.0" x2="1678.0" y2="1786.0" stroke="black" stroke-width="30" />
<line x1="3642.0" y1="3243.0" x2="3758.0" y2="3243.0" stroke="black" stroke-width="30" />
<line x1="4326.0" y1="3302.0" x2="4440.0" y2="3302.0" stroke="black" stroke-width="30" />
<line x1="3244.0" y1="3302.0" x2="3360.0" y2="3302.0" stroke="black" stroke-width="30" />
<line x1="3492.0" y1="3373.0" x2="3492.0" y2="3274.0" stroke="black" stroke-width="30" />
<line x1="1789.0" y1="1786.0" x2="1905.0" y2="1786.0" stroke="black" stroke-width="30" />
<line x1="2006.0" y1="1578.0" x2="2095.0" y2="1578.0" stroke="black" stroke-width="30" />
<line x1="687.0" y1="2530.0" x2="803.0" y2="2530.0" stroke="black" stroke-width="30" />
<line x1="1470.0" y1="1872.0" x2="1548.0" y2="1872.0" stroke="black" stroke-width="30" />
<line x1="3087.0" y1="1903.0" x2="3207.0" y2="1903.0" stroke="black" stroke-width="30" />
<line x1="3362.0" y1="3314.0" x2="3362.0" y2="3215.0" stroke="black" stroke-width="30" />
<line x1="2848.0" y1="1703.0" x2="2928.0" y2="1703.0" stroke="black" stroke-width="30" />
<line x1="4337.0" y1="3315.0" x2="4337.0" y2="3215.0" stroke="black" stroke-width="30" />
<line x1="3084.0" y1="1786.0" x2="3200.0" y2="1786.0" stroke="black" stroke-width="30" />
<line x1="2485.0" y1="2545.0" x2="2574.0" y2="2545.0" stroke="black" stroke-width="30" />
<line x1="3949.0" y1="1802.0" x2="4065.0" y2="1802.0" stroke="black" stroke-width="30" />
<line x1="3333.0041657988095" y1="3303.4999305700176" x2="3452.9958342011905" y2="3301.5000694299824" stroke="black" stroke-width="30" />
<line x1="4488.0" y1="3244.0" x2="4603.0" y2="3244.0" stroke="black" stroke-width="30" />
<line x1="367.0" y1="2853.0" x2="483.0" y2="2853.0" stroke="black" stroke-width="30" />
<line x1="2114.0" y1="1815.0" x2="2202.0" y2="1815.0" stroke="black" stroke-width="30" />
<line x1="4002.0" y1="3244.0" x2="4118.0" y2="3244.0" stroke="black" stroke-width="30" />
<line x1="332.0" y1="2889.0" x2="493.0" y2="2889.0" stroke="black" stroke-width="30" />
<line x1="1336.0" y1="1786.0" x2="1416.0" y2="1786.0" stroke="black" stroke-width="30" />
<line x1="2218.0" y1="1774.0" x2="2303.0" y2="1774.0" stroke="black" stroke-width="30" />
<line x1="3384.0" y1="1786.0" x2="3474.0" y2="1786.0" stroke="black" stroke-width="30" />
<line x1="1619.0" y1="2546.0" x2="1699.0" y2="2546.0" stroke="black" stroke-width="30" />
<line x1="2721.0" y1="1538.0" x2="2806.0" y2="1538.0" stroke="black" stroke-width="30" />
<line x1="1139.0043081783815" y1="2544.491598443701" x2="1257.9956918216185" y2="2546.508401556299" stroke="black" stroke-width="30" />
<line x1="4371.0" y1="1786.0" x2="4445.0" y2="1786.0" stroke="black" stroke-width="30" />
<line x1="964.0" y1="2530.0" x2="1080.0" y2="2530.0" stroke="black" stroke-width="30" />
<line x1="2280.0" y1="1802.0" x2="2372.0" y2="1802.0" stroke="black" stroke-width="30" />
<line x1="2051.0" y1="1802.0" x2="2121.0" y2="1802.0" stroke="black" stroke-width="30" />
<line x1="4381.0" y1="3302.0" x2="4472.0" y2="3302.0" stroke="black" stroke-width="30" />
<line x1="3750.0" y1="1802.0" x2="3848.0" y2="1802.0" stroke="black" stroke-width="30" />
<line x1="4250.0" y1="1786.0" x2="4360.0" y2="1786.0" stroke="black" stroke-width="30" />
<line x1="2748.7867965644" y1="1974.2132034355932" x2="2856.2132034356" y2="1866.7867965644068" stroke="black" stroke-width="30" />
<line x1="4332.0" y1="1802.0" x2="4448.0" y2="1802.0" stroke="black" stroke-width="30" />
<line x1="368.0" y1="2818.0" x2="457.0" y2="2818.0" stroke="black" stroke-width="30" />
<line x1="1255.0" y1="2556.0" x2="1359.0" y2="2556.0" stroke="black" stroke-width="30" />
<line x1="2326.0" y1="1774.0" x2="2411.0" y2="1774.0" stroke="black" stroke-width="30" />
<line x1="1675.0" y1="1873.0" x2="1812.0" y2="1873.0" stroke="black" stroke-width="30" />
<line x1="335.0" y1="2872.0" x2="491.0" y2="2872.0" stroke="black" stroke-width="30" />
<line x1="2788.0" y1="3226.0" x2="2904.0" y2="3226.0" stroke="black" stroke-width="30" />
<line x1="3742.0" y1="2530.0" x2="3858.0" y2="2530.0" stroke="black" stroke-width="30" />
<line x1="2045.0" y1="2545.0" x2="2139.0" y2="2545.0" stroke="black" stroke-width="30" />
<line x1="4104.0" y1="3244.0" x2="4220.0" y2="3244.0" stroke="black" stroke-width="30" />
<line x1="1114.0" y1="1720.0" x2="1184.0" y2="1720.0" stroke="black" stroke-width="30" />
<line x1="1877.0" y1="1729.0" x2="1948.0" y2="1729.0" stroke="black" stroke-width="30" />
<line x1="3523.0" y1="1816.0" x2="3618.0" y2="1816.0" stroke="black" stroke-width="30" />
<line x1="2469.0" y1="1538.0" x2="2554.0" y2="1538.0" stroke="black" stroke-width="30" />
<line x1="1268.0" y1="2523.0" x2="1354.0" y2="2523.0" stroke="black" stroke-width="30" />
<line x1="2084.0" y1="1786.0" x2="2172.0" y2="1786.0" stroke="black" stroke-width="30" />
<line x1="3912.0" y1="3285.0" x2="4366.0" y2="3285.0" stroke="black" stroke-width="30" />
<line x1="2602.0" y1="2545.0" x2="2718.0" y2="2545.0" stroke="black" stroke-width="30" />
<line x1="4369.0" y1="1844.0" x2="4450.0" y2="1844.0" stroke="black" stroke-width="30" />
<line x1="4413.0" y1="1786.0" x2="4502.0" y2="1786.0" stroke="black" stroke-width="30" />
<line x1="2925.0" y1="1691.0" x2="3011.0" y2="1691.0" stroke="black" stroke-width="30" />
<line x1="2036.0166527906276" y1="1576.0005550930186" x2="2125.9833472093724" y2="1578.9994449069814" stroke="black" stroke-width="30" />
<line x1="3912.0" y1="3344.0" x2="4367.0" y2="3344.0" stroke="black" stroke-width="30" />
<line x1="2400.0" y1="2530.0" x2="2516.0" y2="2530.0" stroke="black" stroke-width="30" />
<line x1="1230.0" y1="2557.0" x2="1302.0" y2="2557.0" stroke="black" stroke-width="30" />
<line x1="3703.0" y1="1802.0" x2="3809.0" y2="1802.0" stroke="black" stroke-width="30" />
<line x1="4420.0" y1="1802.0" x2="4536.0" y2="1802.0" stroke="black" stroke-width="30" />
<line x1="3295.0070863352767" y1="2546.6520198622775" x2="3400.9929136647233" y2="2544.3479801377225" stroke="black" stroke-width="30" />
<line x1="4317.0" y1="1821.0" x2="4400.0" y2="1821.0" stroke="black" stroke-width="30" />
<line x1="3062.0" y1="1802.0" x2="3146.0" y2="1802.0" stroke="black" stroke-width="30" />
<line x1="2185.0" y1="2545.0" x2="2290.0" y2="2545.0" stroke="black" stroke-width="30" />
<line x1="4278.0" y1="3244.0" x2="4366.0" y2="3244.0" stroke="black" stroke-width="30" />
<line x1="3141.0" y1="1786.0" x2="3229.0" y2="1786.0" stroke="black" stroke-width="30" />
<line x1="3282.0" y1="1802.0" x2="3363.0" y2="1802.0" stroke="black" stroke-width="30" />
<line x1="1977.0" y1="1963.0" x2="2093.0" y2="1963.0" stroke="black" stroke-width="30" />
<line x1="1947.0" y1="1786.0" x2="2040.0" y2="1786.0" stroke="black" stroke-width="30" />
<line x1="2957.0" y1="1786.0" x2="3037.0" y2="1786.0" stroke="black" stroke-width="30" />
<line x1="1702.0" y1="1802.0" x2="1790.0" y2="1802.0" stroke="black" stroke-width="30" />
<line x1="1121.0" y1="2530.0" x2="1237.0" y2="2530.0" stroke="black" stroke-width="30" />
<line x1="2947.0" y1="1483.0" x2="3037.0" y2="1483.0" stroke="black" stroke-width="30" />
<line x1="1506.0" y1="1802.0" x2="1607.0" y2="1802.0" stroke="black" stroke-width="30" />
<line x1="2873.0" y1="1868.0" x2="2948.0" y2="1868.0" stroke="black" stroke-width="30" />
<line x1="2847.0" y1="1550.0" x2="2953.0" y2="1550.0" stroke="black" stroke-width="30" />
<line x1="4303.0" y1="2530.0" x2="4419.0" y2="2530.0" stroke="black" stroke-width="30" />
<line x1="2557.0" y1="2530.0" x2="2673.0" y2="2530.0" stroke="black" stroke-width="30" />
<line x1="2259.0" y1="1566.0" x2="2347.0" y2="1566.0" stroke="black" stroke-width="30" />
<line x1="607.0" y1="2530.0" x2="706.0" y2="2530.0" stroke="black" stroke-width="30" />
<line x1="3187.0" y1="3226.0" x2="3297.0" y2="3226.0" stroke="black" stroke-width="30" />
<line x1="3892.0" y1="2545.0" x2="4008.0" y2="2545.0" stroke="black" stroke-width="30" />
<line x1="4444.0" y1="3244.0" x2="4547.0" y2="3244.0" stroke="black" stroke-width="30" />
<line x1="1605.0" y1="1802.0" x2="1687.0" y2="1802.0" stroke="black" stroke-width="30" />
<line x1="2542.0" y1="1774.0" x2="2619.0" y2="1774.0" stroke="black" stroke-width="30" />
<line x1="4354.0" y1="3373.0" x2="4354.0" y2="3274.0" stroke="black" stroke-width="30" />
<line x1="3316.0" y1="1786.0" x2="3404.0" y2="1786.0" stroke="black" stroke-width="30" />
<line x1="4181.0" y1="1767.0" x2="4282.0" y2="1767.0" stroke="black" stroke-width="30" />
<line x1="3037.0" y1="1539.0" x2="3109.0" y2="1539.0" stroke="black" stroke-width="30" />
<line x1="1674.0137646256394" y1="1493.0913262007757" x2="1766.9862353743606" y2="1495.9086737992243" stroke="black" stroke-width="30" />
<line x1="1898.0" y1="1578.0" x2="1987.0" y2="1578.0" stroke="black" stroke-width="30" />
<line x1="4396.0" y1="3285.0" x2="4484.0" y2="3285.0" stroke="black" stroke-width="30" />
<line x1="1513.0374298336624" y1="1846.4981285083172" x2="1592.9625701663376" y2="1842.5018714916828" stroke="black" stroke-width="30" />
<line x1="2258.028315249351" y1="1772.696883271714" x2="2340.971684750649" y2="1776.303116728286" stroke="black" stroke-width="30" />
<line x1="1058.0" y1="1786.0" x2="1143.0" y2="1786.0" stroke="black" stroke-width="30" />
<line x1="2643.0" y1="2530.0" x2="2759.0" y2="2530.0" stroke="black" stroke-width="30" />
<line x1="3704.0" y1="2530.0" x2="3801.0" y2="2530.0" stroke="black" stroke-width="30" />
<line x1="336.0" y1="2838.0" x2="491.0" y2="2838.0" stroke="black" stroke-width="30" />
<line x1="2006.0" y1="1815.0" x2="2094.0" y2="1815.0" stroke="black" stroke-width="30" />
<line x1="2740.0339558682663" y1="1854.5730455175349" x2="2820.9660441317337" y2="1858.4269544824651" stroke="black" stroke-width="30" />
<line x1="438.0" y1="1802.0" x2="554.0" y2="1802.0" stroke="black" stroke-width="30" />
<line x1="1091.0" y1="1763.0" x2="1177.0" y2="1763.0" stroke="black" stroke-width="30" />
<line x1="1228.0" y1="1692.0" x2="1325.0" y2="1692.0" stroke="black" stroke-width="30" />
<line x1="2837.0" y1="2617.0" x2="2907.0" y2="2617.0" stroke="black" stroke-width="30" />
<line x1="2487.0" y1="2530.0" x2="2603.0" y2="2530.0" stroke="black" stroke-width="30" />
<line x1="2780.0" y1="1802.0" x2="2896.0" y2="1802.0" stroke="black" stroke-width="30" />
<line x1="634.0" y1="1802.0" x2="712.0" y2="1802.0" stroke="black" stroke-width="30" />
<line x1="3779.030943793695" y1="1841.6377701724382" x2="3860.969056206305" y2="1845.3622298275618" stroke="black" stroke-width="30" />
<line x1="3575.0" y1="2545.0" x2="3676.0" y2="2545.0" stroke="black" stroke-width="30" />
<line x1="1111.030943793688" y1="1700.6377701724382" x2="1192.969056206312" y2="1704.3622298275618" stroke="black" stroke-width="30" />
<line x1="2186.0" y1="1815.0" x2="2262.0" y2="1815.0" stroke="black" stroke-width="30" />
<line x1="982.0" y1="1839.0" x2="1059.0" y2="1839.0" stroke="black" stroke-width="30" />
<line x1="3861.0" y1="1802.0" x2="3977.0" y2="1802.0" stroke="black" stroke-width="30" />
<line x1="1230.0584226455135" y1="1727.1286514153476" x2="1305.9415773544865" y2="1731.8713485846524" stroke="black" stroke-width="30" />
<line x1="3223.0" y1="1802.0" x2="3304.0" y2="1802.0" stroke="black" stroke-width="30" />
<line x1="3072.2159590238343" y1="1543.608552746659" x2="3215.7840409761657" y2="1722.391447253341" stroke="black" stroke-width="30" />
<line x1="1678.0" y1="1455.0" x2="1764.0" y2="1455.0" stroke="black" stroke-width="30" />
<line x1="2650.0" y1="1774.0" x2="2720.0" y2="1774.0" stroke="black" stroke-width="30" />
<line x1="2613.0" y1="1538.0" x2="2698.0" y2="1538.0" stroke="black" stroke-width="30" />
<line x1="2921.0" y1="1802.0" x2="2999.0" y2="1802.0" stroke="black" stroke-width="30" />
<line x1="1672.0" y1="2556.0" x2="1779.0" y2="2556.0" stroke="black" stroke-width="30" />
<line x1="3081.191764894038" y1="1528.6280019639134" x2="3254.808235105962" y2="1744.3719980360866" stroke="black" stroke-width="30" />
<line x1="3071.0" y1="2549.0" x2="3141.0" y2="2549.0" stroke="black" stroke-width="30" />
<line x1="2082.0" y1="2545.0" x2="2187.0" y2="2545.0" stroke="black" stroke-width="30" />
<line x1="4251.0" y1="1802.0" x2="4355.0" y2="1802.0" stroke="black" stroke-width="30" />
<line x1="888.0" y1="1786.0" x2="966.0" y2="1786.0" stroke="black" stroke-width="30" />
<line x1="4696.0" y1="3400.0" x2="4768.0" y2="3400.0" stroke="black" stroke-width="30" />
<line x1="3390.0" y1="1802.0" x2="3506.0" y2="1802.0" stroke="black" stroke-width="30" />
<line x1="3182.0" y1="1786.0" x2="3260.0" y2="1786.0" stroke="black" stroke-width="30" />
<line x1="1190.0" y1="2789.0" x2="1280.0" y2="2789.0" stroke="black" stroke-width="30" />
<line x1="1921.0" y1="1702.0" x2="2004.0" y2="1702.0" stroke="black" stroke-width="30" />
<line x1="3963.0" y1="2545.0" x2="4079.0" y2="2545.0" stroke="black" stroke-width="30" />
<line x1="3603.0" y1="3344.0" x2="3681.0" y2="3344.0" stroke="black" stroke-width="30" />
<line x1="3752.0" y1="2545.0" x2="3840.0" y2="2545.0" stroke="black" stroke-width="30" />
<line x1="2113.0" y1="1786.0" x2="2187.0" y2="1786.0" stroke="black" stroke-width="30" />
<line x1="4066.0" y1="3244.0" x2="4163.0" y2="3244.0" stroke="black" stroke-width="30" />
<line x1="1420.0146377173883" y1="1914.9370425713314" x2="1511.9853622826117" y2="1912.0629574286686" stroke="black" stroke-width="30" />
<line x1="3941.0" y1="3373.0" x2="3941.0" y2="3274.0" stroke="black" stroke-width="30" />
<line x1="3203.0" y1="1944.0" x2="3293.0" y2="1944.0" stroke="black" stroke-width="30" />
<line x1="1690.0" y1="2523.0" x2="1775.0" y2="2523.0" stroke="black" stroke-width="30" />
<line x1="1285.0" y1="1802.0" x2="1373.0" y2="1802.0" stroke="black" stroke-width="30" />
<line x1="1795.0" y1="1802.0" x2="1900.0" y2="1802.0" stroke="black" stroke-width="30" />
<line x1="1463.0" y1="1945.0" x2="1584.0" y2="1945.0" stroke="black" stroke-width="30" />
<line x1="984.0" y1="1820.0" x2="1060.0" y2="1820.0" stroke="black" stroke-width="30" />
<line x1="2853.0" y1="3302.0" x2="2931.0" y2="3302.0" stroke="black" stroke-width="30" />
<line x1="3675.0" y1="3344.0" x2="3753.0" y2="3344.0" stroke="black" stroke-width="30" />
<line x1="625.0" y1="1786.0" x2="741.0" y2="1786.0" stroke="black" stroke-width="30" />
<line x1="3349.0" y1="2530.0" x2="3465.0" y2="2530.0" stroke="black" stroke-width="30" />
<line x1="2781.0" y1="3302.0" x2="2859.0" y2="3302.0" stroke="black" stroke-width="30" />
<line x1="1618.0" y1="2531.0" x2="1700.0" y2="2531.0" stroke="black" stroke-width="30" />
<line x1="3539.0" y1="3285.0" x2="3655.0" y2="3285.0" stroke="black" stroke-width="30" />
<line x1="1644.0" y1="1541.0" x2="1715.0" y2="1541.0" stroke="black" stroke-width="30" />
<line x1="3682.0" y1="1802.0" x2="3760.0" y2="1802.0" stroke="black" stroke-width="30" />
<line x1="907.0" y1="1786.0" x2="977.0" y2="1786.0" stroke="black" stroke-width="30" />
<line x1="4147.004308178368" y1="3398.491598443701" x2="4265.995691821632" y2="3400.508401556299" stroke="black" stroke-width="30" />
<line x1="371.0" y1="2801.0" x2="455.0" y2="2801.0" stroke="black" stroke-width="30" />
<line x1="1197.0" y1="1743.0" x2="1272.0" y2="1743.0" stroke="black" stroke-width="30" />
<line x1="4017.0" y1="3361.0" x2="4095.0" y2="3361.0" stroke="black" stroke-width="30" />
<line x1="2991.0" y1="3302.0" x2="3107.0" y2="3302.0" stroke="black" stroke-width="30" />
<line x1="1420.1488842936988" y1="1877.9851115706288" x2="1489.8511157063012" y2="1871.0148884293712" stroke="black" stroke-width="30" />
<line x1="1461.0" y1="1985.0" x2="1586.0" y2="1985.0" stroke="black" stroke-width="30" />
<line x1="4041.0" y1="3361.0" x2="4119.0" y2="3361.0" stroke="black" stroke-width="30" />
<line x1="2867.0" y1="1786.0" x2="2959.0" y2="1786.0" stroke="black" stroke-width="30" />
<line x1="2388.0" y1="2545.0" x2="2487.0" y2="2545.0" stroke="black" stroke-width="30" />
<line x1="1623.0" y1="1566.0" x2="1739.0" y2="1566.0" stroke="black" stroke-width="30" />
<line x1="985.0" y1="1786.0" x2="1100.0" y2="1786.0" stroke="black" stroke-width="30" />
<line x1="683.0" y1="1802.0" x2="776.0" y2="1802.0" stroke="black" stroke-width="30" />
<line x1="4055.0" y1="3400.0" x2="4171.0" y2="3400.0" stroke="black" stroke-width="30" />
<line x1="2293.0" y1="1566.0" x2="2409.0" y2="1566.0" stroke="black" stroke-width="30" />
<line x1="2850.0" y1="1720.0" x2="2926.0" y2="1720.0" stroke="black" stroke-width="30" />
<line x1="3715.0" y1="2545.0" x2="3811.0" y2="2545.0" stroke="black" stroke-width="30" />
<line x1="3562.0" y1="1802.0" x2="3660.0" y2="1802.0" stroke="black" stroke-width="30" />
<line x1="3463.0" y1="3285.0" x2="3569.0" y2="3285.0" stroke="black" stroke-width="30" />
<line x1="3831.0" y1="1802.0" x2="3919.0" y2="1802.0" stroke="black" stroke-width="30" />
<line x1="3166.0" y1="1609.0" x2="3304.0" y2="1609.0" stroke="black" stroke-width="30" />
<line x1="2724.0" y1="1696.0" x2="2796.0" y2="1696.0" stroke="black" stroke-width="30" />
<line x1="4451.0" y1="3285.0" x2="4567.0" y2="3285.0" stroke="black" stroke-width="30" />
<line x1="1469.0" y1="1786.0" x2="1557.0" y2="1786.0" stroke="black" stroke-width="30" />
<line x1="4490.0" y1="1802.0" x2="4606.0" y2="1802.0" stroke="black" stroke-width="30" />
<line x1="2904.0" y1="3226.0" x2="2984.0" y2="3226.0" stroke="black" stroke-width="30" />
<line x1="2313.004615739699" y1="1802.5262348115843" x2="2429.995384260301" y2="1800.4737651884157" stroke="black" stroke-width="30" />
<line x1="3099.0" y1="1802.0" x2="3212.0" y2="1802.0" stroke="black" stroke-width="30" />
<line x1="2468.0205549869997" y1="1776.1103498152988" x2="2554.9794450130003" y2="1772.8896501847012" stroke="black" stroke-width="30" />
<line x1="2732.0" y1="1774.0" x2="2807.0" y2="1774.0" stroke="black" stroke-width="30" />
<line x1="1914.0" y1="1732.0" x2="1995.0" y2="1732.0" stroke="black" stroke-width="30" />
<line x1="1409.0" y1="1802.0" x2="1487.0" y2="1802.0" stroke="black" stroke-width="30" />
<line x1="2673.0" y1="3361.0" x2="3374.0" y2="3361.0" stroke="black" stroke-width="30" />
<line x1="4466.0" y1="3344.0" x2="4582.0" y2="3344.0" stroke="black" stroke-width="30" />
<line x1="3221.103627252656" y1="1900.5086356043857" x2="3292.896372747344" y2="1906.4913643956143" stroke="black" stroke-width="30" />
<line x1="3782.0" y1="1861.0" x2="3859.0" y2="1861.0" stroke="black" stroke-width="30" />
<line x1="3258.0" y1="3226.0" x2="3346.0" y2="3226.0" stroke="black" stroke-width="30" />
<line x1="4367.0" y1="3400.0" x2="4483.0" y2="3400.0" stroke="black" stroke-width="30" />
<line x1="3063.0" y1="3302.0" x2="3179.0" y2="3302.0" stroke="black" stroke-width="30" />
<line x1="2843.0" y1="2602.0" x2="2931.0" y2="2602.0" stroke="black" stroke-width="30" />
<line x1="3136.0" y1="3302.0" x2="3252.0" y2="3302.0" stroke="black" stroke-width="30" />
<line x1="4263.0" y1="3400.0" x2="4379.0" y2="3400.0" stroke="black" stroke-width="30" />
<line x1="2837.0" y1="1802.0" x2="2922.0" y2="1802.0" stroke="black" stroke-width="30" />
<line x1="1790.0" y1="1566.0" x2="1898.0" y2="1566.0" stroke="black" stroke-width="30" />
<line x1="3976.0" y1="3400.0" x2="4092.0" y2="3400.0" stroke="black" stroke-width="30" />
<line x1="3577.0" y1="3243.0" x2="3665.0" y2="3243.0" stroke="black" stroke-width="30" />
<line x1="3336.0" y1="3243.0" x2="3452.0" y2="3243.0" stroke="black" stroke-width="30" />
<line x1="1456.1036272526562" y1="1874.4913643956143" x2="1527.8963727473438" y2="1868.5086356043857" stroke="black" stroke-width="30" />
<line x1="3362.0" y1="3226.0" x2="3450.0" y2="3226.0" stroke="black" stroke-width="30" />
<line x1="2659.0" y1="2545.0" x2="2761.0" y2="2545.0" stroke="black" stroke-width="30" />
<line x1="1317.0" y1="2545.0" x2="1416.0" y2="2545.0" stroke="black" stroke-width="30" />
<line x1="3726.0" y1="3344.0" x2="3804.0" y2="3344.0" stroke="black" stroke-width="30" />
<line x1="1448.0053385532965" y1="1835.5659370084254" x2="1560.9946614467035" y2="1833.4340629915746" stroke="black" stroke-width="30" />
<line x1="4547.0" y1="1802.0" x2="4650.0" y2="1802.0" stroke="black" stroke-width="30" />
<line x1="1650.0" y1="2557.0" x2="1721.0" y2="2557.0" stroke="black" stroke-width="30" />
<line x1="2505.0" y1="1538.0" x2="2590.0" y2="1538.0" stroke="black" stroke-width="30" />
<line x1="3656.0" y1="3285.0" x2="3772.0" y2="3285.0" stroke="black" stroke-width="30" />
<line x1="3001.0" y1="1786.0" x2="3073.0" y2="1786.0" stroke="black" stroke-width="30" />
<line x1="1676.0" y1="1786.0" x2="1772.0" y2="1786.0" stroke="black" stroke-width="30" />
<line x1="3697.0" y1="1846.0" x2="3782.0" y2="1846.0" stroke="black" stroke-width="30" />
<line x1="2820.0" y1="2549.0" x2="2893.0" y2="2549.0" stroke="black" stroke-width="30" />
<line x1="3477.0" y1="3344.0" x2="3565.0" y2="3344.0" stroke="black" stroke-width="30" />
<line x1="4325.0" y1="3285.0" x2="4413.0" y2="3285.0" stroke="black" stroke-width="30" />
<line x1="1668.0" y1="1802.0" x2="1757.0" y2="1802.0" stroke="black" stroke-width="30" />
<line x1="2873.0" y1="2546.0" x2="2947.0" y2="2546.0" stroke="black" stroke-width="30" />
<line x1="1749.0" y1="1566.0" x2="1849.0" y2="1566.0" stroke="black" stroke-width="30" />
<line x1="2731.0" y1="1898.0" x2="2812.0" y2="1898.0" stroke="black" stroke-width="30" />
<line x1="3784.0" y1="3243.0" x2="3872.0" y2="3243.0" stroke="black" stroke-width="30" />
<line x1="3760.0" y1="1872.0" x2="3835.0" y2="1872.0" stroke="black" stroke-width="30" />
<line x1="1188.0" y1="2761.0" x2="1282.0" y2="2761.0" stroke="black" stroke-width="30" />
<line x1="920.0" y1="2530.0" x2="1023.0" y2="2530.0" stroke="black" stroke-width="30" />
<line x1="3334.0" y1="3361.0" x2="3443.0" y2="3361.0" stroke="black" stroke-width="30" />
<line x1="332.0" y1="2818.0" x2="421.0" y2="2818.0" stroke="black" stroke-width="30" />
<line x1="2359.0122374061766" y1="2531.856793216967" x2="2453.9877625938234" y2="2529.143206783033" stroke="black" stroke-width="30" />
<line x1="2244.103627252656" y1="1569.4913643956143" x2="2315.896372747344" y2="1563.5086356043857" stroke="black" stroke-width="30" />
<line x1="3016.0" y1="3226.0" x2="3104.0" y2="3226.0" stroke="black" stroke-width="30" />
<line x1="2782.0" y1="3400.0" x2="2870.0" y2="3400.0" stroke="black" stroke-width="30" />
<line x1="4215.0" y1="3244.0" x2="4303.0" y2="3244.0" stroke="black" stroke-width="30" />
<line x1="2753.0" y1="1509.0" x2="2824.0" y2="1509.0" stroke="black" stroke-width="30" />
<line x1="3951.0" y1="3361.0" x2="4039.0" y2="3361.0" stroke="black" stroke-width="30" />
<line x1="4426.0" y1="3400.0" x2="4542.0" y2="3400.0" stroke="black" stroke-width="30" />
<line x1="1680.0" y1="1566.0" x2="1779.0" y2="1566.0" stroke="black" stroke-width="30" />
<line x1="3737.0" y1="3285.0" x2="3853.0" y2="3285.0" stroke="black" stroke-width="30" />
<line x1="3746.0" y1="3344.0" x2="3824.0" y2="3344.0" stroke="black" stroke-width="30" />
<line x1="2227.0" y1="1820.0" x2="2298.0" y2="1820.0" stroke="black" stroke-width="30" />
<line x1="4763.0" y1="3400.0" x2="4841.0" y2="3400.0" stroke="black" stroke-width="30" />
<line x1="3014.0" y1="1786.0" x2="3084.0" y2="1786.0" stroke="black" stroke-width="30" />
<line x1="4595.0" y1="3125.0" x2="4711.0" y2="3125.0" stroke="black" stroke-width="30" />
<line x1="2231.0" y1="2545.0" x2="2329.0" y2="2545.0" stroke="black" stroke-width="30" />
<line x1="1106.0" y1="2545.0" x2="1187.0" y2="2545.0" stroke="black" stroke-width="30" />
<line x1="3485.0" y1="3226.0" x2="3601.0" y2="3226.0" stroke="black" stroke-width="30" />
<line x1="2289.0" y1="1538.0" x2="2374.0" y2="1538.0" stroke="black" stroke-width="30" />
<line x1="3001.0" y1="1550.0" x2="3080.0" y2="1550.0" stroke="black" stroke-width="30" />
<line x1="3934.0" y1="3400.0" x2="4035.0" y2="3400.0" stroke="black" stroke-width="30" />
<line x1="2932.0" y1="1910.0" x2="3012.0" y2="1910.0" stroke="black" stroke-width="30" />
<line x1="3475.0" y1="3430.0" x2="3475.0" y2="3332.0" stroke="black" stroke-width="30" />
<line x1="2850.0" y1="1786.0" x2="2926.0" y2="1786.0" stroke="black" stroke-width="30" />
<line x1="4331.0" y1="3125.0" x2="4447.0" y2="3125.0" stroke="black" stroke-width="30" />
<line x1="1325.0" y1="2530.0" x2="1413.0" y2="2530.0" stroke="black" stroke-width="30" />
<line x1="4420.0" y1="3125.0" x2="4536.0" y2="3125.0" stroke="black" stroke-width="30" />
<line x1="2917.0" y1="3302.0" x2="3033.0" y2="3302.0" stroke="black" stroke-width="30" />
<line x1="3182.0" y1="1802.0" x2="3269.0" y2="1802.0" stroke="black" stroke-width="30" />
<line x1="2885.0" y1="3302.0" x2="2973.0" y2="3302.0" stroke="black" stroke-width="30" />
<line x1="3699.0" y1="3243.0" x2="3813.0" y2="3243.0" stroke="black" stroke-width="30" />
<line x1="1159.0" y1="2867.0" x2="1282.0" y2="2867.0" stroke="black" stroke-width="30" />
<line x1="3897.0" y1="1744.0" x2="3967.0" y2="1744.0" stroke="black" stroke-width="30" />
<line x1="2558.0" y1="2545.0" x2="2661.0" y2="2545.0" stroke="black" stroke-width="30" />
<line x1="3699.0" y1="1885.0" x2="3772.0" y2="1885.0" stroke="black" stroke-width="30" />
<line x1="4539.005545799113" y1="1786.5768164269375" x2="4650.994454200887" y2="1784.4231835730625" stroke="black" stroke-width="30" />
<line x1="4070.0" y1="3125.0" x2="4186.0" y2="3125.0" stroke="black" stroke-width="30" />
<line x1="2743.0" y1="3302.0" x2="2840.0" y2="3302.0" stroke="black" stroke-width="30" />
<line x1="1967.0" y1="1979.0" x2="2083.0" y2="1979.0" stroke="black" stroke-width="30" />
<line x1="2997.0" y1="1802.0" x2="3072.0" y2="1802.0" stroke="black" stroke-width="30" />
<line x1="2410.0" y1="1786.0" x2="2487.0" y2="1786.0" stroke="black" stroke-width="30" />
<line x1="687.0" y1="1786.0" x2="765.0" y2="1786.0" stroke="black" stroke-width="30" />
<line x1="3912.0" y1="1713.0" x2="3988.0" y2="1713.0" stroke="black" stroke-width="30" />
<line x1="1032.0166527906276" y1="2529.0005550930255" x2="1121.9833472093724" y2="2531.9994449069745" stroke="black" stroke-width="30" />
<line x1="3154.1488842936988" y1="1633.9851115706288" x2="3223.8511157063012" y2="1627.0148884293712" stroke="black" stroke-width="30" />
<line x1="4854.0" y1="3251.0" x2="4854.0" y2="3367.0" stroke="black" stroke-width="30" />
<line x1="3800.0" y1="3226.0" x2="3916.0" y2="3226.0" stroke="black" stroke-width="30" />
<line x1="1161.0" y1="2848.0" x2="1280.0" y2="2848.0" stroke="black" stroke-width="30" />
<line x1="1379.0" y1="2549.0" x2="1452.0" y2="2549.0" stroke="black" stroke-width="30" />
<line x1="1855.0" y1="1786.0" x2="1925.0" y2="1786.0" stroke="black" stroke-width="30" />
<line x1="4413.0" y1="3302.0" x2="4505.0" y2="3302.0" stroke="black" stroke-width="30" />
<line x1="2014.0" y1="1786.0" x2="2114.0" y2="1786.0" stroke="black" stroke-width="30" />
<line x1="4200.0" y1="3125.0" x2="4316.0" y2="3125.0" stroke="black" stroke-width="30" />
<line x1="4369.0" y1="3344.0" x2="4485.0" y2="3344.0" stroke="black" stroke-width="30" />
<line x1="3958.0" y1="3244.0" x2="4043.0" y2="3244.0" stroke="black" stroke-width="30" />
<line x1="3804.0" y1="3285.0" x2="3920.0" y2="3285.0" stroke="black" stroke-width="30" />
<line x1="3509.0" y1="1817.0" x2="3582.0" y2="1817.0" stroke="black" stroke-width="30" />
<line x1="2433.0" y1="1538.0" x2="2507.0" y2="1538.0" stroke="black" stroke-width="30" />
<line x1="2160.0" y1="1815.0" x2="2230.0" y2="1815.0" stroke="black" stroke-width="30" />
<line x1="3521.0" y1="3344.0" x2="3609.0" y2="3344.0" stroke="black" stroke-width="30" />
<line x1="4693.0" y1="3125.0" x2="4809.0" y2="3125.0" stroke="black" stroke-width="30" />
<line x1="3345.0" y1="3430.0" x2="3345.0" y2="3332.0" stroke="black" stroke-width="30" />
<line x1="3312.0" y1="3226.0" x2="3421.0" y2="3226.0" stroke="black" stroke-width="30" />
<line x1="4207.0" y1="3400.0" x2="4321.0" y2="3400.0" stroke="black" stroke-width="30" />
<line x1="4500.0" y1="3125.0" x2="4616.0" y2="3125.0" stroke="black" stroke-width="30" />
<line x1="3045.0" y1="3226.0" x2="3156.0" y2="3226.0" stroke="black" stroke-width="30" />
<line x1="4171.0" y1="3244.0" x2="4259.0" y2="3244.0" stroke="black" stroke-width="30" />
<line x1="427.0" y1="1786.0" x2="527.0" y2="1786.0" stroke="black" stroke-width="30" />
<line x1="1505.0" y1="1874.0" x2="1576.0" y2="1874.0" stroke="black" stroke-width="30" />
<line x1="3605.0" y1="3226.0" x2="3721.0" y2="3226.0" stroke="black" stroke-width="30" />
<line x1="4386.0" y1="1786.0" x2="4472.0" y2="1786.0" stroke="black" stroke-width="30" />
<line x1="3492.0" y1="3429.0" x2="3492.0" y2="3333.0" stroke="black" stroke-width="30" />
<line x1="3991.0" y1="3125.0" x2="4107.0" y2="3125.0" stroke="black" stroke-width="30" />
<line x1="1767.0" y1="1844.0" x2="1840.0" y2="1844.0" stroke="black" stroke-width="30" />
<line x1="3795.0" y1="3344.0" x2="3911.0" y2="3344.0" stroke="black" stroke-width="30" />
<line x1="3054.309452868454" y1="2582.233443932024" x2="3147.690547131546" y2="2610.766556067976" stroke="black" stroke-width="30" />
<line x1="3913.0" y1="3125.0" x2="4013.0" y2="3125.0" stroke="black" stroke-width="30" />
<line x1="3528.0" y1="3243.0" x2="3636.0" y2="3243.0" stroke="black" stroke-width="30" />
<line x1="3033.0" y1="1524.0" x2="3114.0" y2="1524.0" stroke="black" stroke-width="30" />
<line x1="1159.0" y1="1696.0" x2="1232.0" y2="1696.0" stroke="black" stroke-width="30" />
<line x1="1586.0" y1="2527.0" x2="1659.0" y2="2527.0" stroke="black" stroke-width="30" />
<line x1="3486.0" y1="3243.0" x2="3587.0" y2="3243.0" stroke="black" stroke-width="30" />
<line x1="1772.0" y1="1786.0" x2="1848.0" y2="1786.0" stroke="black" stroke-width="30" />
<line x1="1875.0" y1="1786.0" x2="1945.0" y2="1786.0" stroke="black" stroke-width="30" />
<line x1="4272.0" y1="3125.0" x2="4388.0" y2="3125.0" stroke="black" stroke-width="30" />
<line x1="2880.0" y1="1691.0" x2="2978.0" y2="1691.0" stroke="black" stroke-width="30" />
<line x1="4109.0" y1="1802.0" x2="4194.0" y2="1802.0" stroke="black" stroke-width="30" />
<line x1="3362.0" y1="3373.0" x2="3362.0" y2="3274.0" stroke="black" stroke-width="30" />
<line x1="3093.0044579835367" y1="1944.5171645175278" x2="3210.9955420164633" y2="1942.4828354824722" stroke="black" stroke-width="30" />
<line x1="2932.0" y1="3226.0" x2="3048.0" y2="3226.0" stroke="black" stroke-width="30" />
<line x1="3028.0040303620835" y1="1977.5082627928218" x2="3148.9959696379165" y2="1979.4917372071782" stroke="black" stroke-width="30" />
<line x1="3435.0" y1="3226.0" x2="3544.0" y2="3226.0" stroke="black" stroke-width="30" />
<line x1="758.0" y1="2530.0" x2="869.0" y2="2530.0" stroke="black" stroke-width="30" />
<line x1="1297.0" y1="2900.0" x2="1297.0" y2="2815.0" stroke="black" stroke-width="30" />
<line x1="335.0" y1="3142.0" x2="435.0" y2="3142.0" stroke="black" stroke-width="30" />
</svg>