<svg width="4961" height="3508" xmlns="http://www.w3.org/2000/svg"><line x1="3942" y1="3400" x2="4160" y2="3400" stroke="black" stroke-width="2" />
<line x1="224" y1="97" x2="4855" y2="97" stroke="black" stroke-width="2" />
<line x1="211" y1="82" x2="4868" y2="82" stroke="black" stroke-width="2" />
<line x1="4877" y1="3409" x2="4877" y2="98" stroke="black" stroke-width="2" />
<line x1="218" y1="3423" x2="4861" y2="3423" stroke="black" stroke-width="2" />
<line x1="201" y1="3414" x2="201" y2="92" stroke="black" stroke-width="2" />
<line x1="224" y1="3399" x2="224" y2="98" stroke="black" stroke-width="2" />
<line x1="458" y1="1802" x2="746" y2="1802" stroke="black" stroke-width="2" />
<line x1="3914" y1="1786" x2="4196" y2="1786" stroke="black" stroke-width="2" />
<line x1="4854" y1="3108" x2="4854" y2="100" stroke="black" stroke-width="2" />
<line x1="2703" y1="3125" x2="3923" y2="3125" stroke="black" stroke-width="2" />
<line x1="3942" y1="3226" x2="4854" y2="3226" stroke="black" stroke-width="2" />
<line x1="2692" y1="3108" x2="4853" y2="3108" stroke="black" stroke-width="2" />
<line x1="1861" y1="2530" x2="2298" y2="2530" stroke="black" stroke-width="2" />
<line x1="2702" y1="3285" x2="3345" y2="3285" stroke="black" stroke-width="2" />
<line x1="635" y1="2545" x2="841" y2="2545" stroke="black" stroke-width="2" />
<line x1="3943" y1="3302" x2="4336" y2="3302" stroke="black" stroke-width="2" />
<line x1="316" y1="3326" x2="1881" y2="3326" stroke="black" stroke-width="2" />
<line x1="3363" y1="3344" x2="3475" y2="3344" stroke="black" stroke-width="2" />
<line x1="328" y1="2664" x2="1869" y2="2664" stroke="black" stroke-width="2" />
<line x1="327" y1="3311" x2="1870" y2="3311" stroke="black" stroke-width="2" />
<line x1="3494" y1="3361" x2="3923" y2="3361" stroke="black" stroke-width="2" />
<line x1="318" y1="2649" x2="1879" y2="2649" stroke="black" stroke-width="2" />
<line x1="3364" y1="3243" x2="3474" y2="3243" stroke="black" stroke-width="2" />
<line x1="2421" y1="1566" x2="3089" y2="1566" stroke="black" stroke-width="2" />
<line x1="2087" y1="1963" x2="2396" y2="1963" stroke="black" stroke-width="2" />
<line x1="2749" y1="1979" x2="3010" y2="1979" stroke="black" stroke-width="2" />
<line x1="4356" y1="3244" x2="4453" y2="3244" stroke="black" stroke-width="2" />
<line x1="3942" y1="3167" x2="4854" y2="3167" stroke="black" stroke-width="2" />
<line x1="2087" y1="2011" x2="2732" y2="2011" stroke="black" stroke-width="2" />
<line x1="225" y1="3400" x2="2684" y2="3400" stroke="black" stroke-width="2" />
<line x1="3943" y1="3184" x2="4853" y2="3184" stroke="black" stroke-width="2" />
<line x1="2088" y1="1860" x2="2684" y2="1860" stroke="black" stroke-width="2" />
<line x1="311" y1="3320" x2="311" y2="2656" stroke="black" stroke-width="2" />
<line x1="1885" y1="3322" x2="1885" y2="2654" stroke="black" stroke-width="2" />
<line x1="1892" y1="1550" x2="2209" y2="1550" stroke="black" stroke-width="2" />
<line x1="2078" y1="1845" x2="2741" y2="1845" stroke="black" stroke-width="2" />
<line x1="326" y1="3310" x2="326" y2="2666" stroke="black" stroke-width="2" />
<line x1="1870" y1="3310" x2="1870" y2="2665" stroke="black" stroke-width="2" />
<line x1="2076" y1="2026" x2="2743" y2="2026" stroke="black" stroke-width="2" />
<line x1="2702" y1="3344" x2="3345" y2="3344" stroke="black" stroke-width="2" />
<line x1="2356" y1="1774" x2="2381" y2="1774" stroke="black" stroke-width="2" />
<line x1="1307" y1="1802" x2="1419" y2="1802" stroke="black" stroke-width="2" />
<line x1="2643" y1="1538" x2="2668" y2="1538" stroke="black" stroke-width="2" />
<line x1="1896" y1="1786" x2="2197" y2="1786" stroke="black" stroke-width="2" />
<line x1="1862" y1="2545" x2="2300" y2="2545" stroke="black" stroke-width="2" />
<line x1="2229" y1="1110" x2="2590" y2="1110" stroke="black" stroke-width="2" />
<line x1="2231" y1="962" x2="2588" y2="962" stroke="black" stroke-width="2" />
<line x1="3494" y1="3243" x2="3923" y2="3243" stroke="black" stroke-width="2" />
<line x1="2242" y1="979" x2="2577" y2="979" stroke="black" stroke-width="2" />
<line x1="2241" y1="1093" x2="2578" y2="1093" stroke="black" stroke-width="2" />
<line x1="3093" y1="1802" x2="3274" y2="1802" stroke="black" stroke-width="2" />
<line x1="2572" y1="1774" x2="2597" y2="1774" stroke="black" stroke-width="2" />
<line x1="2144" y1="1815" x2="2172" y2="1815" stroke="black" stroke-width="2" />
<line x1="2684" y1="3399" x2="2684" y2="3116" stroke="black" stroke-width="2" />
<line x1="2072" y1="1578" x2="2101" y2="1578" stroke="black" stroke-width="2" />
<line x1="2249" y1="1538" x2="2272" y2="1538" stroke="black" stroke-width="2" />
<line x1="2314" y1="2093" x2="2576" y2="2093" stroke="black" stroke-width="2" />
<line x1="2324" y1="2108" x2="2566" y2="2108" stroke="black" stroke-width="2" />
<line x1="4593" y1="3244" x2="4738" y2="3244" stroke="black" stroke-width="2" />
<line x1="4383" y1="1802" x2="4439" y2="1802" stroke="black" stroke-width="2" />
<line x1="1964" y1="1815" x2="1992" y2="1815" stroke="black" stroke-width="2" />
<line x1="1447" y1="1784" x2="1625" y2="1566" stroke="black" stroke-width="2" />
<line x1="2312" y1="2239" x2="2578" y2="2239" stroke="black" stroke-width="2" />
<line x1="2323" y1="2224" x2="2567" y2="2224" stroke="black" stroke-width="2" />
<line x1="1731" y1="1786" x2="1787" y2="1786" stroke="black" stroke-width="2" />
<line x1="2500" y1="1774" x2="2525" y2="1774" stroke="black" stroke-width="2" />
<line x1="3924" y1="3226" x2="3924" y2="3126" stroke="black" stroke-width="2" />
<line x1="2499" y1="1538" x2="2524" y2="1538" stroke="black" stroke-width="2" />
<line x1="1424" y1="1786" x2="1615" y2="1552" stroke="black" stroke-width="2" />
<line x1="1699" y1="1802" x2="1870" y2="1802" stroke="black" stroke-width="2" />
<line x1="4180" y1="2530" x2="4429" y2="2530" stroke="black" stroke-width="2" />
<line x1="3097" y1="1786" x2="3153" y2="1786" stroke="black" stroke-width="2" />
<line x1="3889" y1="1802" x2="3945" y2="1802" stroke="black" stroke-width="2" />
<line x1="2866" y1="1858" x2="2920" y2="1804" stroke="black" stroke-width="2" />
<line x1="2509" y1="1802" x2="2565" y2="1802" stroke="black" stroke-width="2" />
<line x1="1482" y1="1834" x2="1531" y2="1834" stroke="black" stroke-width="2" />
<line x1="3090" y1="1567" x2="3237" y2="1749" stroke="black" stroke-width="2" />
<line x1="3098" y1="1551" x2="3288" y2="1786" stroke="black" stroke-width="2" />
<line x1="4281" y1="1802" x2="4332" y2="1802" stroke="black" stroke-width="2" />
<line x1="2701" y1="3225" x2="2701" y2="3127" stroke="black" stroke-width="2" />
<line x1="3941" y1="3399" x2="3941" y2="3363" stroke="black" stroke-width="2" />
<line x1="4520" y1="1786" x2="4576" y2="1786" stroke="black" stroke-width="2" />
<line x1="2703" y1="3302" x2="3344" y2="3302" stroke="black" stroke-width="2" />
<line x1="3719" y1="1802" x2="3775" y2="1802" stroke="black" stroke-width="2" />
<line x1="4330" y1="1786" x2="4386" y2="1786" stroke="black" stroke-width="2" />
<line x1="2905" y1="2531" x2="2934" y2="2531" stroke="black" stroke-width="2" />
<line x1="2535" y1="1538" x2="2560" y2="1538" stroke="black" stroke-width="2" />
<line x1="1482" y1="1786" x2="1538" y2="1786" stroke="black" stroke-width="2" />
<line x1="2536" y1="1774" x2="2561" y2="1774" stroke="black" stroke-width="2" />
<line x1="4176" y1="2544" x2="4235" y2="2545" stroke="black" stroke-width="2" />
<line x1="4179" y1="3361" x2="4573" y2="3361" stroke="black" stroke-width="2" />
<line x1="3326" y1="2545" x2="3362" y2="2545" stroke="black" stroke-width="2" />
<line x1="1964" y1="1578" x2="1993" y2="1578" stroke="black" stroke-width="2" />
<line x1="2979" y1="1550" x2="3035" y2="1550" stroke="black" stroke-width="2" />
<line x1="2534" y1="2545" x2="2590" y2="2545" stroke="black" stroke-width="2" />
<line x1="1713" y1="1833" x2="1769" y2="1833" stroke="black" stroke-width="2" />
<line x1="2275" y1="1802" x2="2308" y2="1802" stroke="black" stroke-width="2" />
<line x1="4756" y1="3399" x2="4756" y2="3246" stroke="black" stroke-width="2" />
<line x1="659" y1="1786" x2="715" y2="1786" stroke="black" stroke-width="2" />
<line x1="1755" y1="2546" x2="1819" y2="2546" stroke="black" stroke-width="2" />
<line x1="4254" y1="2545" x2="4310" y2="2545" stroke="black" stroke-width="2" />
<line x1="2633" y1="1802" x2="2689" y2="1802" stroke="black" stroke-width="2" />
<line x1="3668" y1="1786" x2="3724" y2="1786" stroke="black" stroke-width="2" />
<line x1="646" y1="1703" x2="660" y2="1703" stroke="black" stroke-width="2" />
<line x1="1022" y1="1786" x2="1078" y2="1786" stroke="black" stroke-width="2" />
<line x1="533" y1="1786" x2="562" y2="1786" stroke="black" stroke-width="2" />
<line x1="2357" y1="1802" x2="2398" y2="1802" stroke="black" stroke-width="2" />
<line x1="3233" y1="1944" x2="3263" y2="1944" stroke="black" stroke-width="2" />
<line x1="2864" y1="1786" x2="2920" y2="1786" stroke="black" stroke-width="2" />
<line x1="2726" y1="1802" x2="2754" y2="1802" stroke="black" stroke-width="2" />
<line x1="2223" y1="1103" x2="2223" y2="970" stroke="black" stroke-width="2" />
<line x1="4591" y1="3399" x2="4591" y2="3246" stroke="black" stroke-width="2" />
<line x1="3457" y1="1786" x2="3513" y2="1786" stroke="black" stroke-width="2" />
<line x1="3343" y1="1786" x2="3399" y2="1786" stroke="black" stroke-width="2" />
<line x1="3627" y1="1802" x2="3683" y2="1802" stroke="black" stroke-width="2" />
<line x1="4337" y1="1878" x2="4337" y2="1830" stroke="black" stroke-width="2" />
<line x1="2736" y1="2530" x2="2792" y2="2530" stroke="black" stroke-width="2" />
<line x1="2604" y1="2530" x2="2660" y2="2530" stroke="black" stroke-width="2" />
<line x1="4069" y1="1802" x2="4125" y2="1802" stroke="black" stroke-width="2" />
<line x1="2086" y1="1962" x2="2086" y2="1862" stroke="black" stroke-width="2" />
<line x1="1233" y1="2556" x2="1259" y2="2556" stroke="black" stroke-width="2" />
<line x1="2187" y1="1815" x2="2208" y2="1815" stroke="black" stroke-width="2" />
<line x1="4739" y1="3400" x2="4739" y2="3245" stroke="black" stroke-width="2" />
<line x1="2788" y1="1774" x2="2813" y2="1774" stroke="black" stroke-width="2" />
<line x1="1343" y1="1777" x2="1355" y2="1777" stroke="black" stroke-width="2" />
<line x1="2088" y1="1979" x2="2398" y2="1979" stroke="black" stroke-width="2" />
<line x1="1476" y1="1872" x2="1535" y2="1872" stroke="black" stroke-width="2" />
<line x1="2071" y1="1963" x2="2071" y2="1852" stroke="black" stroke-width="2" />
<line x1="2144" y1="1578" x2="2173" y2="1578" stroke="black" stroke-width="2" />
<line x1="1155" y1="1786" x2="1201" y2="1786" stroke="black" stroke-width="2" />
<line x1="3362" y1="3399" x2="3362" y2="3363" stroke="black" stroke-width="2" />
<line x1="2679" y1="1538" x2="2704" y2="1538" stroke="black" stroke-width="2" />
<line x1="1144" y1="1720" x2="1161" y2="1720" stroke="black" stroke-width="2" />
<line x1="3888" y1="1756" x2="3907" y2="1756" stroke="black" stroke-width="2" />
<line x1="3436" y1="2530" x2="3492" y2="2530" stroke="black" stroke-width="2" />
<line x1="3790" y1="3226" x2="3846" y2="3226" stroke="black" stroke-width="2" />
<line x1="2582" y1="2235" x2="2582" y2="2098" stroke="black" stroke-width="2" />
<line x1="2450" y1="2545" x2="2506" y2="2545" stroke="black" stroke-width="2" />
<line x1="4355" y1="3285" x2="4387" y2="3285" stroke="black" stroke-width="2" />
<line x1="4108" y1="3244" x2="4164" y2="3244" stroke="black" stroke-width="2" />
<line x1="3738" y1="1786" x2="3794" y2="1786" stroke="black" stroke-width="2" />
<line x1="2906" y1="1731" x2="2983" y2="1731" stroke="black" stroke-width="2" />
<line x1="1214" y1="1786" x2="1242" y2="1786" stroke="black" stroke-width="2" />
<line x1="1892" y1="1815" x2="1920" y2="1815" stroke="black" stroke-width="2" />
<line x1="3002" y1="3226" x2="3058" y2="3226" stroke="black" stroke-width="2" />
<line x1="3370" y1="3285" x2="3426" y2="3285" stroke="black" stroke-width="2" />
<line x1="1062" y1="1820" x2="1075" y2="1820" stroke="black" stroke-width="2" />
<line x1="2792" y1="2545" x2="2827" y2="2545" stroke="black" stroke-width="2" />
<line x1="1195" y1="1679" x2="1239" y2="1679" stroke="black" stroke-width="2" />
<line x1="992" y1="1802" x2="1048" y2="1802" stroke="black" stroke-width="2" />
<line x1="1781" y1="2531" x2="1818" y2="2531" stroke="black" stroke-width="2" />
<line x1="1543" y1="1845" x2="1563" y2="1845" stroke="black" stroke-width="2" />
<line x1="3492" y1="3399" x2="3492" y2="3363" stroke="black" stroke-width="2" />
<line x1="2964" y1="1786" x2="3007" y2="1786" stroke="black" stroke-width="2" />
<line x1="2784" y1="1962" x2="2920" y2="1827" stroke="black" stroke-width="2" />
<line x1="3603" y1="1786" x2="3659" y2="1786" stroke="black" stroke-width="2" />
<line x1="4496" y1="3302" x2="4552" y2="3302" stroke="black" stroke-width="2" />
<line x1="4260" y1="3244" x2="4316" y2="3244" stroke="black" stroke-width="2" />
<line x1="2478" y1="1802" x2="2508" y2="1802" stroke="black" stroke-width="2" />
<line x1="1970" y1="1979" x2="2023" y2="1979" stroke="black" stroke-width="2" />
<line x1="3835" y1="1812" x2="3847" y2="1812" stroke="black" stroke-width="2" />
<line x1="924" y1="1786" x2="980" y2="1786" stroke="black" stroke-width="2" />
<line x1="2464" y1="1774" x2="2489" y2="1774" stroke="black" stroke-width="2" />
<line x1="2787" y1="1538" x2="2812" y2="1538" stroke="black" stroke-width="2" />
<line x1="3475" y1="3400" x2="3475" y2="3362" stroke="black" stroke-width="2" />
<line x1="379" y1="3142" x2="405" y2="3142" stroke="black" stroke-width="2" />
<line x1="2440" y1="1786" x2="2457" y2="1786" stroke="black" stroke-width="2" />
<line x1="3958" y1="1802" x2="4014" y2="1802" stroke="black" stroke-width="2" />
<line x1="1208" y1="1743" x2="1242" y2="1743" stroke="black" stroke-width="2" />
<line x1="4498" y1="3285" x2="4554" y2="3285" stroke="black" stroke-width="2" />
<line x1="4333" y1="1802" x2="4374" y2="1802" stroke="black" stroke-width="2" />
<line x1="4347" y1="1821" x2="4392" y2="1821" stroke="black" stroke-width="2" />
<line x1="3124" y1="1903" x2="3177" y2="1903" stroke="black" stroke-width="2" />
<line x1="1766" y1="1550" x2="1829" y2="1549" stroke="black" stroke-width="2" />
<line x1="2738" y1="3226" x2="2766" y2="3226" stroke="black" stroke-width="2" />
<line x1="2258" y1="1774" x2="2273" y2="1774" stroke="black" stroke-width="2" />
<line x1="2307" y1="2233" x2="2307" y2="2100" stroke="black" stroke-width="2" />
<line x1="1489" y1="1802" x2="1545" y2="1802" stroke="black" stroke-width="2" />
<line x1="1670" y1="1786" x2="1726" y2="1786" stroke="black" stroke-width="2" />
<line x1="2915" y1="1963" x2="3008" y2="1963" stroke="black" stroke-width="2" />
<line x1="2595" y1="1105" x2="2595" y2="968" stroke="black" stroke-width="2" />
<line x1="4574" y1="3285" x2="4574" y2="3245" stroke="black" stroke-width="2" />
<line x1="2567" y1="2223" x2="2567" y2="2109" stroke="black" stroke-width="2" />
<line x1="1101" y1="1735" x2="1120" y2="1735" stroke="black" stroke-width="2" />
<line x1="4163" y1="1802" x2="4197" y2="1802" stroke="black" stroke-width="2" />
<line x1="4758" y1="3244" x2="4798" y2="3244" stroke="black" stroke-width="2" />
<line x1="2528" y1="2530" x2="2584" y2="2530" stroke="black" stroke-width="2" />
<line x1="2725" y1="3243" x2="2781" y2="3243" stroke="black" stroke-width="2" />
<line x1="3941" y1="3284" x2="3941" y2="3246" stroke="black" stroke-width="2" />
<line x1="446" y1="3180" x2="446" y2="3148" stroke="black" stroke-width="2" />
<line x1="2772" y1="1813" x2="2785" y2="1813" stroke="black" stroke-width="2" />
<line x1="2732" y1="1963" x2="2732" y2="1887" stroke="black" stroke-width="2" />
<line x1="3493" y1="3285" x2="3522" y2="3285" stroke="black" stroke-width="2" />
<line x1="364" y1="2853" x2="463" y2="2853" stroke="black" stroke-width="2" />
<line x1="2798" y1="1802" x2="2818" y2="1802" stroke="black" stroke-width="2" />
<line x1="3001" y1="1802" x2="3029" y2="1802" stroke="black" stroke-width="2" />
<line x1="2515" y1="1963" x2="2566" y2="1963" stroke="black" stroke-width="2" />
<line x1="3286" y1="1785" x2="3342" y2="1786" stroke="black" stroke-width="2" />
<line x1="1603" y1="1802" x2="1656" y2="1802" stroke="black" stroke-width="2" />
<line x1="2724" y1="2545" x2="2780" y2="2545" stroke="black" stroke-width="2" />
<line x1="365" y1="2872" x2="461" y2="2872" stroke="black" stroke-width="2" />
<line x1="3445" y1="3285" x2="3475" y2="3285" stroke="black" stroke-width="2" />
<line x1="3776" y1="1802" x2="3817" y2="1802" stroke="black" stroke-width="2" />
<line x1="3943" y1="1732" x2="3960" y2="1732" stroke="black" stroke-width="2" />
<line x1="362" y1="2818" x2="391" y2="2818" stroke="black" stroke-width="2" />
<line x1="4474" y1="3244" x2="4524" y2="3244" stroke="black" stroke-width="2" />
<line x1="2309" y1="1802" x2="2350" y2="1802" stroke="black" stroke-width="2" />
<line x1="3345" y1="3400" x2="3345" y2="3362" stroke="black" stroke-width="2" />
<line x1="2029" y1="1963" x2="2057" y2="1963" stroke="black" stroke-width="2" />
<line x1="4209" y1="1767" x2="4252" y2="1767" stroke="black" stroke-width="2" />
<line x1="2578" y1="1092" x2="2578" y2="980" stroke="black" stroke-width="2" />
<line x1="3386" y1="1812" x2="3399" y2="1812" stroke="black" stroke-width="2" />
<line x1="2444" y1="2530" x2="2500" y2="2530" stroke="black" stroke-width="2" />
<line x1="4354" y1="3284" x2="4354" y2="3246" stroke="black" stroke-width="2" />
<line x1="3514" y1="3226" x2="3570" y2="3226" stroke="black" stroke-width="2" />
<line x1="1874" y1="1578" x2="1885" y2="1578" stroke="black" stroke-width="2" />
<line x1="648" y1="1720" x2="664" y2="1720" stroke="black" stroke-width="2" />
<line x1="362" y1="2889" x2="463" y2="2889" stroke="black" stroke-width="2" />
<line x1="1179" y1="1802" x2="1235" y2="1802" stroke="black" stroke-width="2" />
<line x1="2822" y1="1538" x2="2847" y2="1538" stroke="black" stroke-width="2" />
<line x1="1921" y1="1814" x2="1956" y2="1815" stroke="black" stroke-width="2" />
<line x1="3797" y1="1786" x2="3845" y2="1786" stroke="black" stroke-width="2" />
<line x1="703" y1="2530" x2="759" y2="2530" stroke="black" stroke-width="2" />
<line x1="1285" y1="2556" x2="1329" y2="2556" stroke="black" stroke-width="2" />
<line x1="3479" y1="1802" x2="3507" y2="1802" stroke="black" stroke-width="2" />
<line x1="2088" y1="1802" x2="2104" y2="1802" stroke="black" stroke-width="2" />
<line x1="1053" y1="2545" x2="1091" y2="2545" stroke="black" stroke-width="2" />
<line x1="1705" y1="1873" x2="1782" y2="1873" stroke="black" stroke-width="2" />
<line x1="2322" y1="2223" x2="2322" y2="2110" stroke="black" stroke-width="2" />
<line x1="3508" y1="1802" x2="3528" y2="1803" stroke="black" stroke-width="2" />
<line x1="1707" y1="1550" x2="1763" y2="1550" stroke="black" stroke-width="2" />
<line x1="2818" y1="1963" x2="2873" y2="1963" stroke="black" stroke-width="2" />
<line x1="4396" y1="1844" x2="4420" y2="1844" stroke="black" stroke-width="2" />
<line x1="1746" y1="1496" x2="1780" y2="1496" stroke="black" stroke-width="2" />
<line x1="3770" y1="2530" x2="3826" y2="2530" stroke="black" stroke-width="2" />
<line x1="2108" y1="1578" x2="2137" y2="1578" stroke="black" stroke-width="2" />
<line x1="2747" y1="1867" x2="2747" y2="1850" stroke="black" stroke-width="2" />
<line x1="2421" y1="1802" x2="2461" y2="1802" stroke="black" stroke-width="2" />
<line x1="3067" y1="1539" x2="3079" y2="1539" stroke="black" stroke-width="2" />
<line x1="2774" y1="1950" x2="2835" y2="1889" stroke="black" stroke-width="2" />
<line x1="2240" y1="1092" x2="2240" y2="981" stroke="black" stroke-width="2" />
<line x1="4441" y1="3302" x2="4459" y2="3302" stroke="black" stroke-width="2" />
<line x1="4386" y1="2545" x2="4431" y2="2545" stroke="black" stroke-width="2" />
<line x1="2910" y1="1691" x2="2948" y2="1691" stroke="black" stroke-width="2" />
<line x1="2881" y1="3243" x2="2937" y2="3243" stroke="black" stroke-width="2" />
<line x1="1588" y1="1786" x2="1616" y2="1786" stroke="black" stroke-width="2" />
<line x1="1618" y1="1550" x2="1657" y2="1550" stroke="black" stroke-width="2" />
<line x1="3280" y1="1823" x2="3299" y2="1824" stroke="black" stroke-width="2" />
<line x1="2921" y1="1786" x2="2963" y2="1786" stroke="black" stroke-width="2" />
<line x1="4495" y1="3344" x2="4509" y2="3344" stroke="black" stroke-width="2" />
<line x1="929" y1="1802" x2="985" y2="1802" stroke="black" stroke-width="2" />
<line x1="968" y1="1839" x2="984" y2="1839" stroke="black" stroke-width="2" />
<line x1="4165" y1="3244" x2="4215" y2="3244" stroke="black" stroke-width="2" />
<line x1="1617" y1="1786" x2="1669" y2="1786" stroke="black" stroke-width="2" />
<line x1="3279" y1="1938" x2="3290" y2="1937" stroke="black" stroke-width="2" />
<line x1="4577" y1="1786" x2="4621" y2="1785" stroke="black" stroke-width="2" />
<line x1="1708" y1="1455" x2="1734" y2="1455" stroke="black" stroke-width="2" />
<line x1="4398" y1="3285" x2="4454" y2="3285" stroke="black" stroke-width="2" />
<line x1="3553" y1="1816" x2="3588" y2="1816" stroke="black" stroke-width="2" />
<line x1="1097" y1="1769" x2="1112" y2="1770" stroke="black" stroke-width="2" />
<line x1="2320" y1="1774" x2="2345" y2="1774" stroke="black" stroke-width="2" />
<line x1="2355" y1="1538" x2="2380" y2="1538" stroke="black" stroke-width="2" />
<line x1="3178" y1="1677" x2="3265" y2="1785" stroke="black" stroke-width="2" />
<line x1="366" y1="2838" x2="461" y2="2838" stroke="black" stroke-width="2" />
<line x1="401" y1="2801" x2="425" y2="2801" stroke="black" stroke-width="2" />
<line x1="1250" y1="1730" x2="1300" y2="1730" stroke="black" stroke-width="2" />
<line x1="2825" y1="1802" x2="2843" y2="1802" stroke="black" stroke-width="2" />
<line x1="1674" y1="1812" x2="1686" y2="1812" stroke="black" stroke-width="2" />
<line x1="3032" y1="1786" x2="3088" y2="1786" stroke="black" stroke-width="2" />
<line x1="2566" y1="1802" x2="2612" y2="1802" stroke="black" stroke-width="2" />
<line x1="1249" y1="1692" x2="1295" y2="1692" stroke="black" stroke-width="2" />
<line x1="3196" y1="1609" x2="3274" y2="1609" stroke="black" stroke-width="2" />
<line x1="3776" y1="2545" x2="3804" y2="2545" stroke="black" stroke-width="2" />
<line x1="2955" y1="3243" x2="2969" y2="3243" stroke="black" stroke-width="2" />
<line x1="4383" y1="1837" x2="4394" y2="1836" stroke="black" stroke-width="2" />
<line x1="457" y1="1786" x2="502" y2="1786" stroke="black" stroke-width="2" />
<line x1="4443" y1="1756" x2="4462" y2="1756" stroke="black" stroke-width="2" />
<line x1="1030" y1="2530" x2="1092" y2="2529" stroke="black" stroke-width="2" />
<line x1="2614" y1="2545" x2="2670" y2="2545" stroke="black" stroke-width="2" />
<line x1="2935" y1="3226" x2="2953" y2="3226" stroke="black" stroke-width="2" />
<line x1="1793" y1="1483" x2="1809" y2="1483" stroke="black" stroke-width="2" />
<line x1="3304" y1="1944" x2="3334" y2="1944" stroke="black" stroke-width="2" />
<line x1="3664" y1="2545" x2="3720" y2="2545" stroke="black" stroke-width="2" />
<line x1="4027" y1="3285" x2="4045" y2="3285" stroke="black" stroke-width="2" />
<line x1="1004" y1="2545" x2="1052" y2="2545" stroke="black" stroke-width="2" />
<line x1="2024" y1="1979" x2="2050" y2="1979" stroke="black" stroke-width="2" />
<line x1="2713" y1="1715" x2="2734" y2="1715" stroke="black" stroke-width="2" />
<line x1="1714" y1="2556" x2="1749" y2="2556" stroke="black" stroke-width="2" />
<line x1="944" y1="2530" x2="1000" y2="2530" stroke="black" stroke-width="2" />
<line x1="2430" y1="1963" x2="2486" y2="1963" stroke="black" stroke-width="2" />
<line x1="2456" y1="1979" x2="2512" y2="1979" stroke="black" stroke-width="2" />
<line x1="3412" y1="1802" x2="3446" y2="1802" stroke="black" stroke-width="2" />
<line x1="1162" y1="2530" x2="1218" y2="2530" stroke="black" stroke-width="2" />
<line x1="3880" y1="2530" x2="3928" y2="2530" stroke="black" stroke-width="2" />
<line x1="2205" y1="1769" x2="2231" y2="1769" stroke="black" stroke-width="2" />
<line x1="825" y1="1787" x2="885" y2="1786" stroke="black" stroke-width="2" />
<line x1="1493" y1="1945" x2="1554" y2="1945" stroke="black" stroke-width="2" />
<line x1="2608" y1="1963" x2="2653" y2="1963" stroke="black" stroke-width="2" />
<line x1="1260" y1="2557" x2="1272" y2="2557" stroke="black" stroke-width="2" />
<line x1="1491" y1="1985" x2="1526" y2="1985" stroke="black" stroke-width="2" />
<line x1="2238" y1="1820" x2="2268" y2="1820" stroke="black" stroke-width="2" />
<line x1="3906" y1="2545" x2="3962" y2="2545" stroke="black" stroke-width="2" />
<line x1="1674" y1="1541" x2="1685" y2="1541" stroke="black" stroke-width="2" />
<line x1="1409" y1="2549" x2="1422" y2="2549" stroke="black" stroke-width="2" />
<line x1="2747" y1="1915" x2="2764" y2="1916" stroke="black" stroke-width="2" />
<line x1="1298" y1="2523" x2="1324" y2="2523" stroke="black" stroke-width="2" />
<line x1="3387" y1="3302" x2="3443" y2="3302" stroke="black" stroke-width="2" />
<line x1="4424" y1="3302" x2="4440" y2="3302" stroke="black" stroke-width="2" />
<line x1="2878" y1="1514" x2="2894" y2="1515" stroke="black" stroke-width="2" />
<line x1="3736" y1="2530" x2="3769" y2="2530" stroke="black" stroke-width="2" />
<line x1="4475" y1="1802" x2="4531" y2="1802" stroke="black" stroke-width="2" />
<line x1="3420" y1="1786" x2="3448" y2="1786" stroke="black" stroke-width="2" />
<line x1="3346" y1="2530" x2="3374" y2="2530" stroke="black" stroke-width="2" />
<line x1="4553" y1="3302" x2="4573" y2="3302" stroke="black" stroke-width="2" />
<line x1="825" y1="1802" x2="880" y2="1802" stroke="black" stroke-width="2" />
<line x1="1763" y1="2531" x2="1780" y2="2531" stroke="black" stroke-width="2" />
<line x1="4027" y1="2530" x2="4083" y2="2530" stroke="black" stroke-width="2" />
<line x1="4599" y1="1802" x2="4620" y2="1802" stroke="black" stroke-width="2" />
<line x1="2000" y1="1815" x2="2028" y2="1815" stroke="black" stroke-width="2" />
<line x1="2977" y1="1802" x2="3000" y2="1802" stroke="black" stroke-width="2" />
<line x1="1539" y1="1786" x2="1559" y2="1786" stroke="black" stroke-width="2" />
<line x1="2922" y1="1898" x2="2932" y2="1898" stroke="black" stroke-width="2" />
<line x1="657" y1="2530" x2="702" y2="2530" stroke="black" stroke-width="2" />
<line x1="2319" y1="1538" x2="2344" y2="1538" stroke="black" stroke-width="2" />
<line x1="3741" y1="1821" x2="3755" y2="1821" stroke="black" stroke-width="2" />
<line x1="1068" y1="1802" x2="1124" y2="1802" stroke="black" stroke-width="2" />
<line x1="3592" y1="3344" x2="3620" y2="3344" stroke="black" stroke-width="2" />
<line x1="2932" y1="1484" x2="3007" y2="1483" stroke="black" stroke-width="2" />
<line x1="3611" y1="3302" x2="3667" y2="3302" stroke="black" stroke-width="2" />
<line x1="3687" y1="1834" x2="3715" y2="1834" stroke="black" stroke-width="2" />
<line x1="3226" y1="3243" x2="3282" y2="3243" stroke="black" stroke-width="2" />
<line x1="3821" y1="2545" x2="3836" y2="2545" stroke="black" stroke-width="2" />
<line x1="3812" y1="1861" x2="3829" y2="1861" stroke="black" stroke-width="2" />
<line x1="1450" y1="1914" x2="1480" y2="1914" stroke="black" stroke-width="2" />
<line x1="2680" y1="1774" x2="2705" y2="1774" stroke="black" stroke-width="2" />
<line x1="2607" y1="1538" x2="2632" y2="1538" stroke="black" stroke-width="2" />
<line x1="2906" y1="1548" x2="2920" y2="1548" stroke="black" stroke-width="2" />
<line x1="2238" y1="1584" x2="2268" y2="1584" stroke="black" stroke-width="2" />
<line x1="2010" y1="1578" x2="2029" y2="1578" stroke="black" stroke-width="2" />
<line x1="4343" y1="1885" x2="4361" y2="1885" stroke="black" stroke-width="2" />
<line x1="1160" y1="2545" x2="1216" y2="2545" stroke="black" stroke-width="2" />
<line x1="4007" y1="2545" x2="4063" y2="2545" stroke="black" stroke-width="2" />
<line x1="2847" y1="1802" x2="2875" y2="1802" stroke="black" stroke-width="2" />
<line x1="3519" y1="3302" x2="3575" y2="3302" stroke="black" stroke-width="2" />
<line x1="2826" y1="3226" x2="2840" y2="3226" stroke="black" stroke-width="2" />
<line x1="3493" y1="3344" x2="3591" y2="3344" stroke="black" stroke-width="2" />
<line x1="3941" y1="3166" x2="3941" y2="3127" stroke="black" stroke-width="2" />
<line x1="2850" y1="2549" x2="2863" y2="2549" stroke="black" stroke-width="2" />
<line x1="2703" y1="3361" x2="3344" y2="3361" stroke="black" stroke-width="2" />
<line x1="3946" y1="2530" x2="4002" y2="2530" stroke="black" stroke-width="2" />
<line x1="2932" y1="1444" x2="3005" y2="1443" stroke="black" stroke-width="2" />
<line x1="1568" y1="1802" x2="1602" y2="1802" stroke="black" stroke-width="2" />
<line x1="2782" y1="3243" x2="2826" y2="3243" stroke="black" stroke-width="2" />
<line x1="4126" y1="1802" x2="4162" y2="1802" stroke="black" stroke-width="2" />
<line x1="3179" y1="1786" x2="3235" y2="1786" stroke="black" stroke-width="2" />
<line x1="2876" y1="1802" x2="2895" y2="1802" stroke="black" stroke-width="2" />
<line x1="2837" y1="1720" x2="2861" y2="1720" stroke="black" stroke-width="2" />
<line x1="972" y1="1820" x2="982" y2="1820" stroke="black" stroke-width="2" />
<line x1="2579" y1="1979" x2="2595" y2="1979" stroke="black" stroke-width="2" />
<line x1="1439" y1="1802" x2="1488" y2="1802" stroke="black" stroke-width="2" />
<line x1="4017" y1="3344" x2="4073" y2="3344" stroke="black" stroke-width="2" />
<line x1="569" y1="1756" x2="589" y2="1756" stroke="black" stroke-width="2" />
<line x1="3533" y1="3400" x2="3589" y2="3400" stroke="black" stroke-width="2" />
<line x1="2835" y1="1755" x2="2858" y2="1755" stroke="black" stroke-width="2" />
<line x1="1720" y1="2523" x2="1745" y2="2523" stroke="black" stroke-width="2" />
<line x1="1788" y1="1566" x2="1844" y2="1566" stroke="black" stroke-width="2" />
<line x1="4579" y1="1802" x2="4598" y2="1802" stroke="black" stroke-width="2" />
<line x1="4403" y1="1861" x2="4418" y2="1861" stroke="black" stroke-width="2" />
<line x1="4232" y1="3285" x2="4288" y2="3285" stroke="black" stroke-width="2" />
<line x1="4407" y1="3344" x2="4421" y2="3344" stroke="black" stroke-width="2" />
<line x1="3686" y1="2530" x2="3735" y2="2530" stroke="black" stroke-width="2" />
<line x1="2964" y1="1868" x2="2989" y2="1868" stroke="black" stroke-width="2" />
<line x1="2784" y1="3226" x2="2798" y2="3226" stroke="black" stroke-width="2" />
<line x1="3630" y1="3344" x2="3658" y2="3344" stroke="black" stroke-width="2" />
<line x1="1128" y1="1763" x2="1149" y2="1764" stroke="black" stroke-width="2" />
<line x1="3400" y1="2530" x2="3435" y2="2530" stroke="black" stroke-width="2" />
<line x1="1631" y1="1566" x2="1687" y2="1566" stroke="black" stroke-width="2" />
<line x1="881" y1="1802" x2="923" y2="1802" stroke="black" stroke-width="2" />
<line x1="2574" y1="1939" x2="2600" y2="1939" stroke="black" stroke-width="2" />
<line x1="2644" y1="1979" x2="2699" y2="1979" stroke="black" stroke-width="2" />
<line x1="1688" y1="1566" x2="1739" y2="1566" stroke="black" stroke-width="2" />
<line x1="688" y1="1743" x2="723" y2="1743" stroke="black" stroke-width="2" />
<line x1="3633" y1="2545" x2="3663" y2="2545" stroke="black" stroke-width="2" />
<line x1="399" y1="3006" x2="417" y2="3007" stroke="black" stroke-width="2" />
<line x1="2391" y1="2530" x2="2430" y2="2530" stroke="black" stroke-width="2" />
<line x1="4033" y1="1802" x2="4061" y2="1802" stroke="black" stroke-width="2" />
<line x1="2747" y1="2006" x2="2747" y2="1981" stroke="black" stroke-width="2" />
<line x1="1335" y1="2545" x2="1371" y2="2545" stroke="black" stroke-width="2" />
<line x1="3128" y1="3243" x2="3138" y2="3243" stroke="black" stroke-width="2" />
<line x1="4362" y1="1844" x2="4378" y2="1844" stroke="black" stroke-width="2" />
<line x1="3461" y1="3226" x2="3489" y2="3226" stroke="black" stroke-width="2" />
<line x1="3893" y1="3285" x2="3921" y2="3285" stroke="black" stroke-width="2" />
<line x1="2986" y1="3243" x2="3042" y2="3243" stroke="black" stroke-width="2" />
<line x1="1868" y1="1758" x2="1888" y2="1758" stroke="black" stroke-width="2" />
<line x1="2029" y1="1814" x2="2064" y2="1815" stroke="black" stroke-width="2" />
<line x1="2647" y1="1774" x2="2669" y2="1774" stroke="black" stroke-width="2" />
<line x1="3149" y1="3243" x2="3205" y2="3243" stroke="black" stroke-width="2" />
<line x1="4136" y1="3344" x2="4192" y2="3344" stroke="black" stroke-width="2" />
<line x1="4355" y1="3303" x2="4415" y2="3302" stroke="black" stroke-width="2" />
<line x1="2898" y1="3226" x2="2908" y2="3226" stroke="black" stroke-width="2" />
<line x1="944" y1="2545" x2="1000" y2="2545" stroke="black" stroke-width="2" />
<line x1="3434" y1="2545" x2="3490" y2="2545" stroke="black" stroke-width="2" />
<line x1="3158" y1="1944" x2="3172" y2="1944" stroke="black" stroke-width="2" />
<line x1="3248" y1="3226" x2="3301" y2="3226" stroke="black" stroke-width="2" />
<line x1="1226" y1="2907" x2="1236" y2="2908" stroke="black" stroke-width="2" />
<line x1="2715" y1="1538" x2="2740" y2="1538" stroke="black" stroke-width="2" />
<line x1="1535" y1="1874" x2="1549" y2="1874" stroke="black" stroke-width="2" />
<line x1="3942" y1="3245" x2="4003" y2="3244" stroke="black" stroke-width="2" />
<line x1="1142" y1="1703" x2="1162" y2="1703" stroke="black" stroke-width="2" />
<line x1="2285" y1="1774" x2="2309" y2="1774" stroke="black" stroke-width="2" />
<line x1="4532" y1="1802" x2="4549" y2="1802" stroke="black" stroke-width="2" />
<line x1="3741" y1="3302" x2="3797" y2="3302" stroke="black" stroke-width="2" />
<line x1="2747" y1="1727" x2="2768" y2="1727" stroke="black" stroke-width="2" />
<line x1="760" y1="2530" x2="796" y2="2530" stroke="black" stroke-width="2" />
<line x1="800" y1="2530" x2="828" y2="2530" stroke="black" stroke-width="2" />
<line x1="2761" y1="1898" x2="2791" y2="1898" stroke="black" stroke-width="2" />
<line x1="3910" y1="3302" x2="3923" y2="3302" stroke="black" stroke-width="2" />
<line x1="1528" y1="1985" x2="1546" y2="1985" stroke="black" stroke-width="2" />
<line x1="4839" y1="3400" x2="4849" y2="3400" stroke="black" stroke-width="2" />
<line x1="3668" y1="3285" x2="3724" y2="3285" stroke="black" stroke-width="2" />
<line x1="3764" y1="3285" x2="3820" y2="3285" stroke="black" stroke-width="2" />
<line x1="3941" y1="3343" x2="4003" y2="3344" stroke="black" stroke-width="2" />
<line x1="3978" y1="3285" x2="4026" y2="3285" stroke="black" stroke-width="2" />
<line x1="2700" y1="1963" x2="2731" y2="1963" stroke="black" stroke-width="2" />
<line x1="3249" y1="1655" x2="3265" y2="1654" stroke="black" stroke-width="2" />
<line x1="981" y1="1786" x2="1021" y2="1786" stroke="black" stroke-width="2" />
<line x1="1063" y1="1770" x2="1087" y2="1770" stroke="black" stroke-width="2" />
<line x1="3653" y1="3285" x2="3667" y2="3285" stroke="black" stroke-width="2" />
<line x1="3631" y1="2530" x2="3685" y2="2530" stroke="black" stroke-width="2" />
<line x1="4280" y1="1786" x2="4329" y2="1786" stroke="black" stroke-width="2" />
<line x1="3492" y1="3284" x2="3492" y2="3245" stroke="black" stroke-width="2" />
<line x1="3974" y1="2545" x2="4006" y2="2545" stroke="black" stroke-width="2" />
<line x1="2387" y1="2544" x2="2447" y2="2545" stroke="black" stroke-width="2" />
<line x1="605" y1="1756" x2="626" y2="1757" stroke="black" stroke-width="2" />
<line x1="4387" y1="1786" x2="4434" y2="1786" stroke="black" stroke-width="2" />
<line x1="2513" y1="1979" x2="2549" y2="1979" stroke="black" stroke-width="2" />
<line x1="1426" y1="1823" x2="1438" y2="1823" stroke="black" stroke-width="2" />
<line x1="2311" y1="1566" x2="2367" y2="1566" stroke="black" stroke-width="2" />
<line x1="3685" y1="3226" x2="3741" y2="3226" stroke="black" stroke-width="2" />
<line x1="4426" y1="3400" x2="4482" y2="3400" stroke="black" stroke-width="2" />
<line x1="1986" y1="1963" x2="2028" y2="1963" stroke="black" stroke-width="2" />
<line x1="4213" y1="3344" x2="4269" y2="3344" stroke="black" stroke-width="2" />
<line x1="3030" y1="1802" x2="3049" y2="1802" stroke="black" stroke-width="2" />
<line x1="3721" y1="2545" x2="3775" y2="2545" stroke="black" stroke-width="2" />
<line x1="4178" y1="3400" x2="4224" y2="3400" stroke="black" stroke-width="2" />
<line x1="1560" y1="1786" x2="1581" y2="1786" stroke="black" stroke-width="2" />
<line x1="2819" y1="1786" x2="2863" y2="1786" stroke="black" stroke-width="2" />
<line x1="1751" y1="1566" x2="1779" y2="1566" stroke="black" stroke-width="2" />
<line x1="1930" y1="1578" x2="1963" y2="1577" stroke="black" stroke-width="2" />
<line x1="1220" y1="2789" x2="1242" y2="2789" stroke="black" stroke-width="2" />
<line x1="2430" y1="1979" x2="2440" y2="1979" stroke="black" stroke-width="2" />
<line x1="3668" y1="3302" x2="3719" y2="3302" stroke="black" stroke-width="2" />
<line x1="1907" y1="1729" x2="1917" y2="1729" stroke="black" stroke-width="2" />
<line x1="3065" y1="1524" x2="3083" y2="1524" stroke="black" stroke-width="2" />
<line x1="4504" y1="1786" x2="4519" y2="1786" stroke="black" stroke-width="2" />
<line x1="1010" y1="1838" x2="1029" y2="1839" stroke="black" stroke-width="2" />
<line x1="3154" y1="1786" x2="3169" y2="1786" stroke="black" stroke-width="2" />
<line x1="503" y1="1786" x2="524" y2="1786" stroke="black" stroke-width="2" />
<line x1="3592" y1="1802" x2="3626" y2="1802" stroke="black" stroke-width="2" />
<line x1="4229" y1="3400" x2="4285" y2="3400" stroke="black" stroke-width="2" />
<line x1="2772" y1="1509" x2="2796" y2="1510" stroke="black" stroke-width="2" />
<line x1="3860" y1="1802" x2="3888" y2="1802" stroke="black" stroke-width="2" />
<line x1="4081" y1="3285" x2="4099" y2="3285" stroke="black" stroke-width="2" />
<line x1="1907" y1="1517" x2="1918" y2="1517" stroke="black" stroke-width="2" />
<line x1="3835" y1="3400" x2="3891" y2="3400" stroke="black" stroke-width="2" />
<line x1="1247" y1="2818" x2="1257" y2="2818" stroke="black" stroke-width="2" />
<line x1="2695" y1="1802" x2="2725" y2="1802" stroke="black" stroke-width="2" />
<line x1="3083" y1="2591" x2="3117" y2="2601" stroke="black" stroke-width="2" />
<line x1="2958" y1="1802" x2="2976" y2="1802" stroke="black" stroke-width="2" />
<line x1="4277" y1="3344" x2="4287" y2="3344" stroke="black" stroke-width="2" />
<line x1="3226" y1="1655" x2="3248" y2="1654" stroke="black" stroke-width="2" />
<line x1="4298" y1="3400" x2="4354" y2="3400" stroke="black" stroke-width="2" />
<line x1="3600" y1="3400" x2="3656" y2="3400" stroke="black" stroke-width="2" />
<line x1="4100" y1="3285" x2="4118" y2="3285" stroke="black" stroke-width="2" />
<line x1="3345" y1="3343" x2="3345" y2="3303" stroke="black" stroke-width="2" />
<line x1="1944" y1="1520" x2="1962" y2="1520" stroke="black" stroke-width="2" />
<line x1="2867" y1="2617" x2="2918" y2="2617" stroke="black" stroke-width="2" />
<line x1="3157" y1="3226" x2="3213" y2="3226" stroke="black" stroke-width="2" />
<line x1="3943" y1="3125" x2="3994" y2="3125" stroke="black" stroke-width="2" />
<line x1="4574" y1="3344" x2="4574" y2="3303" stroke="black" stroke-width="2" />
<line x1="907" y1="1786" x2="921" y2="1786" stroke="black" stroke-width="2" />
<line x1="3362" y1="3343" x2="3362" y2="3304" stroke="black" stroke-width="2" />
<line x1="2706" y1="3226" x2="2720" y2="3226" stroke="black" stroke-width="2" />
<line x1="3739" y1="3400" x2="3795" y2="3400" stroke="black" stroke-width="2" />
<line x1="4472" y1="3125" x2="4528" y2="3125" stroke="black" stroke-width="2" />
<line x1="3942" y1="3362" x2="3975" y2="3361" stroke="black" stroke-width="2" />
<line x1="4131" y1="3285" x2="4187" y2="3285" stroke="black" stroke-width="2" />
<line x1="4587" y1="3125" x2="4643" y2="3125" stroke="black" stroke-width="2" />
<line x1="3687" y1="3400" x2="3738" y2="3400" stroke="black" stroke-width="2" />
<line x1="3812" y1="3302" x2="3868" y2="3302" stroke="black" stroke-width="2" />
<line x1="2583" y1="1954" x2="2595" y2="1954" stroke="black" stroke-width="2" />
<line x1="1897" y1="1697" x2="1918" y2="1694" stroke="black" stroke-width="2" />
<line x1="1334" y1="1762" x2="1360" y2="1762" stroke="black" stroke-width="2" />
<line x1="2903" y1="1802" x2="2920" y2="1802" stroke="black" stroke-width="2" />
<line x1="3331" y1="3226" x2="3387" y2="3226" stroke="black" stroke-width="2" />
<line x1="2891" y1="1910" x2="2912" y2="1910" stroke="black" stroke-width="2" />
<line x1="930" y1="2545" x2="943" y2="2545" stroke="black" stroke-width="2" />
<line x1="2221" y1="1531" x2="2242" y2="1531" stroke="black" stroke-width="2" />
<line x1="2603" y1="1979" x2="2618" y2="1979" stroke="black" stroke-width="2" />
<line x1="3101" y1="1979" x2="3132" y2="1979" stroke="black" stroke-width="2" />
<line x1="3942" y1="1713" x2="3958" y2="1713" stroke="black" stroke-width="2" />
<line x1="2929" y1="1550" x2="2978" y2="1550" stroke="black" stroke-width="2" />
<line x1="4006" y1="3244" x2="4062" y2="3244" stroke="black" stroke-width="2" />
<line x1="4355" y1="3344" x2="4397" y2="3344" stroke="black" stroke-width="2" />
<line x1="3475" y1="3343" x2="3475" y2="3303" stroke="black" stroke-width="2" />
<line x1="1791" y1="1844" x2="1810" y2="1844" stroke="black" stroke-width="2" />
<line x1="2463" y1="1538" x2="2475" y2="1538" stroke="black" stroke-width="2" />
<line x1="4355" y1="3400" x2="4406" y2="3400" stroke="black" stroke-width="2" />
<line x1="2869" y1="2602" x2="2916" y2="2602" stroke="black" stroke-width="2" />
<line x1="1114" y1="2549" x2="1127" y2="2549" stroke="black" stroke-width="2" />
<line x1="3679" y1="1872" x2="3722" y2="1872" stroke="black" stroke-width="2" />
<line x1="4854" y1="3284" x2="4854" y2="3340" stroke="black" stroke-width="2" />
<line x1="3762" y1="1821" x2="3780" y2="1822" stroke="black" stroke-width="2" />
<line x1="3590" y1="3226" x2="3646" y2="3226" stroke="black" stroke-width="2" />
<line x1="1145" y1="1802" x2="1163" y2="1802" stroke="black" stroke-width="2" />
<line x1="3067" y1="1812" x2="3080" y2="1812" stroke="black" stroke-width="2" />
<line x1="1680" y1="2557" x2="1691" y2="2557" stroke="black" stroke-width="2" />
<line x1="3729" y1="1885" x2="3747" y2="1885" stroke="black" stroke-width="2" />
<line x1="2716" y1="1774" x2="2741" y2="1774" stroke="black" stroke-width="2" />
<line x1="1218" y1="2761" x2="1241" y2="2761" stroke="black" stroke-width="2" />
<line x1="1079" y1="1786" x2="1113" y2="1785" stroke="black" stroke-width="2" />
<line x1="3245" y1="1786" x2="3259" y2="1786" stroke="black" stroke-width="2" />
<line x1="434" y1="2818" x2="463" y2="2818" stroke="black" stroke-width="2" />
<line x1="4760" y1="3125" x2="4816" y2="3125" stroke="black" stroke-width="2" />
<line x1="3815" y1="3344" x2="3871" y2="3344" stroke="black" stroke-width="2" />
<line x1="4024" y1="3125" x2="4080" y2="3125" stroke="black" stroke-width="2" />
<line x1="3077" y1="3226" x2="3133" y2="3226" stroke="black" stroke-width="2" />
<line x1="2501" y1="2530" x2="2527" y2="2530" stroke="black" stroke-width="2" />
<line x1="4530" y1="3344" x2="4558" y2="3344" stroke="black" stroke-width="2" />
<line x1="3852" y1="1756" x2="3874" y2="1757" stroke="black" stroke-width="2" />
<line x1="2760" y1="1931" x2="2773" y2="1931" stroke="black" stroke-width="2" />
<line x1="4702" y1="3125" x2="4758" y2="3125" stroke="black" stroke-width="2" />
<line x1="1189" y1="2867" x2="1241" y2="2867" stroke="black" stroke-width="2" />
<line x1="1218" y1="1720" x2="1233" y2="1721" stroke="black" stroke-width="2" />
<line x1="4339" y1="3125" x2="4395" y2="3125" stroke="black" stroke-width="2" />
<line x1="2571" y1="1538" x2="2581" y2="1538" stroke="black" stroke-width="2" />
<line x1="4396" y1="3125" x2="4444" y2="3125" stroke="black" stroke-width="2" />
<line x1="1831" y1="1759" x2="1852" y2="1758" stroke="black" stroke-width="2" />
<line x1="387" y1="3006" x2="398" y2="3006" stroke="black" stroke-width="2" />
<line x1="4181" y1="3125" x2="4237" y2="3125" stroke="black" stroke-width="2" />
<line x1="1793" y1="1861" x2="1808" y2="1861" stroke="black" stroke-width="2" />
<line x1="2903" y1="2546" x2="2936" y2="2546" stroke="black" stroke-width="2" />
<line x1="4247" y1="3125" x2="4303" y2="3125" stroke="black" stroke-width="2" />
</svg>