<svg width="3500" height="1500" xmlns="http://www.w3.org/2000/svg"><line x1="272.0" y1="793.0" x2="-30.0" y2="793.0" stroke="black" stroke-width="20" />
<line x1="1924.0" y1="554.5" x2="1090.0" y2="554.5" stroke="black" stroke-width="20" />
<line x1="2184.902643230027" y1="790.6239278398202" x2="3509.055250115641" y2="800.835901671843" stroke="black" stroke-width="20" />
<line x1="2624.0" y1="551.0" x2="2007.0" y2="551.0" stroke="black" stroke-width="20" />
<line x1="2536.0" y1="970.0" x2="2221.0" y2="970.0" stroke="black" stroke-width="20" />
<line x1="310.9737289342617" y1="780.7727915747432" x2="1924.113158566276" y2="796.0566276866743" stroke="black" stroke-width="20" />
<line x1="2118.0" y1="102.99999999999999" x2="1699.9999999999995" y2="99.99999999999997" stroke="black" stroke-width="20" />
<line x1="1504.0" y1="502.0" x2="1379.0" y2="502.0" stroke="black" stroke-width="20" />
<line x1="2178.0" y1="787.0" x2="1925.0" y2="787.0" stroke="black" stroke-width="20" />
<line x1="2368.0" y1="493.5" x2="2256.0" y2="493.5" stroke="black" stroke-width="20" />
<line x1="2585.6282134268527" y1="923.4976958918062" x2="2862.5169341375968" y2="923.4976958918062" stroke="black" stroke-width="20" />
<line x1="1102.4734482009956" y1="866.5" x2="921.0" y2="866.5" stroke="black" stroke-width="20" />
<line x1="1349.0" y1="857.0" x2="1176.0" y2="857.0" stroke="black" stroke-width="20" />
<line x1="1176.7223700490822" y1="476.51247913274824" x2="1339.0" y2="476.51247913274824" stroke="black" stroke-width="20" />
<line x1="2337.856864097126" y1="714.9620446329523" x2="2511.218241340235" y2="719.9628535918881" stroke="black" stroke-width="20" />
<line x1="1502.0" y1="712.9994285061141" x2="1378.0" y2="712.9994285061141" stroke="black" stroke-width="20" />
<line x1="3248.0" y1="853.0" x2="3145.0" y2="853.0" stroke="black" stroke-width="20" />
<line x1="2655.9415389353226" y1="618.8645921691844" x2="2802.9415389353226" y2="621.8645921691844" stroke="black" stroke-width="20" />
<line x1="2535.0" y1="463.5" x2="2400.0" y2="463.5" stroke="black" stroke-width="20" />
<line x1="2518.0" y1="883.0" x2="2365.0" y2="883.0" stroke="black" stroke-width="20" />
<line x1="822.9999999999999" y1="701.0000000000001" x2="721.0" y2="698.9999999999999" stroke="black" stroke-width="20" />
<line x1="1083.7614699476899" y1="963.7668377754981" x2="962.7936933656961" y2="959.8006811662522" stroke="black" stroke-width="20" />
<line x1="1934.458185131529" y1="783.1782732848422" x2="2197.548413587761" y2="783.1782732848422" stroke="black" stroke-width="20" />
<line x1="2053.135471746795" y1="545.9873358115703" x2="1709.1774106862827" y2="555.968499449241" stroke="black" stroke-width="20" />
<line x1="1400.9386778776452" y1="806.3034212815309" x2="1874.2961728037112" y2="789.1941142360104" stroke="black" stroke-width="20" />
<line x1="1628.2608514070305" y1="567.4440209048148" x2="1400.7391485929693" y2="571.5559790951852" stroke="black" stroke-width="20" />
<line x1="2377.999999999999" y1="701.0" x2="2511.0" y2="698.0" stroke="black" stroke-width="20" />
<line x1="1083.6266044477009" y1="962.4819867101979" x2="963.1855903193713" y2="966.0331298978169" stroke="black" stroke-width="20" />
<line x1="1312.5961144652788" y1="850.0756628889206" x2="1177.2466562994123" y2="854.305333456604" stroke="black" stroke-width="20" />
<line x1="2496.319661797419" y1="886.7573089016676" x2="2361.7959675076354" y2="893.081892636588" stroke="black" stroke-width="20" />
<line x1="2553.004615739699" y1="970.5262348115845" x2="2669.9953842603018" y2="968.4737651884158" stroke="black" stroke-width="20" />
<line x1="1241.0062454461" y1="474.6121174398748" x2="1349.9937545539" y2="472.3878825601251" stroke="black" stroke-width="20" />
<line x1="908.1043447808524" y1="821.301377938636" x2="1138.8956552191437" y2="534.7196105336357" stroke="black" stroke-width="20" />
<line x1="2439.2707385185577" y1="792.8585092820856" x2="2242.844331647357" y2="992.2849161532789" stroke="black" stroke-width="20" />
<line x1="2803.529433329146" y1="822.712598150714" x2="2585.460905987107" y2="547.2065417401855" stroke="black" stroke-width="20" />
<line x1="1078.9999999999998" y1="899.0" x2="955.0040303620801" y2="893.5082627928218" stroke="black" stroke-width="20" />
<line x1="1175.9544609479058" y1="843.6881456760913" x2="1311.9544609479058" y2="852.6881456760914" stroke="black" stroke-width="20" />
<line x1="2077.6116713583897" y1="554.5227301396703" x2="1934.3262674765087" y2="543.686018921713" stroke="black" stroke-width="20" />
<line x1="1311.0000335036748" y1="489.2452572288458" x2="1189.955838234712" y2="482.7534149336274" stroke="black" stroke-width="20" />
<line x1="2210.155822788701" y1="706.8996982269207" x2="2312.756748072251" y2="712.4758354705918" stroke="black" stroke-width="20" />
<line x1="2122.0" y1="793.0" x2="2238.0" y2="784.0" stroke="black" stroke-width="20" />
<line x1="2343.462912064698" y1="539.4613874251436" x2="2114.583450663301" y2="562.7372648557927" stroke="black" stroke-width="20" />
</svg>