<svg width="3500" height="1500" xmlns="http://www.w3.org/2000/svg"><line x1="-30.0" y1="793.0" x2="272.0" y2="793.0" stroke="black" stroke-width="30" />
<line x1="1090.0" y1="557.0" x2="1924.0" y2="557.0" stroke="black" stroke-width="30" />
<line x1="2494.0" y1="793.0" x2="3088.0" y2="793.0" stroke="black" stroke-width="30" />
<line x1="2186.0" y1="548.0" x2="2269.0" y2="548.0" stroke="black" stroke-width="30" />
<line x1="2221.0" y1="970.0" x2="2536.0" y2="970.0" stroke="black" stroke-width="30" />
<line x1="1827.0" y1="784.0" x2="1910.0" y2="784.0" stroke="black" stroke-width="30" />
<line x1="1700.0" y1="100.0" x2="2118.0" y2="103.0" stroke="black" stroke-width="30" />
<line x1="1935.0" y1="784.0" x2="2018.0" y2="781.0" stroke="black" stroke-width="30" />
<line x1="2115.0" y1="545.0" x2="2196.0" y2="545.0" stroke="black" stroke-width="30" />
<line x1="908.1043447808527" y1="821.3013779386363" x2="1138.895655219144" y2="534.7196105336359" stroke="black" stroke-width="30" />
<line x1="1826.0" y1="548.0" x2="1909.0" y2="545.0" stroke="black" stroke-width="30" />
<line x1="1689.0" y1="571.0" x2="1772.0" y2="571.0" stroke="black" stroke-width="30" />
<line x1="2223.0" y1="784.0" x2="2306.0" y2="781.0" stroke="black" stroke-width="30" />
<line x1="3033.0" y1="805.0" x2="3114.0" y2="805.0" stroke="black" stroke-width="30" />
<line x1="1581.0" y1="808.0" x2="1664.0" y2="805.0" stroke="black" stroke-width="30" />
<line x1="1401.0" y1="571.0" x2="1484.0" y2="568.0" stroke="black" stroke-width="30" />
<line x1="1401.0" y1="808.0" x2="1484.0" y2="805.0" stroke="black" stroke-width="30" />
<line x1="1709.0" y1="548.0" x2="1801.0" y2="545.0" stroke="black" stroke-width="30" />
<line x1="2007.0" y1="784.0" x2="2090.0" y2="781.0" stroke="black" stroke-width="30" />
<line x1="1754.0" y1="548.0" x2="1837.0" y2="545.0" stroke="black" stroke-width="30" />
<line x1="1756.0" y1="781.0" x2="1837.0" y2="781.0" stroke="black" stroke-width="30" />
<line x1="2243.7867965644" y1="993.2132034355966" x2="2440.2132034356" y2="793.7867965644034" stroke="black" stroke-width="30" />
<line x1="873.0" y1="793.0" x2="1924.0" y2="793.0" stroke="black" stroke-width="30" />
<line x1="2586.1879884234986" y1="546.6310415198791" x2="2787.8157424302653" y2="801.3659546519664" stroke="black" stroke-width="30" />
<line x1="424.0" y1="827.0" x2="511.0" y2="832.0" stroke="black" stroke-width="30" />
<line x1="1617.0" y1="571.0" x2="1700.0" y2="571.0" stroke="black" stroke-width="30" />
<line x1="2673.23455171572" y1="659.593634398098" x2="2803.76544828428" y2="822.406365601902" stroke="black" stroke-width="30" />
<line x1="781.0" y1="793.0" x2="883.0" y2="793.0" stroke="black" stroke-width="30" />
<line x1="955.0040303620801" y1="893.5082627928218" x2="1079.0" y2="899.0" stroke="black" stroke-width="30" />
<line x1="602.0" y1="793.0" x2="718.0" y2="793.0" stroke="black" stroke-width="30" />
<line x1="2122.0" y1="793.0" x2="2238.0" y2="784.0" stroke="black" stroke-width="30" />
<line x1="2360.0" y1="557.0" x2="2476.0" y2="557.0" stroke="black" stroke-width="30" />
<line x1="2115.0" y1="784.0" x2="2197.0" y2="781.0" stroke="black" stroke-width="30" />
<line x1="1176.0" y1="843.0" x2="1312.0" y2="852.0" stroke="black" stroke-width="30" />
<line x1="2296.0" y1="793.0" x2="2412.0" y2="793.0" stroke="black" stroke-width="30" />
<line x1="602.0" y1="710.0" x2="699.0" y2="713.0" stroke="black" stroke-width="30" />
<line x1="2078.0" y1="548.0" x2="2161.0" y2="557.0" stroke="black" stroke-width="30" />
<line x1="2413.0" y1="717.0" x2="2487.0" y2="710.0" stroke="black" stroke-width="30" />
<line x1="2043.0" y1="545.0" x2="2124.0" y2="545.0" stroke="black" stroke-width="30" />
<line x1="1654.0" y1="568.0" x2="1734.0" y2="568.0" stroke="black" stroke-width="30" />
<line x1="1474.0" y1="568.0" x2="1554.0" y2="568.0" stroke="black" stroke-width="30" />
<line x1="1719.0" y1="784.0" x2="1802.0" y2="781.0" stroke="black" stroke-width="30" />
<line x1="1509.0" y1="571.0" x2="1592.0" y2="568.0" stroke="black" stroke-width="30" />
<line x1="2185.0" y1="793.0" x2="2301.0" y2="793.0" stroke="black" stroke-width="30" />
<line x1="1617.0" y1="808.0" x2="1700.0" y2="805.0" stroke="black" stroke-width="30" />
<line x1="2378.0" y1="701.0" x2="2511.0" y2="698.0" stroke="black" stroke-width="30" />
<line x1="965.0043081783815" y1="978.5084015562988" x2="1083.9956918216185" y2="975.0" stroke="black" stroke-width="30" />
<line x1="1970.0" y1="548.0" x2="2053.0" y2="545.0" stroke="black" stroke-width="30" />
<line x1="1426.0" y1="502.0" x2="1504.0" y2="502.0" stroke="black" stroke-width="30" />
<line x1="2080.030943793695" y1="785.3622298275584" x2="2161.969056206305" y2="781.6377701724416" stroke="black" stroke-width="30" />
<line x1="2019.0" y1="793.0" x2="2135.0" y2="793.0" stroke="black" stroke-width="30" />
<line x1="1217.0" y1="866.0" x2="1313.0" y2="863.0" stroke="black" stroke-width="30" />
<line x1="412.0" y1="793.0" x2="528.0" y2="793.0" stroke="black" stroke-width="30" />
<line x1="1201.066445264299" y1="846.004429684288" x2="1275.933554735701" y2="850.995570315712" stroke="black" stroke-width="30" />
<line x1="1934.0" y1="548.0" x2="2053.0" y2="557.0" stroke="black" stroke-width="30" />
<line x1="2281.0" y1="497.0" x2="2368.0" y2="497.0" stroke="black" stroke-width="30" />
<line x1="1653.0" y1="808.0" x2="1736.0" y2="805.0" stroke="black" stroke-width="30" />
<line x1="1509.0" y1="808.0" x2="1592.0" y2="805.0" stroke="black" stroke-width="30" />
<line x1="485.0" y1="832.0" x2="579.0" y2="832.0" stroke="black" stroke-width="30" />
<line x1="2586.0" y1="934.0" x2="2707.0" y2="937.0" stroke="black" stroke-width="30" />
<line x1="2085.0" y1="129.0" x2="2085.0" y2="-30.0" stroke="black" stroke-width="30" />
<line x1="2088.0" y1="132.0" x2="2088.0" y2="-30.0" stroke="black" stroke-width="30" />
<line x1="1190.030943793688" y1="483.6377701724399" x2="1271.969056206312" y2="487.3622298275601" stroke="black" stroke-width="30" />
<line x1="1437.0" y1="571.0" x2="1520.0" y2="571.0" stroke="black" stroke-width="30" />
<line x1="1007.0" y1="852.0" x2="1102.0" y2="855.0" stroke="black" stroke-width="30" />
<line x1="2589.0" y1="910.0" x2="2705.0" y2="913.0" stroke="black" stroke-width="30" />
<line x1="1247.0146377173883" y1="852.0629574286686" x2="1338.9853622826117" y2="854.9370425713314" stroke="black" stroke-width="30" />
<line x1="2228.0" y1="557.0" x2="2344.0" y2="545.0" stroke="black" stroke-width="30" />
<line x1="2100.0" y1="793.0" x2="2178.0" y2="793.0" stroke="black" stroke-width="30" />
<line x1="1730.0" y1="131.0" x2="1730.0" y2="-30.0" stroke="black" stroke-width="30" />
<line x1="1733.0" y1="129.0" x2="1733.0" y2="-30.0" stroke="black" stroke-width="30" />
<line x1="2523.0" y1="557.0" x2="2624.0" y2="557.0" stroke="black" stroke-width="30" />
<line x1="963.0043081783815" y1="953.5084015562988" x2="1081.9956918216185" y2="951.4915984437012" stroke="black" stroke-width="30" />
<line x1="1177.0053385532965" y1="464.4340629915712" x2="1289.9946614467035" y2="466.5659370084288" stroke="black" stroke-width="30" />
<line x1="1965.0" y1="793.0" x2="2078.0" y2="793.0" stroke="black" stroke-width="30" />
<line x1="2599.0" y1="925.0" x2="2695.0" y2="922.0" stroke="black" stroke-width="30" />
<line x1="2375.0" y1="721.0" x2="2511.0" y2="724.0" stroke="black" stroke-width="30" />
<line x1="2007.0" y1="545.0" x2="2078.0" y2="545.0" stroke="black" stroke-width="30" />
<line x1="1378.0" y1="714.0" x2="1465.0" y2="714.0" stroke="black" stroke-width="30" />
<line x1="990.0" y1="865.0" x2="1063.0" y2="865.0" stroke="black" stroke-width="30" />
<line x1="2294.0" y1="545.0" x2="2375.0" y2="545.0" stroke="black" stroke-width="30" />
<line x1="1252.0" y1="851.0" x2="1349.0" y2="851.0" stroke="black" stroke-width="30" />
<line x1="677.0" y1="793.0" x2="782.0" y2="793.0" stroke="black" stroke-width="30" />
<line x1="1473.0" y1="970.0" x2="1561.0" y2="970.0" stroke="black" stroke-width="30" />
<line x1="2221.0" y1="703.0" x2="2313.0" y2="708.0" stroke="black" stroke-width="30" />
<line x1="311.0" y1="793.0" x2="389.0" y2="793.0" stroke="black" stroke-width="30" />
<line x1="995.0" y1="881.0" x2="1078.0" y2="881.0" stroke="black" stroke-width="30" />
<line x1="3421.0" y1="793.0" x2="3509.0" y2="793.0" stroke="black" stroke-width="30" />
<line x1="3149.0" y1="841.0" x2="3248.0" y2="841.0" stroke="black" stroke-width="30" />
<line x1="1791.0" y1="784.0" x2="1874.0" y2="781.0" stroke="black" stroke-width="30" />
<line x1="1178.0178200193955" y1="485.96613172480727" x2="1295.9821799806045" y2="490.03386827519273" stroke="black" stroke-width="30" />
<line x1="2656.0" y1="616.0" x2="2803.0" y2="619.0" stroke="black" stroke-width="30" />
<line x1="3182.0" y1="793.0" x2="3298.0" y2="793.0" stroke="black" stroke-width="30" />
<line x1="1234.051768804749" y1="484.2383393414551" x2="1310.948231195251" y2="488.7616606585449" stroke="black" stroke-width="30" />
<line x1="2722.0" y1="925.0" x2="2810.0" y2="925.0" stroke="black" stroke-width="30" />
<line x1="1545.0" y1="571.0" x2="1628.0" y2="568.0" stroke="black" stroke-width="30" />
<line x1="2449.0" y1="473.0" x2="2535.0" y2="473.0" stroke="black" stroke-width="30" />
<line x1="2471.0" y1="557.0" x2="2582.0" y2="557.0" stroke="black" stroke-width="30" />
<line x1="592.0" y1="770.0" x2="676.0" y2="770.0" stroke="black" stroke-width="30" />
<line x1="2777.0" y1="910.0" x2="2852.0" y2="910.0" stroke="black" stroke-width="30" />
<line x1="559.0" y1="793.0" x2="661.0" y2="793.0" stroke="black" stroke-width="30" />
<line x1="2441.0" y1="891.0" x2="2518.0" y2="891.0" stroke="black" stroke-width="30" />
<line x1="3088.0" y1="793.0" x2="3204.0" y2="793.0" stroke="black" stroke-width="30" />
<line x1="1393.1834879597936" y1="482.6870542177554" x2="1470.8165120402064" y2="491.3129457822446" stroke="black" stroke-width="30" />
<line x1="3400.0" y1="725.0" x2="3486.0" y2="720.0" stroke="black" stroke-width="30" />
<line x1="2080.0" y1="781.0" x2="2161.0" y2="781.0" stroke="black" stroke-width="30" />
<line x1="2044.0" y1="781.0" x2="2125.0" y2="781.0" stroke="black" stroke-width="30" />
<line x1="1265.0" y1="476.0" x2="1339.0" y2="476.0" stroke="black" stroke-width="30" />
<line x1="1379.0" y1="502.0" x2="1465.0" y2="502.0" stroke="black" stroke-width="30" />
<line x1="2370.0" y1="891.0" x2="2495.996338561041" y2="888.468692790015" stroke="black" stroke-width="30" />
<line x1="3272.0" y1="793.0" x2="3360.0" y2="793.0" stroke="black" stroke-width="30" />
<line x1="2442.0" y1="793.0" x2="2516.0" y2="793.0" stroke="black" stroke-width="30" />
<line x1="1177.0260078072324" y1="842.248916341367" x2="1260.9739921927676" y2="838.751083658633" stroke="black" stroke-width="30" />
<line x1="1894.0137646256394" y1="558.9086737992243" x2="1986.9862353743606" y2="556.0913262007757" stroke="black" stroke-width="30" />
<line x1="1418.0" y1="709.0" x2="1502.0" y2="709.0" stroke="black" stroke-width="30" />
<line x1="2305.0" y1="557.0" x2="2419.0" y2="557.0" stroke="black" stroke-width="30" />
<line x1="330.0" y1="793.0" x2="429.0" y2="793.0" stroke="black" stroke-width="30" />
<line x1="2265.0" y1="784.0" x2="2342.0" y2="784.0" stroke="black" stroke-width="30" />
<line x1="1925.0" y1="793.0" x2="2013.0" y2="793.0" stroke="black" stroke-width="30" />
<line x1="955.0" y1="841.0" x2="1043.0" y2="841.0" stroke="black" stroke-width="30" />
<line x1="2032.0" y1="557.0" x2="2148.0" y2="557.0" stroke="black" stroke-width="30" />
<line x1="3342.0" y1="793.0" x2="3430.0" y2="793.0" stroke="black" stroke-width="30" />
<line x1="2338.0" y1="710.0" x2="2442.0" y2="713.0" stroke="black" stroke-width="30" />
<line x1="2242.0" y1="793.0" x2="2355.0" y2="793.0" stroke="black" stroke-width="30" />
<line x1="1367.4839026970035" y1="698.6334368540022" x2="1437.5160973029965" y2="711.3665631459978" stroke="black" stroke-width="30" />
<line x1="2005.0883654349514" y1="544.6991050334573" x2="2077.911634565042" y2="550.3008949665427" stroke="black" stroke-width="30" />
<line x1="1176.0" y1="863.0" x2="1287.0" y2="863.0" stroke="black" stroke-width="30" />
<line x1="3260.0" y1="865.0" x2="3332.0" y2="865.0" stroke="black" stroke-width="30" />
<line x1="2256.0" y1="490.0" x2="2335.0" y2="490.0" stroke="black" stroke-width="30" />
<line x1="2232.0819673663045" y1="879.7838494345406" x2="2318.9180326336955" y2="886.2161505654594" stroke="black" stroke-width="30" />
<line x1="721.0" y1="699.0" x2="823.0" y2="701.0" stroke="black" stroke-width="30" />
<line x1="1194.0762390050772" y1="868.1374114996388" x2="1267.9237609949228" y2="862.8625885003612" stroke="black" stroke-width="30" />
<line x1="2637.1488842936988" y1="910.0148884293712" x2="2706.8511157063012" y2="916.9851115706288" stroke="black" stroke-width="30" />
<line x1="1201.0" y1="472.0" x2="1277.0" y2="474.0" stroke="black" stroke-width="30" />
<line x1="2114.0" y1="557.0" x2="2232.0" y2="545.0" stroke="black" stroke-width="30" />
<line x1="1980.0762390050772" y1="786.1374114996388" x2="2053.9237609949214" y2="780.8625885003612" stroke="black" stroke-width="30" />
<line x1="921.0" y1="892.0" x2="1000.0" y2="892.0" stroke="black" stroke-width="30" />
<line x1="2400.0" y1="454.0" x2="2479.0" y2="454.0" stroke="black" stroke-width="30" />
<line x1="1366.0" y1="568.0" x2="1446.0" y2="568.0" stroke="black" stroke-width="30" />
<line x1="1709.0" y1="565.0" x2="1796.0" y2="565.0" stroke="black" stroke-width="30" />
<line x1="2441.0" y1="875.0" x2="2517.0" y2="875.0" stroke="black" stroke-width="30" />
<line x1="1201.1488842936988" y1="476.01488842936953" x2="1280.8511157063012" y2="483.98511157063047" stroke="black" stroke-width="30" />
<line x1="2718.0" y1="623.0" x2="2792.0" y2="623.0" stroke="black" stroke-width="30" />
<line x1="1407.0" y1="716.0" x2="1488.0" y2="717.0" stroke="black" stroke-width="30" />
<line x1="2362.0517688047557" y1="894.7616606585432" x2="2438.9482311952443" y2="890.2383393414568" stroke="black" stroke-width="30" />
<line x1="2194.213694845388" y1="706.5743566185522" x2="2278.786305154612" y2="696.4256433814478" stroke="black" stroke-width="30" />
<line x1="1432.1036272526562" y1="494.50863560438745" x2="1503.8963727473438" y2="500.49136439561255" stroke="black" stroke-width="30" />
<line x1="963.0161117090033" y1="953.0169216953768" x2="1083.9838882909967" y2="956.9830783046232" stroke="black" stroke-width="30" />
<line x1="1437.0283152493512" y1="809.3031167282895" x2="1519.9716847506488" y2="805.6968832717105" stroke="black" stroke-width="30" />
<line x1="2353.0" y1="793.0" x2="2463.0" y2="793.0" stroke="black" stroke-width="30" />
<line x1="2239.0" y1="877.0" x2="2319.0" y2="881.0" stroke="black" stroke-width="30" />
<line x1="488.0" y1="793.0" x2="604.0" y2="793.0" stroke="black" stroke-width="30" />
<line x1="2775.0" y1="921.0" x2="2862.0" y2="924.0" stroke="black" stroke-width="30" />
<line x1="2246.677575036807" y1="688.6600162241746" x2="2342.322424963193" y2="709.3399837758254" stroke="black" stroke-width="30" />
<line x1="1203.0" y1="463.0" x2="1308.0" y2="463.0" stroke="black" stroke-width="30" />
<line x1="3275.0" y1="854.0" x2="3370.0" y2="851.0" stroke="black" stroke-width="30" />
<line x1="1351.7143881944808" y1="715.5079137345595" x2="1443.2632300620335" y2="694.3921738569597" stroke="black" stroke-width="30" />
<line x1="1473.0283152493512" y1="572.3031167282895" x2="1555.9716847506488" y2="568.6968832717105" stroke="black" stroke-width="30" />
<line x1="2171.0" y1="557.0" x2="2283.0" y2="557.0" stroke="black" stroke-width="30" />
<line x1="3145.0" y1="865.0" x2="3216.0" y2="865.0" stroke="black" stroke-width="30" />
<line x1="1204.0883654349514" y1="482.6991050334573" x2="1276.9116345650486" y2="488.3008949665427" stroke="black" stroke-width="30" />
<line x1="2587.0414651200254" y1="910.4232350063155" x2="2665.9585348799746" y2="914.5767649936845" stroke="black" stroke-width="30" />
<line x1="2232.0" y1="865.0" x2="2302.0" y2="865.0" stroke="black" stroke-width="30" />
<line x1="2553.004615739699" y1="970.5262348115843" x2="2669.995384260301" y2="968.4737651884157" stroke="black" stroke-width="30" />
<line x1="1402.2631629795223" y1="488.03508839727" x2="1476.7368370204777" y2="497.96491160273" stroke="black" stroke-width="30" />
<line x1="1345.513834391968" y1="486.471343948494" x2="1420.486165608032" y2="500.528656051506" stroke="black" stroke-width="30" />
<line x1="2706.0" y1="910.0" x2="2790.0" y2="910.0" stroke="black" stroke-width="30" />
<line x1="1241.0062454461" y1="474.61211743987485" x2="1349.9937545539" y2="472.38788256012515" stroke="black" stroke-width="30" />
<line x1="939.1232038059686" y1="897.7160723812756" x2="1009.8767961940314" y2="891.2839276187244" stroke="black" stroke-width="30" />
<line x1="1474.0" y1="805.0" x2="1555.0" y2="805.0" stroke="black" stroke-width="30" />
<line x1="2739.0" y1="922.0" x2="2830.0" y2="922.0" stroke="black" stroke-width="30" />
<line x1="2423.0" y1="793.0" x2="2501.0" y2="793.0" stroke="black" stroke-width="30" />
<line x1="3239.0" y1="793.0" x2="3331.0" y2="793.0" stroke="black" stroke-width="30" />
<line x1="1790.0" y1="548.0" x2="1862.0" y2="548.0" stroke="black" stroke-width="30" />
<line x1="2706.935973350932" y1="607.05633508088" x2="2784.064026649068" y2="643.94366491912" stroke="black" stroke-width="30" />
<line x1="2322.037429833669" y1="495.4981285083172" x2="2401.962570166331" y2="491.5018714916828" stroke="black" stroke-width="30" />
<line x1="2185.0" y1="708.0" x2="2267.0" y2="708.0" stroke="black" stroke-width="30" />
<line x1="975.0" y1="967.0" x2="1072.0" y2="967.0" stroke="black" stroke-width="30" />
<line x1="2258.7867965644" y1="974.2132034355966" x2="2374.2132034356" y2="858.7867965644034" stroke="black" stroke-width="30" />
<line x1="1675.123203805972" y1="779.7160723812756" x2="1745.876796194028" y2="773.2839276187244" stroke="black" stroke-width="30" />
<line x1="1688.0883654349514" y1="804.6991050334573" x2="1760.9116345650486" y2="810.3008949665427" stroke="black" stroke-width="30" />
<line x1="1689.0" y1="538.0" x2="1770.0" y2="538.0" stroke="black" stroke-width="30" />
<line x1="2365.0" y1="875.0" x2="2446.0" y2="875.0" stroke="black" stroke-width="30" />
<line x1="2394.5825797292755" y1="471.8834840541459" x2="2478.4174202707245" y2="455.1165159458541" stroke="black" stroke-width="30" />
<line x1="2210.0" y1="711.0" x2="2295.0" y2="716.0" stroke="black" stroke-width="30" />
<line x1="1712.0" y1="798.0" x2="1794.0" y2="798.0" stroke="black" stroke-width="30" />
<line x1="2229.0" y1="545.0" x2="2304.0" y2="545.0" stroke="black" stroke-width="30" />
<line x1="1229.1488842936988" y1="474.01488842936953" x2="1298.8511157063012" y2="480.98511157063047" stroke="black" stroke-width="30" />
<line x1="1710.0260078072324" y1="564.248916341367" x2="1793.9739921927676" y2="560.751083658633" stroke="black" stroke-width="30" />
<line x1="3371.0" y1="793.0" x2="3469.0" y2="793.0" stroke="black" stroke-width="30" />
<line x1="921.1488842936988" y1="886.9851115706288" x2="990.8511157063012" y2="880.0148884293712" stroke="black" stroke-width="30" />
<line x1="1201.0" y1="858.0" x2="1276.0" y2="858.0" stroke="black" stroke-width="30" />
<line x1="1366.0" y1="805.0" x2="1447.0" y2="805.0" stroke="black" stroke-width="30" />
<line x1="2417.0" y1="557.0" x2="2526.0" y2="557.0" stroke="black" stroke-width="30" />
<line x1="3059.030943793695" y1="795.3622298275584" x2="3140.969056206305" y2="791.6377701724416" stroke="black" stroke-width="30" />
</svg>