<svg xmlns="http://www.w3.org/2000/svg" baseProfile="full" height="766" version="1.1" width="4447"><defs /><rect fill="none" height="104" stroke="red" stroke-width="10" width="176" x="3329" y="519" /><text fill="red" font-family="Arial" font-size="48px" x="3329" y="514">traffic_light 0.58</text><rect fill="none" height="100" stroke="red" stroke-width="10" width="103" x="4001" y="521" /><text fill="red" font-family="Arial" font-size="48px" x="4001" y="516">traffic_light 0.47</text><rect fill="none" height="69" stroke="red" stroke-width="10" width="89" x="2416" y="475" /><text fill="red" font-family="Arial" font-size="48px" x="2416" y="470">switch_2 0.39</text><rect fill="none" height="86" stroke="red" stroke-width="10" width="83" x="2920" y="482" /><text fill="red" font-family="Arial" font-size="48px" x="2920" y="477">switch_2 0.37</text><rect fill="none" height="80" stroke="red" stroke-width="10" width="252" x="773" y="379" /><text fill="red" font-family="Arial" font-size="48px" x="773" y="374">traffic_light 0.34</text><rect fill="none" height="94" stroke="red" stroke-width="10" width="90" x="2906" y="470" /><text fill="red" font-family="Arial" font-size="48px" x="2906" y="465">switch_2 0.33</text><rect fill="none" height="99" stroke="red" stroke-width="10" width="96" x="2899" y="451" /><text fill="red" font-family="Arial" font-size="48px" x="2899" y="446">switch_2 0.25</text><line x1="128.0" y1="508.0" x2="4346.0" y2="508.0" stroke="blue" stroke-width="20" />
<line x1="379.0" y1="428.0" x2="1688.0" y2="212.0" stroke="blue" stroke-width="20" />
<line x1="903.0" y1="509.49850044985004" x2="485.0" y2="509.49850044985004" stroke="blue" stroke-width="20" />
<line x1="2500.101996765301" y1="262.958311039681" x2="1275.9471706557895" y2="283.9138858090307" stroke="blue" stroke-width="20" />
<line x1="1002.9830405758352" y1="509.08297439541275" x2="3988.023148323794" y2="506.0904529841366" stroke="blue" stroke-width="20" />
<line x1="2722.0" y1="685.0" x2="2401.0" y2="685.0" stroke="blue" stroke-width="20" />
<line x1="2809.0" y1="266.0" x2="2516.0" y2="266.0" stroke="blue" stroke-width="20" />
<line x1="4346.0" y1="508.0" x2="4017.0" y2="508.0" stroke="blue" stroke-width="20" />
<line x1="2771.6282134268527" y1="638.4976958918062" x2="3037.0" y2="638.4976958918062" stroke="blue" stroke-width="20" />
<line x1="458.0" y1="508.0" x2="128.0" y2="508.0" stroke="blue" stroke-width="20" />
<line x1="1324.8956552191444" y1="249.66176459388885" x2="1094.1043447808563" y2="536.3013779386365" stroke="blue" stroke-width="20" />
<line x1="2429.7867965643995" y1="708.2132034355965" x2="2651.2132034355996" y2="490.7867965644032" stroke="blue" stroke-width="20" />
<line x1="2758.444688320921" y1="249.23939665918658" x2="2988.1175081731317" y2="530.1704533224053" stroke="blue" stroke-width="20" />
</svg>