<svg xmlns="http://www.w3.org/2000/svg" baseProfile="full" height="1013" version="1.1" width="4640"><defs /><rect fill="none" height="107" stroke="red" stroke-width="10" width="134" x="2378" y="747" /><text fill="red" font-family="Arial" font-size="48px" x="2378" y="742">switch_1 0.56</text><rect fill="none" height="96" stroke="red" stroke-width="10" width="279" x="2620" y="277" /><text fill="red" font-family="Arial" font-size="48px" x="2620" y="272">traffic_light 0.55</text><rect fill="none" height="84" stroke="red" stroke-width="10" width="212" x="1608" y="828" /><text fill="red" font-family="Arial" font-size="48px" x="1608" y="823">traffic_light 0.54</text><rect fill="none" height="86" stroke="red" stroke-width="10" width="171" x="3549" y="305" /><text fill="red" font-family="Arial" font-size="48px" x="3549" y="300">traffic_light 0.52</text><rect fill="none" height="90" stroke="red" stroke-width="10" width="112" x="712" y="229" /><text fill="red" font-family="Arial" font-size="48px" x="712" y="224">switch_2 0.49</text><rect fill="none" height="95" stroke="red" stroke-width="10" width="305" x="2596" y="855" /><text fill="red" font-family="Arial" font-size="48px" x="2596" y="850">traffic_light 0.46</text><rect fill="none" height="102" stroke="red" stroke-width="10" width="150" x="3439" y="625" /><text fill="red" font-family="Arial" font-size="48px" x="3439" y="620">traffic_light 0.42</text><rect fill="none" height="95" stroke="red" stroke-width="10" width="126" x="951" y="752" /><text fill="red" font-family="Arial" font-size="48px" x="951" y="747">switch_2 0.41</text><rect fill="none" height="45" stroke="red" stroke-width="10" width="195" x="698" y="0" /><text fill="red" font-family="Arial" font-size="48px" x="698" y="-5">traffic_light 0.39</text><rect fill="none" height="69" stroke="red" stroke-width="10" width="150" x="1656" y="546" /><text fill="red" font-family="Arial" font-size="48px" x="1656" y="541">traffic_light 0.39</text><rect fill="none" height="76" stroke="red" stroke-width="10" width="187" x="891" y="544" /><text fill="red" font-family="Arial" font-size="48px" x="891" y="539">traffic_light 0.39</text><rect fill="none" height="112" stroke="red" stroke-width="10" width="123" x="545" y="65" /><text fill="red" font-family="Arial" font-size="48px" x="545" y="60">switch_2 0.38</text><rect fill="none" height="97" stroke="red" stroke-width="10" width="97" x="1260" y="563" /><text fill="red" font-family="Arial" font-size="48px" x="1260" y="558">switch_1 0.34</text><rect fill="none" height="94" stroke="red" stroke-width="10" width="139" x="2043" y="403" /><text fill="red" font-family="Arial" font-size="48px" x="2043" y="398">switch_2 0.29</text><rect fill="none" height="109" stroke="red" stroke-width="10" width="222" x="1871" y="280" /><text fill="red" font-family="Arial" font-size="48px" x="1871" y="275">traffic_light 0.27</text><rect fill="none" height="43" stroke="red" stroke-width="10" width="165" x="712" y="0" /><text fill="red" font-family="Arial" font-size="48px" x="712" y="-5">traffic_light 0.26</text><line x1="1471.8080067185956" y1="791.1457613904827" x2="3289.0268738885698" y2="806.9001898423578" stroke="blue" stroke-width="20" />
<line x1="1129.0" y1="443.0" x2="122.0" y2="443.0" stroke="blue" stroke-width="20" />
<line x1="120.65145811848173" y1="89.71975353198499" x2="1108.0" y2="89.71975353198499" stroke="blue" stroke-width="20" />
<line x1="1411.0" y1="273.0008783858551" x2="571.0" y2="273.0008783858551" stroke="blue" stroke-width="20" />
<line x1="3878.7275560221083" y1="801.6201213991604" x2="4247.8768818761955" y2="808.0587724314993" stroke="blue" stroke-width="20" />
<line x1="2556.3419364716356" y1="915.9255937048691" x2="2167.8717882254837" y2="914.7363259243477" stroke="blue" stroke-width="20" />
<line x1="1988.064703400535" y1="627.2866897327353" x2="910.8631104055071" y2="615.0873511937202" stroke="blue" stroke-width="20" />
<line x1="3697.0" y1="675.0" x2="3442.0" y2="675.0" stroke="blue" stroke-width="20" />
<line x1="1164.7883824968415" y1="802.5" x2="147.2251737185794" y2="802.5" stroke="blue" stroke-width="20" />
<line x1="1609.9447746059125" y1="443.9322412262777" x2="3306.0846583772254" y2="451.17537811717705" stroke="blue" stroke-width="20" />
<line x1="4531.0" y1="793.0" x2="4266.0" y2="793.0" stroke="blue" stroke-width="20" />
<line x1="3851.0" y1="791.5" x2="3320.0" y2="791.5" stroke="blue" stroke-width="20" />
<line x1="3786.2543841137312" y1="439.5743576313009" x2="3359.9817909218273" y2="439.0207472692488" stroke="blue" stroke-width="20" />
<line x1="1106.0" y1="801.0" x2="1529.0" y2="795.0" stroke="blue" stroke-width="20" />
<line x1="251.99999999999997" y1="624.0" x2="964.0" y2="618.0" stroke="blue" stroke-width="20" />
<line x1="256.15050132248166" y1="814.7457874533252" x2="878.0786168911429" y2="807.9363555310406" stroke="blue" stroke-width="20" />
<line x1="1068.0" y1="334.0" x2="805.0" y2="340.0" stroke="blue" stroke-width="20" />
<line x1="3276.0" y1="801.0" x2="3955.0" y2="795.0" stroke="blue" stroke-width="20" />
<line x1="3275.9999999999995" y1="445.99999999999994" x2="3781.9999999999995" y2="439.99999999999994" stroke="blue" stroke-width="20" />
<line x1="1316.0610230070392" y1="85.15688267572368" x2="859.0117589415877" y2="92.71141596606172" stroke="blue" stroke-width="20" />
<line x1="2482.043022975979" y1="824.4271787670425" x2="2069.9304069147747" y2="420.46660439371544" stroke="blue" stroke-width="20" />
<line x1="1320.49429915369" y1="624.1826197667486" x2="1016.7617026622905" y2="318.7656245849745" stroke="blue" stroke-width="20" />
<line x1="1669.2132034355934" y1="467.2132034355969" x2="1256.786796564407" y2="64.78679656440346" stroke="blue" stroke-width="20" />
<line x1="860.7247099354303" y1="359.42435173869194" x2="572.2944953053857" y2="72.26797357770478" stroke="blue" stroke-width="20" />
<line x1="2297.3359302397803" y1="820.4291897186822" x2="2062.178390749995" y2="594.299719564842" stroke="blue" stroke-width="20" />
<line x1="3781.5853179124388" y1="495.62612013047396" x2="3941.4168652725148" y2="817.9387084731823" stroke="blue" stroke-width="20" />
</svg>